<?xml version="1.0" encoding="UTF-8"?>
<svg id="Layer_1" data-name="Layer 1" xmlns="http://www.w3.org/2000/svg" xmlns:xlink="http://www.w3.org/1999/xlink" viewBox="0 0 3191.85 2061.62">
  <defs>
    <style>
      .cls-1 {
        fill: #a4b3ef;
      }

      .cls-2 {
        clip-path: url(#clippath-20);
      }

      .cls-3 {
        clip-path: url(#clippath-11);
      }

      .cls-4 {
        clip-path: url(#clippath-16);
      }

      .cls-5 {
        fill: #fff;
      }

      .cls-6 {
        fill: #fc476a;
      }

      .cls-7 {
        fill: #fbdc88;
      }

      .cls-8 {
        fill: #fad060;
      }

      .cls-9 {
        fill: #f6f9ff;
      }

      .cls-10 {
        clip-path: url(#clippath-2);
      }

      .cls-11 {
        clip-path: url(#clippath-13);
      }

      .cls-12 {
        fill: #d4dfff;
      }

      .cls-13 {
        clip-path: url(#clippath-15);
      }

      .cls-14 {
        clip-path: url(#clippath-6);
      }

      .cls-15, .cls-16, .cls-17 {
        fill: #1c056d;
      }

      .cls-18 {
        clip-path: url(#clippath-7);
      }

      .cls-19 {
        clip-path: url(#clippath-21);
      }

      .cls-20 {
        clip-path: url(#clippath-1);
      }

      .cls-21 {
        clip-path: url(#clippath-4);
      }

      .cls-22 {
        fill: #d40221;
      }

      .cls-16 {
        opacity: .56;
      }

      .cls-23 {
        fill: #c3ccf4;
      }

      .cls-24 {
        fill: #8699e9;
      }

      .cls-25 {
        clip-path: url(#clippath-12);
      }

      .cls-26 {
        opacity: .3;
      }

      .cls-26, .cls-27 {
        fill: #6880e4;
      }

      .cls-28 {
        clip-path: url(#clippath-24);
      }

      .cls-29 {
        opacity: .32;
      }

      .cls-29, .cls-30 {
        fill: #8c9ef4;
      }

      .cls-31 {
        fill: #eff9fe;
      }

      .cls-32 {
        clip-path: url(#clippath-22);
      }

      .cls-33 {
        fill: #eaf2fc;
      }

      .cls-34 {
        clip-path: url(#clippath-9);
      }

      .cls-35 {
        clip-path: url(#clippath);
      }

      .cls-36 {
        clip-path: url(#clippath-19);
      }

      .cls-37 {
        fill: #f6ab36;
      }

      .cls-38 {
        fill: #fe8e9c;
      }

      .cls-39 {
        clip-path: url(#clippath-3);
      }

      .cls-40 {
        fill: #f9c438;
      }

      .cls-41 {
        clip-path: url(#clippath-8);
      }

      .cls-42 {
        fill: #fd91a6;
      }

      .cls-43 {
        fill: #e57492;
      }

      .cls-44 {
        fill: #feb5c3;
      }

      .cls-45 {
        clip-path: url(#clippath-18);
      }

      .cls-46 {
        clip-path: url(#clippath-14);
      }

      .cls-47 {
        clip-path: url(#clippath-17);
      }

      .cls-17 {
        opacity: .49;
      }

      .cls-48 {
        clip-path: url(#clippath-5);
      }

      .cls-49 {
        fill: #4e60ab;
      }

      .cls-50 {
        clip-path: url(#clippath-10);
      }

      .cls-51 {
        clip-path: url(#clippath-23);
      }

      .cls-52 {
        fill: #1b3d9e;
      }

      .cls-53 {
        fill: #fd6c88;
      }

      .cls-54 {
        fill: #fde7af;
      }
    </style>
    <clipPath id="clippath">
      <path class="cls-12" d="m882.52,686.99s-4.66,852.23,13.97,854.56,1376.14,11.64,1387.79,0,16.3-861.55,0-861.55-1401.76,6.99-1401.76,6.99Z"/>
    </clipPath>
    <clipPath id="clippath-1">
      <path class="cls-12" d="m1703.17,1422.26c-3.42,0-6.19,2.77-6.19,6.19.06,50.11.84,387.66,11.35,389.33,11.35,1.8,351.91,11.82,358.72,0,6.3-10.93,8.43-339.8,8.72-389.3.02-3.43-2.76-6.21-6.19-6.21h-366.42Z"/>
    </clipPath>
    <clipPath id="clippath-2">
      <path class="cls-52" d="m2728.29,1068.74s-24.43-2.84-54.47-5.63c.19-3.48-145.62-16.22-145.62-16.22,0,0-126.19,641.88-119.63,651.47,6.56,9.59,77.04,18.26,83.6,16.39,3.06-.88,38.02-96.17,75.13-200.81,3.1,111.49,5.9,200.46,5.26,203.7-1.73,8.81,76.62,2.2,87.63,0,11.01-2.2,83.69-394.23,94.88-452.47,11.19-58.24-26.78-196.43-26.78-196.43Z"/>
    </clipPath>
    <clipPath id="clippath-3">
      <path class="cls-6" d="m2640.38,695.47s90.19,34.56,109.51,85.71c19.32,51.15-21.6,287.56-21.6,287.56,0,0-163.17,6.82-191.27-5.68s-17.87-289.83-5.37-318.25c12.5-28.42,40.9-49.34,40.9-49.34h67.82Z"/>
    </clipPath>
    <clipPath id="clippath-4">
      <path class="cls-5" d="m2208,1146.83s-213.12-98.44-214.21-102.54,18.55-45.9,30.63-52.76c12.08-6.87,69.67,25.41,69.67,25.41,0,0-63.04-42.37-60.98-48.12s44.75-90.82,53.72-92.55,135.31,63.51,135.31,63.51c0,0-130.2-81.35-125.13-87.66,5.07-6.31,36.61-66.63,46.63-61.98,10.02,4.66,81.61,56.62,81.61,56.62,0,0-78.24-60.45-74.59-68.73s15.12-34.01,19.44-31.5c4.32,2.51,187.21,143.07,187.21,143.07l-149.31,257.24Z"/>
    </clipPath>
    <clipPath id="clippath-5">
      <path class="cls-40" d="m2353.4,877.25l-152.73,263.13c-3.46,5.96-1.43,13.59,4.53,17.05l26.42,15.33c5.96,3.46,13.59,1.43,17.05-4.53l53.41-92.02c42.72,29.67,135.68,93.96,194.57,132.8,78.47,51.75,107.84-10.15,107.84-10.15,0,0,39.18-56.2-44.68-98.67-62.94-31.87-164.87-80.7-211.82-103.08l53.41-92.02c3.46-5.96,1.43-13.59-4.53-17.05l-26.42-15.33c-5.96-3.46-13.59-1.43-17.05,4.53Z"/>
    </clipPath>
    <clipPath id="clippath-6">
      <path class="cls-6" d="m2175.74,814.36c-2.79,8.01-8.86,14.96-16.7,18.19-5.51,2.27-11.59,2.67-17.33,4.28-5.74,1.61-11.58,4.93-13.57,10.55-1.5,4.24-.51,8.91.33,13.33,2.95,15.51,3.91,31.39,2.84,47.14-.75,11-4.94,24.52-15.86,25.96-11.08,1.46-21.91-11.29-31.97-6.42-6.63,3.21-7.9,12.09-7.21,19.42,2.25,23.67,15.42,44.66,24.03,66.83,11.95,30.77,15.13,64.89,9.09,97.34-3.46,18.6-12.78,39.35-31.27,43.36-6.64,1.44-13.65.4-20.02-1.95-11.69-4.32-21.65-13.16-27.32-24.26-3-5.87-4.83-12.3-7.97-18.1-11.69-21.54-39.82-31.67-47.85-54.82-7.16-20.66,4.8-42.96,18.72-59.83,13.91-16.87,30.83-32.83,35.96-54.08,1.86-7.69,2.04-15.69,3.44-23.47,2.79-15.53,10.56-30.14,21.9-41.12,9.45-9.16,21.33-15.92,29.14-26.51,5.53-7.5,8.66-16.44,12.25-25.03,7.26-17.37,17.56-34.66,32.98-45.97,5.95-4.36,15.18-10.63,22.99-9.04,7.99,1.63,15.63,9.04,19.73,15.77,5.12,8.41,6.97,19.02,3.69,28.44Z"/>
    </clipPath>
    <clipPath id="clippath-7">
      <path class="cls-38" d="m2777.74,921.47l-95.6,11.18s16.1,55.61,15.52,60.25c-.58,4.64-182.9,155.91-182.9,155.91,0,0-36.12.67-39.91,2.94-3.79,2.28,1.32,4.92,2.67,5.31,1.36.39,19.17,2.91,19.17,3.68s-43.86,18.98-42.29,20.05c1.58,1.06,2.2,9.78,11.3,9.39,0,0,4.65,12.98,9.68,11.81,5.04-1.16,6.39-1.36,6.39-1.36,0,0,.77,7.36,5.42,8.33,4.65.97,11.21,1.2,11.21,1.2,0,0,3.73,6.44,8.66,5.23,4.93-1.21,24.29-15.34,30.3-23.67,4.03-5.59,6.58-15.45,7.81-21.34,31.96-14.89,241.22-127.36,244.57-138.42,5.72-18.89-12.01-110.51-12.01-110.51Z"/>
    </clipPath>
    <clipPath id="clippath-8">
      <path class="cls-38" d="m2597.51,635.48c.17-.44.29-.85.36-1.24,2.17-11.92,12.69-88.5-8.25-106.94-20.94-18.44-93.79-6.36-87.42,30.23,0,0,14.41,45.96-.05,60.4-14.46,14.44-30.12,25.56-18.2,27.73,11.92,2.17,22.16-7.14,26.49-2.08,4.33,5.06,4.68,41.91,21.29,39.03,5.07-.88,13.01-4.62,21.64-9.73,2.78,21.08,6.57,48.59,8.15,53.99,2.62,8.98,67.82-11.61,77.63-22.88,8.84-10.14-33.15-58.86-41.65-68.52Z"/>
    </clipPath>
    <clipPath id="clippath-9">
      <path class="cls-38" d="m2519.71,876.88l-105.08,152.16,45.9,22.17,60.01-66.76s-1.05-99.88-.82-107.57Z"/>
    </clipPath>
    <clipPath id="clippath-10">
      <path class="cls-9" d="m1038.85,1022.98c-3.53-.16-6.32-3.05-6.34-6.59-.31-47.65-2.19-357.64,2.11-360.51,4.67-3.11,440.07-9.33,441.63,0,1.55,9.33,10.89,368.54,0,368.54-10.29,0-382.13,1.07-437.4-1.44Z"/>
    </clipPath>
    <clipPath id="clippath-11">
      <path class="cls-38" d="m757.53,1355.61l-14.88,365.71h-38.41s-39.46-162.14-20.32-229.59l-24.65-130.18,98.26-5.94Z"/>
    </clipPath>
    <clipPath id="clippath-12">
      <path class="cls-38" d="m611.63,1357.63l-44.42,363.5h-38.41s-26.08-168.09-1.55-233.78l-14.04-131.75,98.42,2.02Z"/>
    </clipPath>
    <clipPath id="clippath-13">
      <path class="cls-52" d="m528.8,1721.14h38.41l61.13,38.64c4.64,2.93,7.45,8.03,7.45,13.52v6.48h-111.05c-2.77,0-5.01-2.24-5.01-5.01v-25.22c0-10.19,3.17-20.12,9.08-28.42h0Z"/>
    </clipPath>
    <clipPath id="clippath-14">
      <path class="cls-52" d="m703.54,1721.32h38.41l61.13,38.64c4.64,2.93,7.45,8.03,7.45,13.52v6.48h-111.05c-2.77,0-5.01-2.24-5.01-5.01v-25.21c0-10.19,3.17-20.12,9.08-28.42h0Z"/>
    </clipPath>
    <clipPath id="clippath-15">
      <path class="cls-52" d="m719.49,1095.33s21.82,55.1,32.34,105.8c10.52,50.7,19.13,171.25,19.13,171.25,0,0-93.84,15.25-116.8,12.38l-11.76-156.73-5.78,155.3s-89.53.28-145.97-34.86c0,0,31.03-244.62,66.55-268.19l162.29,15.05Z"/>
    </clipPath>
    <clipPath id="clippath-16">
      <path class="cls-40" d="m574.62,768.95s-83.55,73.26-78.53,120.43c5.02,47.17,50.18,213.76,66.24,221.79,16.06,8.03,147.21,20.07,163.93-11.04,16.72-31.11,1.67-239.86-20.41-273.98-22.08-34.12-67.27-45.15-67.27-45.15l-63.95-12.05Z"/>
    </clipPath>
    <clipPath id="clippath-17">
      <path class="cls-5" d="m862.68,1252.63s130.07,35.88,130.89,31.13-95.8-99.37-95.8-99.37l-35.09,68.24Z"/>
    </clipPath>
    <clipPath id="clippath-18">
      <path class="cls-38" d="m724.39,1174.54s17.98,9.9,20.81,10.91c2.83,1.01,3.03,0,6.67,0s-14.06-23.2-18.48-27.45c-4.42-4.25-20.56-9.37-20.56-9.37,0,0-158.28-108.4-159.18-109.82-.9-1.42,6.28-34.92,6.28-34.92l-81.53-19.73s-8.55,86.62,3.59,102.47c6.56,8.56,197.06,82.99,200.23,83.62,0,0,23.37,25.91,34.28,31.77,10.91,5.86,40.88,3.11,40.88,3.11l-33-30.59Z"/>
    </clipPath>
    <clipPath id="clippath-19">
      <path class="cls-38" d="m983.56,731.87c-.97-2.26-25.42,13.96-25.42,13.96l-151.22,145.04-30.61,65.1s43.81,15.06,67.32,13.59c23.51-1.47,113.37-166.98,113.37-166.98l.49-25.19c9.05-7.54,21.72-27.66,22.97-29.89,1.61-2.9,4.06-13.38,3.09-15.63Z"/>
    </clipPath>
    <clipPath id="clippath-20">
      <path class="cls-38" d="m556.59,634.87c5.79-10.9,32.1-27.22,56.06-27.96,13.5-.42,27.39,6.96,33.02,19.24,12.73,27.8,38.89,94.54,19.5,105.38-8.63,4.83-19.99,5.01-31.44,2.75,1.77,18.23,2.3,48.52,1.97,54.26-.47,8.07-61-5.83-61.87-18.72-1.33-19.59,12.16-59.54,12.16-59.54-7.59-10.94-37.45-60.24-29.39-75.42Z"/>
    </clipPath>
    <clipPath id="clippath-21">
      <path class="cls-52" d="m653.49,616.46c-1.25-8.63-5.01-17.24-11.92-22.57-7.5-5.78-17.67-6.95-27.07-5.79-2.85.35-5.98,1.09-7.6,3.46-.82,1.21-1.1,2.61-1.06,4.06-1.27-.26-2.61-.5-4.04-.72-32.43-4.97-69.23,26.58-60.76,62.81,8.47,36.22,47.26,56.1,47.26,56.1,5.78-8.46,1.23-24.55,1.23-24.55-19.86-1.17-17.53-31.55-9.06-30.97,8.47.58,10.22,11.1,10.22,11.1l11.98-8.47c17.64-13.33,20.73-30.25,21.01-39.16.77,1.2,1.59,2.35,2.53,3.43,6.94,8.04,18.05,11,26.46,17.49.98-8.67,2.07-17.59.81-26.22Z"/>
    </clipPath>
    <clipPath id="clippath-22">
      <path class="cls-12" d="m1636.34,441.96s-91.15,158.57-96,180.88c-3.57,16.46-6.34,39.72-7.55,50.78-.26,2.41,2.48,3.96,4.41,2.49,11.63-8.85,39.53-30.62,43.72-38.89,5.32-10.5,94.36-177.71,92.24-180.29-2.12-2.58-20.38-23.44-36.84-14.97Z"/>
    </clipPath>
    <clipPath id="clippath-23">
      <path class="cls-52" d="m1687.23,455.74l-9.67-5.04c10.24-18.45,31.01-56.2,33.44-63.21,3.24-9.35-23.73-17.87-30.01-17.61-4.81.2-28.48,42.45-39.27,62.16l-10.02-5.22c-3.3-1.72-7.38-.44-9.1,2.87h0c-1.72,3.31-.44,7.38,2.87,9.1l55.53,28.92c3.3,1.72,7.38.44,9.1-2.87,1.72-3.3.44-7.38-2.87-9.1Z"/>
    </clipPath>
    <clipPath id="clippath-24">
      <path class="cls-27" d="m1868.33,1304.59l-167.13-31.61c-2.81-.53-4.66-3.24-4.13-6.05l14.22-75.16c.53-2.81,3.24-4.66,6.05-4.13l167.13,31.61c2.81.53,4.66,3.24,4.13,6.05l-14.22,75.16c-.53,2.81-3.24,4.66-6.05,4.13Z"/>
    </clipPath>
  </defs>
  <rect class="cls-31" width="3191.85" height="2061.62"/>
  <ellipse class="cls-12" cx="681.03" cy="1768.87" rx="275.14" ry="27.66"/>
  <ellipse class="cls-12" cx="2482.69" cy="1788.47" rx="275.14" ry="27.66"/>
  <path class="cls-9" d="m1795.46,289.46c-74.34-29.62-152.05-43.21-226.99-24.16-137.69,35-214.35,172.9-290.55,280.48-39.44,55.68-84.91,111.9-144.62,146.89-69.72,40.85-151.45,18.98-227.85,28.96-115.24,15.04-239.09,58.5-305.44,159.96-102.68,157.01-135.45,349.58-107,533.64,28.12,181.96,145.62,298.9,333.05,301.03,108.93,1.24,231.7-17.01,332.83-58.16,66.27-26.97,128.91-63.33,197.6-83.35,247.4-72.12,495.24,69.31,737.87,100.12,169.62,21.54,343.57,8.79,508.21-37.35,147.46-41.33,295.91-104.51,353.51-258.38,70.18-187.47-35.62-396.7-196.55-499.78-118.96-76.19-261.16-103.48-379.63-177.44-118.45-73.95-219.94-170.09-329.67-255.68-71.1-55.46-160.23-119.09-254.79-156.77Z"/>
  <g>
    <g>
      <rect class="cls-52" x="1437.97" y="1515.44" width="293.79" height="249.67"/>
      <rect class="cls-15" x="1326.12" y="1765.11" width="524.59" height="53.11" rx="22.08" ry="22.08"/>
    </g>
    <path class="cls-27" d="m847.98,642.69s1472.39-21.78,1482.61,0c10.22,21.78,23.86,927.46,0,943.26-23.86,15.81-1479.66,17.56-1482.61,0-3.56-21.15-31.89-905.95,0-943.26Z"/>
    <g>
      <path class="cls-12" d="m882.52,686.99s-4.66,852.23,13.97,854.56,1376.14,11.64,1387.79,0,16.3-861.55,0-861.55-1401.76,6.99-1401.76,6.99Z"/>
      <g class="cls-35">
        <path class="cls-26" d="m1665.39,1546.36s-6.79-156.01,4.07-160.08c10.86-4.07,431.87-14.83,443.75,2.59,5.34,7.83,4.24,165.74,4.24,165.74l-452.07-8.26"/>
      </g>
    </g>
  </g>
  <g>
    <g>
      <g>
        <path class="cls-12" d="m1703.17,1422.26c-3.42,0-6.19,2.77-6.19,6.19.06,50.11.84,387.66,11.35,389.33,11.35,1.8,351.91,11.82,358.72,0,6.3-10.93,8.43-339.8,8.72-389.3.02-3.43-2.76-6.21-6.19-6.21h-366.42Z"/>
        <g class="cls-20">
          <path class="cls-12" d="m1831.85,1454.59s-6.2,91.92,27.68,98.01c33.88,6.09,38.45-38.45,51.77-30.45,13.32,7.99,3.81,80.7,61.67,73.47,57.86-7.23,28.17-71.94,57.1-70.8,28.93,1.14-5.7,108.4,46.26,97.4,51.95-10.99,0,0,0,0v-170.11l-244.47,2.48"/>
        </g>
      </g>
      <path class="cls-6" d="m1838.71,1422.92c-5.42,8.73-6.51,19.99-6.86,31.67-.44,14.73.3,29.49,2.21,44.09,1.57,12.02,3.94,24.3,16.28,29.84,11.17,5.01,25.43,1.71,34.19-6.53,5.79-5.44,9.67-12.39,13.53-19.24,3.15-5.59,6.43-14.58,13-16.8,29.35-9.92,24.24,56.94,30.84,70.4,4.46,9.1,13.51,15.8,23.52,17.42,17.27,2.79,29.36-7.36,37.44-21.62,6.41-11.32,12.99-50.42,33.59-38.77,4.33,2.45,7.39,6.66,9.66,11.08,6.83,13.33,7.78,28.72,7.88,43.43.1,14.19-2.51,30.8,3.18,44.18,1.44,3.39,3.57,6.62,6.67,8.61,3.64,2.33,8.32,2.71,12.48,1.54,6.61-1.86,12.24-7.24,15.24-13.32,8.19-16.62,4.09-38.98,3.56-56.9-1.12-37.71-3.79-75.34-4.97-113.05-.2-4.59-.42-9.26-2.05-13.55-2.28-5.98-7.12-10.66-12.45-14.19-23.77-15.78-56.56-11.41-83.55-10.85-18.77.39-37.53.93-56.29,1.63-14.23.53-28.39,2.24-42.62,2.84-12.72.54-26.66.59-38.67,5.34-7.47,2.96-12.46,7.37-15.8,12.75Z"/>
      <path class="cls-5" d="m1755.38,1712.88s-2.2-90.04,0-98.25c2.2-8.21,269.07,0,269.07,0,0,0,4.47,92.67,0,98.25-4.47,5.58-255.67,3.35-269.07,0Z"/>
      <path class="cls-27" d="m1739.75,1422.26s62.39,222.55,333.02,267.91l25.99,5.64c3.12.68,5.34,3.43,5.34,6.62v36.89c0,4.07-3.55,7.22-7.59,6.73-35.16-4.29-184.74-28.34-285.02-135.03-114.29-121.59-108.31-188.76-108.31-188.76h36.58Z"/>
    </g>
    <circle class="cls-15" cx="1726.67" cy="1442.6" r="11.87"/>
  </g>
  <g>
    <g>
      <g>
        <path class="cls-38" d="m2410.11,1743.5l17.41-6.58,4.48-41.7,50.68,8.37s-12.64,35.7-12.42,36.54c.21.84,2.39,10.78,2.39,10.78,0,0-28.62,8.81-62.54-7.41Z"/>
        <g>
          <path class="cls-52" d="m2410.11,1743.5s41.25,11.16,62.54,7.41c0,0,8.14,26.3,2.5,37.57h-135.83c-3.8,0-6.01-4.3-3.78-7.38,2.59-3.58,5.81-7.69,8.75-10.48,6.26-5.94,65.82-27.12,65.82-27.12Z"/>
          <g>
            <path class="cls-15" d="m2401.3,1748.68c.18-.02.35-.02.53-.01-.23-.03-.47-.06-.7-.09.27.04.51.11.76.21-.21-.09-.42-.18-.63-.27.33.15.63.34.93.56-.18-.14-.36-.28-.54-.41,1.14.9,2.01,2.08,2.91,3.21,1,1.25,1.99,2.5,2.99,3.75.39.5,1.27.78,1.87.78.65,0,1.43-.29,1.87-.78.46-.5.81-1.17.78-1.87-.03-.75-.31-1.29-.78-1.87-1.33-1.67-2.64-3.35-3.98-5-.66-.81-1.35-1.53-2.18-2.17-1.06-.82-2.43-1.51-3.82-1.33-.73.09-1.33.24-1.87.78-.46.46-.81,1.21-.78,1.87.03.68.26,1.4.78,1.87.48.44,1.19.86,1.87.78h0Z"/>
            <path class="cls-15" d="m2386.88,1753.77c.08,0,.15,0,.23.01-.23-.03-.47-.06-.7-.09.15.02.29.06.44.12l-.63-.27c.36.15.68.38.99.62-.18-.14-.36-.28-.54-.41,1.59,1.25,3.02,2.69,4.26,4.29-.14-.18-.28-.36-.41-.54.48.62.92,1.26,1.34,1.93.36.58.92,1.03,1.58,1.22.63.17,1.48.1,2.04-.27,1.17-.76,1.74-2.37.95-3.62-1.06-1.69-2.3-3.28-3.7-4.7-.64-.65-1.31-1.25-2.02-1.82-1.15-.93-2.28-1.73-3.82-1.75-1.39-.02-2.71,1.23-2.65,2.65.06,1.45,1.16,2.63,2.65,2.65h0Z"/>
            <path class="cls-15" d="m2372.44,1758.46c1.32.59,2.55,1.32,3.69,2.2-.18-.14-.36-.28-.54-.41,1.2.93,2.28,2,3.22,3.2-.14-.18-.28-.36-.41-.54.15.19.29.38.43.58.41.57.88,1.02,1.58,1.22.63.17,1.48.1,2.04-.27.57-.36,1.06-.91,1.22-1.58.15-.66.14-1.47-.27-2.04-2.13-2.97-4.94-5.43-8.29-6.92-.67-.3-1.3-.47-2.04-.27-.61.17-1.28.64-1.58,1.22-.32.61-.49,1.36-.27,2.04.2.61.6,1.31,1.22,1.58h0Z"/>
            <path class="cls-15" d="m2362.47,1763.35s.09-.02.13-.02c-.23.03-.47.06-.7.09.17-.02.34-.01.51,0-.23-.03-.47-.06-.7-.09.17.03.33.08.5.14l-.63-.27c.5.22.93.53,1.37.86-.18-.14-.36-.28-.54-.41,1.87,1.44,3.58,3.08,5.1,4.88.42.49,1.25.78,1.87.78s1.43-.29,1.87-.78c.46-.5.81-1.17.78-1.87-.03-.74-.3-1.31-.78-1.87-1.13-1.33-2.36-2.58-3.68-3.72-.78-.68-1.6-1.34-2.45-1.94-.5-.35-1.06-.63-1.63-.81-.81-.26-1.6-.23-2.42-.08-.62.11-1.28.69-1.58,1.22-.33.57-.47,1.4-.27,2.04.21.64.6,1.26,1.22,1.58.66.35,1.3.4,2.04.27h0Z"/>
            <path class="cls-15" d="m2348.24,1769.41c.64.18,1.27.39,1.89.65-.21-.09-.42-.18-.63-.27,1.15.5,2.23,1.13,3.23,1.9-.18-.14-.36-.28-.54-.41.99.77,1.88,1.66,2.64,2.65-.14-.18-.28-.36-.41-.54.05.07.1.13.15.2.43.57.87,1.02,1.58,1.22.63.17,1.48.1,2.04-.27.57-.36,1.06-.91,1.22-1.58.15-.65.15-1.48-.27-2.04-1.25-1.68-2.67-3.09-4.4-4.28-1.54-1.06-3.3-1.85-5.1-2.34-1.34-.37-2.94.45-3.26,1.85-.32,1.4.42,2.87,1.85,3.26h0Z"/>
          </g>
          <path class="cls-15" d="m2338.49,1788.47h136.45c.12,0,.22.1.22.22v6.06c0,.12-.1.22-.22.22h-136.65c-.46,0-.1-5.22-.01-6.3,0-.11.1-.2.22-.2Z"/>
        </g>
        <path class="cls-15" d="m2413.96,1741.74c-6.29-2.44-12.6-4.9-18.48-8.23-2.75-1.55-5.49-3.27-7.88-5.34-2.19-1.9-4.5-4.47-4.64-7.52-.13-2.86,1.91-5.18,4.43-6.26,2.86-1.23,6.11-.71,8.93.37,5.48,2.09,10.26,6.29,13.55,11.08,3.62,5.25,5.71,11.45,5.82,17.84.03,1.7,2.68,1.71,2.65,0-.21-12.93-8.16-25.83-20.19-31.01-3.25-1.4-6.97-2.19-10.45-1.19-2.89.83-5.54,2.84-6.73,5.65-2.94,6.93,4.03,12.76,9.09,16.16,7.14,4.79,15.23,7.92,23.2,11.01,1.59.62,2.28-1.94.7-2.55h0Z"/>
        <path class="cls-15" d="m2415.87,1744.73c9.81-8.63,22.76-14.52,36.01-13.92,2.98.14,6.31.46,9.09,1.62,1.11.47,2.43,1.25,2.47,2.61.04,1.51-1.02,3.2-1.93,4.34-4.65,5.8-12.92,5.96-19.71,6.01-8.93.07-17.84-.72-26.62-2.35-1.67-.31-2.38,2.24-.7,2.55,8.69,1.61,17.52,2.45,26.36,2.45,7.6,0,16.51-.2,22.06-6.23,2.08-2.26,4.36-6.16,2.51-9.17-1.69-2.75-5.51-3.44-8.43-3.93-7.19-1.21-14.58-.46-21.51,1.76-7.94,2.55-15.21,6.89-21.46,12.38-1.28,1.13.6,3,1.87,1.87h0Z"/>
      </g>
      <g>
        <path class="cls-38" d="m2585.25,1743.5l17.41-6.58.67-39.63,48.94,1.94s-7.09,40.05-6.88,40.89c.21.84,2.39,10.78,2.39,10.78,0,0-28.62,8.81-62.54-7.41Z"/>
        <g>
          <path class="cls-52" d="m2585.25,1743.5s41.25,11.16,62.54,7.41c0,0,8.14,26.3,2.5,37.57h-135.83c-3.8,0-6.01-4.3-3.78-7.38,2.59-3.58,5.81-7.69,8.75-10.48,6.26-5.94,65.82-27.12,65.82-27.12Z"/>
          <g>
            <path class="cls-15" d="m2576.45,1748.68c.18-.02.35-.02.53-.01-.23-.03-.47-.06-.7-.09.27.04.51.11.76.21l-.63-.27c.33.15.63.34.93.56-.18-.14-.36-.28-.54-.41,1.14.9,2.01,2.08,2.91,3.21,1,1.25,1.99,2.5,2.99,3.75.39.5,1.27.78,1.87.78.65,0,1.43-.29,1.87-.78.46-.5.81-1.17.78-1.87-.03-.75-.31-1.29-.78-1.87-1.33-1.67-2.64-3.35-3.98-5-.66-.81-1.35-1.53-2.18-2.17-1.06-.82-2.43-1.51-3.82-1.33-.73.09-1.33.24-1.87.78-.46.46-.81,1.21-.78,1.87.03.68.26,1.4.78,1.87.48.44,1.19.86,1.87.78h0Z"/>
            <path class="cls-15" d="m2562.03,1753.77c.08,0,.15,0,.23.01-.23-.03-.47-.06-.7-.09.15.02.29.06.44.12l-.63-.27c.36.15.68.38.99.62-.18-.14-.36-.28-.54-.41,1.59,1.25,3.02,2.69,4.26,4.29-.14-.18-.28-.36-.41-.54.48.62.92,1.26,1.34,1.93.36.58.92,1.03,1.58,1.22.63.17,1.48.1,2.04-.27,1.17-.76,1.74-2.37.95-3.62-1.06-1.69-2.3-3.28-3.7-4.7-.64-.65-1.31-1.25-2.02-1.82-1.15-.93-2.28-1.73-3.82-1.75-1.39-.02-2.71,1.23-2.65,2.65.07,1.45,1.16,2.63,2.65,2.65h0Z"/>
            <path class="cls-15" d="m2547.59,1758.46c1.32.59,2.55,1.32,3.69,2.2-.18-.14-.36-.28-.54-.41,1.2.93,2.28,2,3.22,3.2-.14-.18-.28-.36-.41-.54.15.19.29.38.43.58.41.57.88,1.02,1.58,1.22.63.17,1.48.1,2.04-.27.57-.36,1.06-.91,1.22-1.58.15-.66.14-1.47-.27-2.04-2.13-2.97-4.94-5.43-8.29-6.92-.67-.3-1.3-.47-2.04-.27-.61.17-1.28.64-1.58,1.22-.32.61-.49,1.36-.27,2.04.2.61.6,1.31,1.22,1.58h0Z"/>
            <path class="cls-15" d="m2537.61,1763.35s.09-.02.13-.02c-.23.03-.47.06-.7.09.17-.02.34-.01.51,0-.23-.03-.47-.06-.7-.09.17.03.33.08.5.14l-.63-.27c.5.22.93.53,1.37.86-.18-.14-.36-.28-.54-.41,1.87,1.44,3.58,3.08,5.1,4.88.42.49,1.25.78,1.87.78s1.43-.29,1.87-.78c.46-.5.81-1.17.78-1.87-.03-.74-.3-1.31-.78-1.87-1.13-1.33-2.36-2.58-3.68-3.72-.78-.68-1.6-1.34-2.45-1.94-.5-.35-1.06-.63-1.63-.81-.81-.26-1.6-.23-2.42-.08-.62.11-1.28.69-1.58,1.22-.33.57-.47,1.4-.27,2.04.21.64.6,1.26,1.22,1.58.66.35,1.3.4,2.04.27h0Z"/>
            <path class="cls-15" d="m2523.38,1769.41c.64.18,1.27.39,1.89.65l-.63-.27c1.15.5,2.23,1.13,3.23,1.9-.18-.14-.36-.28-.54-.41.99.77,1.88,1.66,2.64,2.65-.14-.18-.28-.36-.41-.54.05.07.1.13.15.2.43.57.87,1.02,1.58,1.22.63.17,1.48.1,2.04-.27.57-.36,1.06-.91,1.22-1.58.15-.65.15-1.48-.27-2.04-1.25-1.68-2.67-3.09-4.4-4.28-1.54-1.06-3.3-1.85-5.1-2.34-1.34-.37-2.94.45-3.26,1.85-.32,1.4.42,2.87,1.85,3.26h0Z"/>
          </g>
          <path class="cls-15" d="m2513.63,1788.47h136.45c.12,0,.22.1.22.22v6.06c0,.12-.1.22-.22.22h-136.65c-.46,0-.1-5.22-.01-6.3,0-.11.1-.2.22-.2Z"/>
        </g>
        <path class="cls-15" d="m2589.1,1741.74c-6.29-2.44-12.6-4.9-18.48-8.23-2.75-1.55-5.49-3.27-7.88-5.34-2.19-1.9-4.5-4.47-4.64-7.52-.13-2.86,1.91-5.18,4.43-6.26,2.86-1.23,6.11-.71,8.93.37,5.48,2.09,10.26,6.29,13.55,11.08,3.62,5.25,5.71,11.45,5.82,17.84.03,1.7,2.68,1.71,2.65,0-.21-12.93-8.16-25.83-20.19-31.01-3.25-1.4-6.97-2.19-10.45-1.19-2.89.83-5.54,2.84-6.73,5.65-2.94,6.93,4.03,12.76,9.09,16.16,7.14,4.79,15.23,7.92,23.2,11.01,1.59.62,2.28-1.94.7-2.55h0Z"/>
        <path class="cls-15" d="m2591.01,1744.73c9.81-8.63,22.76-14.52,36.01-13.92,2.98.14,6.31.46,9.09,1.62,1.11.47,2.43,1.25,2.47,2.61.04,1.51-1.02,3.2-1.93,4.34-4.65,5.8-12.92,5.96-19.71,6.01-8.93.07-17.84-.72-26.62-2.35-1.67-.31-2.38,2.24-.7,2.55,8.69,1.61,17.52,2.45,26.36,2.45,7.6,0,16.51-.2,22.06-6.23,2.08-2.26,4.36-6.16,2.51-9.17-1.69-2.75-5.51-3.44-8.43-3.93-7.19-1.21-14.58-.46-21.51,1.76-7.94,2.55-15.21,6.89-21.46,12.38-1.28,1.13.6,3,1.87,1.87h0Z"/>
      </g>
    </g>
    <g>
      <path class="cls-52" d="m2728.29,1068.74s-24.43-2.84-54.47-5.63c.19-3.48-145.62-16.22-145.62-16.22,0,0-126.19,641.88-119.63,651.47,6.56,9.59,77.04,18.26,83.6,16.39,3.06-.88,38.02-96.17,75.13-200.81,3.1,111.49,5.9,200.46,5.26,203.7-1.73,8.81,76.62,2.2,87.63,0,11.01-2.2,83.69-394.23,94.88-452.47,11.19-58.24-26.78-196.43-26.78-196.43Z"/>
      <g class="cls-10">
        <path class="cls-15" d="m2567.3,1513.94l5.26-388.37s-16.8,79.79-24.82,153.34c-8.02,73.55-10.14,317.97-10.14,317.97l29.7-82.94"/>
        <path class="cls-15" d="m2528.2,1046.89s-12.45,61.01,108.87,75.36c121.32,14.35,125.92,15.01,125.92,15.01,0,0-10.51-106.34-27.58-112.93-17.07-6.59-207.2,22.56-207.2,22.56"/>
        <path class="cls-15" d="m2622.63,1723.87c-.06,0-.11,0-.17,0-1.46-.09-2.57-1.35-2.48-2.81.29-4.56,28.71-455.91,29.5-483.43,1.42-49.47,2.47-103.42,3.23-142.82.38-19.66.71-36.63,1-48.47.15-6.25.28-10.77.4-13.83.21-5.55.29-7.42,2.95-7.47.02,0,.04,0,.07,0,2.58,0,2.72,2.69,2.79,3.99.03.59-.13,1.14-.43,1.59-.38,7.79-.87,33.21-1.47,64.29-.77,39.41-1.82,93.38-3.24,142.87-.79,27.61-29.22,479.05-29.51,483.61-.09,1.4-1.25,2.48-2.64,2.48Z"/>
        <path class="cls-15" d="m2444.45,1719.1c-.15,0-.3-.01-.46-.04-1.44-.25-2.4-1.62-2.15-3.07,4.05-23.21,99.74-569.12,138.71-625.36.83-1.2,2.48-1.5,3.69-.67,1.2.83,1.5,2.48.67,3.69-38.31,55.29-136.86,617.58-137.85,623.25-.22,1.29-1.34,2.19-2.61,2.19Z"/>
      </g>
    </g>
    <g>
      <path class="cls-6" d="m2640.38,695.47s90.19,34.56,109.51,85.71c19.32,51.15-21.6,287.56-21.6,287.56,0,0-163.17,6.82-191.27-5.68s-17.87-289.83-5.37-318.25c12.5-28.42,40.9-49.34,40.9-49.34h67.82Z"/>
      <g class="cls-39">
        <path class="cls-22" d="m2654.91,808.51s-23.25,75.26-2.77,158.75c0,0-81.57,62.93-144.64,32.4,0,0,8.72,71.65,29.28,76.64,20.56,4.98,198.76,16.82,208.73,3.12s-18.69-145.8-18.69-145.8l-71.91-125.1"/>
      </g>
    </g>
    <g>
      <g>
        <path class="cls-5" d="m2208,1146.83s-213.12-98.44-214.21-102.54,18.55-45.9,30.63-52.76c12.08-6.87,69.67,25.41,69.67,25.41,0,0-63.04-42.37-60.98-48.12s44.75-90.82,53.72-92.55,135.31,63.51,135.31,63.51c0,0-130.2-81.35-125.13-87.66,5.07-6.31,36.61-66.63,46.63-61.98,10.02,4.66,81.61,56.62,81.61,56.62,0,0-78.24-60.45-74.59-68.73s15.12-34.01,19.44-31.5c4.32,2.51,187.21,143.07,187.21,143.07l-149.31,257.24Z"/>
        <g class="cls-21">
          <path class="cls-33" d="m2071.79,1089.89c-8.89-2.86-48.74-50.64-38.43-61.78,10.31-11.14,113.7,18.69,117.4,15.13,3.7-3.56-102.92-72.79-98.99-85.19,3.93-12.4,28.28-68.4,31.79-68.81,3.5-.41,199.93,88.32,195.76,84.27s-155.07-123.45-152.85-128.68c2.22-5.23,16.38-28.83,26.93-23.52,10.55,5.31,119.39,69.3,118.11,64.48-1.28-4.82-74.77-83.36-72.96-92.1s11.39-19.62,9.65-25.05c-1.74-5.43-42.56-50.33-54.62-39.38-12.06,10.94-194.44,315.31-184.46,327.63,9.98,12.32,102.66,33,102.66,33Z"/>
        </g>
      </g>
      <g>
        <path class="cls-40" d="m2353.4,877.25l-152.73,263.13c-3.46,5.96-1.43,13.59,4.53,17.05l26.42,15.33c5.96,3.46,13.59,1.43,17.05-4.53l53.41-92.02c42.72,29.67,135.68,93.96,194.57,132.8,78.47,51.75,107.84-10.15,107.84-10.15,0,0,39.18-56.2-44.68-98.67-62.94-31.87-164.87-80.7-211.82-103.08l53.41-92.02c3.46-5.96,1.43-13.59-4.53-17.05l-26.42-15.33c-5.96-3.46-13.59-1.43-17.05,4.53Z"/>
        <g class="cls-48">
          <path class="cls-37" d="m2302.07,1076.21l31.99-55.11s22.36,74.44,70.33,104.65c47.97,30.21,183.52,101.8,183.52,101.8,0,0-38.86,30.64-78.93,12.11-40.07-18.53-206.91-163.45-206.91-163.45"/>
        </g>
      </g>
    </g>
    <g>
      <path class="cls-6" d="m2175.74,814.36c-2.79,8.01-8.86,14.96-16.7,18.19-5.51,2.27-11.59,2.67-17.33,4.28-5.74,1.61-11.58,4.93-13.57,10.55-1.5,4.24-.51,8.91.33,13.33,2.95,15.51,3.91,31.39,2.84,47.14-.75,11-4.94,24.52-15.86,25.96-11.08,1.46-21.91-11.29-31.97-6.42-6.63,3.21-7.9,12.09-7.21,19.42,2.25,23.67,15.42,44.66,24.03,66.83,11.95,30.77,15.13,64.89,9.09,97.34-3.46,18.6-12.78,39.35-31.27,43.36-6.64,1.44-13.65.4-20.02-1.95-11.69-4.32-21.65-13.16-27.32-24.26-3-5.87-4.83-12.3-7.97-18.1-11.69-21.54-39.82-31.67-47.85-54.82-7.16-20.66,4.8-42.96,18.72-59.83,13.91-16.87,30.83-32.83,35.96-54.08,1.86-7.69,2.04-15.69,3.44-23.47,2.79-15.53,10.56-30.14,21.9-41.12,9.45-9.16,21.33-15.92,29.14-26.51,5.53-7.5,8.66-16.44,12.25-25.03,7.26-17.37,17.56-34.66,32.98-45.97,5.95-4.36,15.18-10.63,22.99-9.04,7.99,1.63,15.63,9.04,19.73,15.77,5.12,8.41,6.97,19.02,3.69,28.44Z"/>
      <g class="cls-14">
        <path class="cls-22" d="m2063.68,969.31c-.01,10.81,1.92,21.63,5.67,31.77,5.85,15.81,16.05,29.9,20.44,46.17,2.7,10,3.1,20.47,3.21,30.82.14,12.76-.19,25.88-5.03,37.7s-15.12,22.2-27.8,23.62c-2.25.25-4.62.25-6.64,1.27-2.96,1.51-4.49,4.94-4.82,8.24-.72,7.32,3.56,14.54,9.66,18.65,6.1,4.1,13.72,5.43,21.07,5.15,10.19-.38,20.24-3.7,28.66-9.45,13.31-9.1,22.01-23.85,26.34-39.37,4.33-15.52,4.65-31.89,3.91-47.99-1.28-27.79-6-56.38-21.22-79.67-8.67-13.26-20.77-24.72-26.22-39.89-1.43-3.97-2.07-8.03-2.7-12.19-.52-3.4-1.03-6.9-4.09-8.97-6.18-4.19-11.49,1.48-14.25,6.62-4.49,8.37-6.19,18.08-6.2,27.5Z"/>
      </g>
    </g>
    <g>
      <path class="cls-38" d="m2777.74,921.47l-95.6,11.18s16.1,55.61,15.52,60.25c-.58,4.64-182.9,155.91-182.9,155.91,0,0-36.12.67-39.91,2.94-3.79,2.28,1.32,4.92,2.67,5.31,1.36.39,19.17,2.91,19.17,3.68s-43.86,18.98-42.29,20.05c1.58,1.06,2.2,9.78,11.3,9.39,0,0,4.65,12.98,9.68,11.81,5.04-1.16,6.39-1.36,6.39-1.36,0,0,.77,7.36,5.42,8.33,4.65.97,11.21,1.2,11.21,1.2,0,0,3.73,6.44,8.66,5.23,4.93-1.21,24.29-15.34,30.3-23.67,4.03-5.59,6.58-15.45,7.81-21.34,31.96-14.89,241.22-127.36,244.57-138.42,5.72-18.89-12.01-110.51-12.01-110.51Z"/>
      <g class="cls-18">
        <path class="cls-43" d="m2457.55,1187.9c.84-.4,14.86-2.38,14.44-1.9s-2.69,3.71-2.57,7.18c.12,3.47,5.98,8.82,5.98,8.82,0,0,10.42-2.83,12.16-2.77,1.74.06-.25,8.14,2.81,8.8,3.07.66,17.24-1.56,17-.54-.24,1.02-6.11,8.29.48,8.07,0,0-7.73,2.05-11.08.43-3.35-1.62-34.81-10.21-37.28-15.55-2.47-5.34-1.94-12.55-1.94-12.55Z"/>
        <path class="cls-43" d="m2685.86,996.55c.71-.24,99.5-14.74,102.81-38.45l-3.78-23.71-108.01,7.33,8.98,54.83Z"/>
      </g>
    </g>
    <path class="cls-52" d="m2749.89,781.18s44.59,164.96,39.46,165.41c-5.13.45-111.86,16.87-120.07,9.69-8.21-7.18-23.39-131.24-14.37-147.78,20.41-37.44,94.98-27.32,94.98-27.32Z"/>
    <g>
      <g>
        <g>
          <path class="cls-38" d="m2597.51,635.48c.17-.44.29-.85.36-1.24,2.17-11.92,12.69-88.5-8.25-106.94-20.94-18.44-93.79-6.36-87.42,30.23,0,0,14.41,45.96-.05,60.4-14.46,14.44-30.12,25.56-18.2,27.73,11.92,2.17,22.16-7.14,26.49-2.08,4.33,5.06,4.68,41.91,21.29,39.03,5.07-.88,13.01-4.62,21.64-9.73,2.78,21.08,6.57,48.59,8.15,53.99,2.62,8.98,67.82-11.61,77.63-22.88,8.84-10.14-33.15-58.86-41.65-68.52Z"/>
          <g class="cls-41">
            <path class="cls-5" d="m2511.62,659.45s13.97-16.21,14.54-14.31c.57,1.9-5.33,24.35-9.89,24.92-4.57.57-4.65-10.61-4.65-10.61Z"/>
            <path class="cls-43" d="m2491.14,645.76s15.81-13.19,20.18-11.09,2.15,18.56,2.15,18.56c0,0-4.24-8.29-7.1-8.86-2.85-.57-15.24,1.39-15.24,1.39"/>
            <path class="cls-43" d="m2504.6,602.51c.64,0,42.34-11.14,46.59-27.59,0,0,2.06,15.03,21.37,13.22,19.3-1.8,0,0,0,0,0,0-17.11-52.65-20.3-52.22-3.19.43-60.63,39-60.63,39l12.98,27.59Z"/>
          </g>
        </g>
        <path class="cls-43" d="m2553.38,672.89s11.92-7.97,17.37-17c.45-.75,1.59-.49,1.66.38.58,7.24.32,26.03-16.97,32.01l-2.06-15.38Z"/>
      </g>
      <path class="cls-52" d="m2569.28,729.09s23.38,23.04,22.38,37.95c0,0,57.84-39.85,60.47-66.57l-13.43-7.43s-41.88,33.76-69.43,36.06Z"/>
      <path class="cls-52" d="m2561.53,726.88s-25.31,8.39-27.59,13.16c0,0,7.22-26.23,23.31-38.79l4.28,25.63Z"/>
      <path class="cls-52" d="m2508.16,587.31s38.04-9.76,43.77-34.95c0,0,4.05,32.35,20.63,35.78,0,0-1.45-12.31,5.42-17.89s16.03,7.01,13.45,19.89c-2.58,12.88-10.88,13.45-10.88,13.45,0,0,14.04,28.54,16.96,31.89,2.91,3.35,22.83-53.07,21.69-83.12-1.15-30.06-38.93-47.8-53.81-48.66l25.19-8.3s-25.48-6.3-34.64,6.58c0,0-8.59-13.74-20.9-10.88l10.88,10.59s-52.38-.29-64.98,12.02l15.74,2.29s-40.07,15.17-41.22,42.08l12.31-7.44s-13.45,14.88-13.45,32.35c0,0,17.07,15.8,53.84,4.32Z"/>
    </g>
    <g>
      <path class="cls-38" d="m2519.71,876.88l-105.08,152.16,45.9,22.17,60.01-66.76s-1.05-99.88-.82-107.57Z"/>
      <g class="cls-34">
        <path class="cls-43" d="m2517.38,875.74s-31.27,38.06-21.78,143.27l46.9-46.52-7.43-104.82-17.68,8.07Z"/>
      </g>
    </g>
  </g>
  <g>
    <path class="cls-26" d="m1019.99,680s-12.81,452.51,0,459.97c12.81,7.46,831.52,26.11,831.52,0v-459.97h-831.52Z"/>
    <g>
      <g>
        <path class="cls-5" d="m962.65,590.06c-5.17,135.68-17.27,500.7,2,503.49,23.67,3.43,831.94,16.03,843.74,0,9.36-12.72,4.95-355.41,1.87-495.1-119.01,1.55-735.9-6.84-847.61-8.39Z"/>
        <path class="cls-30" d="m1808.38,540.02c-1.62,2.28-744.62.28-834.81.03-4.99-.01-9.09,3.65-9.28,8.29-.35,8.41-.93,22.85-1.65,41.73,111.71,1.55,728.6,9.94,847.61,8.39-.8-36.32-1.51-58.93-1.87-58.43Z"/>
      </g>
      <g>
        <circle class="cls-52" cx="1008.73" cy="567.1" r="11.26" transform="translate(-105.55 879.38) rotate(-45)"/>
        <circle class="cls-33" cx="1059.82" cy="567.1" r="11.26" transform="translate(-136.68 452.16) rotate(-22.66)"/>
        <circle class="cls-33" cx="1110.9" cy="567.1" r="11.26" transform="translate(-75.63 951.63) rotate(-45)"/>
      </g>
    </g>
    <g>
      <path class="cls-9" d="m1038.85,1022.98c-3.53-.16-6.32-3.05-6.34-6.59-.31-47.65-2.19-357.64,2.11-360.51,4.67-3.11,440.07-9.33,441.63,0,1.55,9.33,10.89,368.54,0,368.54-10.29,0-382.13,1.07-437.4-1.44Z"/>
      <g class="cls-50">
        <path class="cls-12" d="m997.47,967.12l134.06-163.65c26.59-32.46,76.87-30.41,100.73,4.1l97,140.3,44.33-54.72c17.29-21.35,49.43-22.59,68.32-2.64l71.39,75.4v81.8h-515.83v-80.59Z"/>
        <circle class="cls-12" cx="1329.35" cy="784.08" r="37" transform="translate(260.82 1897.73) rotate(-76.72)"/>
      </g>
    </g>
    <g>
      <path class="cls-12" d="m1699.53,851.19l-98.52-28.98,56.45,73.47c7.37-4.1,16.81-2.32,22.1,4.57,5.82,7.58,4.4,18.44-3.18,24.26-7.58,5.82-18.44,4.4-24.26-3.18-5.29-6.89-4.58-16.47,1.28-22.53l-56.45-73.47,2.63,102.66c.36,13.87,8.32,26.41,20.72,32.63l40.85,20.48,36.91-28.36,36.91-28.36-9.27-44.75c-2.81-13.58-12.88-24.51-26.19-28.43Z"/>
      <rect class="cls-27" x="1655.18" y="948.25" width="112.16" height="43.27" rx="8.3" ry="8.3" transform="translate(-236.62 1243.48) rotate(-37.54)"/>
    </g>
    <g>
      <path class="cls-27" d="m1515.6,997.87c-.4,0-.77-.28-.86-.69-.05-.23-5.31-23.75-.43-56.96,4.49-30.63,18.76-76.06,61.21-118.51,42.48-42.48,94.4-53.38,130.49-55.05,39.07-1.81,68.52,6.54,68.81,6.62.47.13.74.62.6,1.09-.14.47-.63.74-1.09.6-.29-.08-29.5-8.36-68.3-6.55-35.75,1.66-87.2,12.47-129.26,54.53s-56.23,87.09-60.7,117.44c-4.84,32.9.34,56.15.4,56.39.11.48-.19.95-.66,1.06-.07.02-.13.02-.2.02Z"/>
      <rect class="cls-27" x="1581.88" y="800.97" width="16.73" height="16.73" transform="translate(-153.33 1188.63) rotate(-39.25)"/>
      <rect class="cls-27" x="1507.99" y="988.24" width="16.73" height="16.73" transform="translate(702.94 2618.62) rotate(-96.68)"/>
      <rect class="cls-27" x="1766.21" y="765.89" width="16.73" height="16.73" transform="translate(579.14 2297.25) rotate(-75.44)"/>
    </g>
  </g>
  <g>
    <g>
      <path class="cls-38" d="m757.53,1355.61l-14.88,365.71h-38.41s-39.46-162.14-20.32-229.59l-24.65-130.18,98.26-5.94Z"/>
      <g class="cls-3">
        <path class="cls-43" d="m664.14,1442.02c3.77.41,81.62,11.04,100.35-1.92l-6.96-89.87-98.26,11.32,4.87,80.47Z"/>
      </g>
    </g>
    <g>
      <g>
        <path class="cls-38" d="m611.63,1357.63l-44.42,363.5h-38.41s-26.08-168.09-1.55-233.78l-14.04-131.75,98.42,2.02Z"/>
        <g class="cls-25">
          <path class="cls-43" d="m509.17,1409.63s50.25,34.92,93.93,34.23c43.67-.7,0,0,0,0l6.52-62.87-104.64-16.75,4.19,45.4Z"/>
        </g>
      </g>
      <g>
        <path class="cls-52" d="m528.8,1721.14h38.41l61.13,38.64c4.64,2.93,7.45,8.03,7.45,13.52v6.48h-111.05c-2.77,0-5.01-2.24-5.01-5.01v-25.22c0-10.19,3.17-20.12,9.08-28.42h0Z"/>
        <g class="cls-11">
          <path class="cls-16" d="m514.43,1771.35s126.03.29,126.03,1.43-.86,11.74-.86,11.74c0,0-124.89-.57-124.89-2.01s-.29-11.17-.29-11.17Z"/>
          <path class="cls-15" d="m567.2,1721.14s1.45,8-12.1,9.35c-13.55,1.35-31.7-9.35-31.7-9.35l4.83-3.76,38.97,3.76"/>
          <path class="cls-15" d="m579.67,1729.02s-8.04.45-12.21,7.97c-.99,1.78-.44,4.03,1.3,5.1h0c1.42.88,3.24.73,4.5-.38,3.28-2.88,9.62-8.12,12.95-8.56,4.62-.61,0,0,0,0l-6.54-4.13"/>
          <path class="cls-15" d="m593.08,1736.91s-8.04.45-12.21,7.97c-.99,1.78-.44,4.03,1.3,5.1h0c1.42.88,3.24.73,4.5-.38,3.28-2.88,9.62-8.12,12.95-8.56,4.62-.61,0,0,0,0l-6.54-4.13"/>
          <path class="cls-15" d="m607.67,1744.69s-8.04.45-12.21,7.97c-.99,1.78-.44,4.03,1.3,5.1h0c1.42.88,3.24.73,4.5-.38,3.28-2.88,9.62-8.12,12.95-8.56,4.62-.61,0,0,0,0l-6.54-4.13"/>
        </g>
      </g>
    </g>
    <g>
      <path class="cls-52" d="m703.54,1721.32h38.41l61.13,38.64c4.64,2.93,7.45,8.03,7.45,13.52v6.48h-111.05c-2.77,0-5.01-2.24-5.01-5.01v-25.21c0-10.19,3.17-20.12,9.08-28.42h0Z"/>
      <g class="cls-46">
        <path class="cls-16" d="m689.17,1771.54s126.03.29,126.03,1.43-.86,11.74-.86,11.74c0,0-124.89-.57-124.89-2.01s-.29-11.17-.29-11.17Z"/>
        <path class="cls-15" d="m741.95,1721.32s1.45,8-12.1,9.35c-13.55,1.35-31.7-9.35-31.7-9.35l4.83-3.76,38.97,3.76"/>
        <path class="cls-15" d="m754.42,1729.21s-8.04.45-12.21,7.97c-.99,1.78-.44,4.03,1.3,5.1h0c1.42.88,3.24.73,4.5-.38,3.28-2.88,9.62-8.12,12.95-8.56,4.62-.61,0,0,0,0l-6.54-4.13"/>
        <path class="cls-15" d="m767.82,1737.1s-8.04.45-12.21,7.97c-.99,1.78-.44,4.03,1.3,5.1h0c1.42.88,3.24.73,4.5-.38,3.28-2.89,9.62-8.12,12.95-8.56,4.62-.61,0,0,0,0l-6.54-4.13"/>
        <path class="cls-15" d="m782.41,1744.88s-8.04.45-12.21,7.97c-.99,1.78-.44,4.03,1.3,5.1h0c1.42.88,3.24.73,4.5-.38,3.28-2.88,9.62-8.12,12.95-8.56,4.62-.61,0,0,0,0l-6.54-4.13"/>
      </g>
    </g>
    <g>
      <path class="cls-52" d="m719.49,1095.33s21.82,55.1,32.34,105.8c10.52,50.7,19.13,171.25,19.13,171.25,0,0-93.84,15.25-116.8,12.38l-11.76-156.73-5.78,155.3s-89.53.28-145.97-34.86c0,0,31.03-244.62,66.55-268.19l162.29,15.05Z"/>
      <g class="cls-13">
        <path class="cls-17" d="m536.5,1087.67s32.16,120.26,234.48,145.03l-6.13-126.31-202.63-56.53-25.72,37.81Z"/>
        <g>
          <path class="cls-15" d="m492.45,1326.18c-.14,0-.28-.03-.42-.09-1.43-.69-2.19-1.07-2.19-1.07-.48-.24-.67-.82-.43-1.3.24-.48.82-.67,1.3-.43,0,0,.75.38,2.15,1.05.48.23.69.81.45,1.29-.17.35-.51.55-.87.55Z"/>
          <path class="cls-15" d="m627.77,1361.59h0c-1.57,0-3.14-.03-4.72-.08-.53-.02-.95-.46-.94-1,.02-.53.47-.94,1-.94,1.56.05,3.12.07,4.67.08.53,0,.97.44.96.97,0,.53-.43.96-.97.96Zm4.69-.05c-.52,0-.96-.42-.97-.95-.01-.53.41-.98.95-.99,1.55-.04,3.12-.09,4.66-.17.53-.03.99.38,1.02.92.03.53-.38.99-.92,1.02-1.56.08-3.15.14-4.72.18h-.02Zm-14.09-.23s-.03,0-.05,0c-1.57-.08-3.14-.18-4.71-.3-.53-.04-.93-.5-.89-1.04.04-.53.51-.93,1.04-.89,1.56.12,3.12.22,4.67.3.53.03.94.48.92,1.02-.03.52-.45.92-.97.92Zm-9.38-.71s-.06,0-.09,0c-1.56-.15-3.13-.32-4.69-.5-.53-.06-.91-.54-.85-1.07.06-.53.55-.91,1.07-.85,1.55.18,3.1.35,4.65.5.53.05.92.52.87,1.06-.05.5-.47.87-.96.87Zm-9.33-1.09s-.09,0-.13,0c-1.56-.21-3.11-.44-4.66-.68-.53-.08-.89-.58-.81-1.1.08-.53.58-.89,1.1-.81,1.54.24,3.08.46,4.63.67.53.07.9.56.83,1.09-.07.49-.48.84-.96.84Zm-9.27-1.44c-.05,0-.11,0-.17-.01-1.55-.27-3.09-.55-4.63-.84-.52-.1-.87-.61-.77-1.13.1-.53.6-.87,1.13-.77,1.53.29,3.06.57,4.6.83.53.09.88.59.79,1.12-.08.47-.49.8-.95.8Zm-9.21-1.75c-.06,0-.13,0-.2-.02-1.54-.32-3.08-.65-4.6-.98-.52-.12-.85-.63-.74-1.15.12-.52.64-.85,1.15-.74,1.52.34,3.04.66,4.58.98.52.11.86.62.75,1.14-.09.46-.5.77-.95.77Zm-9.17-2.03c-.07,0-.15,0-.22-.03-1.53-.36-3.06-.74-4.57-1.12-.52-.13-.83-.66-.7-1.17.13-.52.65-.84,1.17-.7,1.51.38,3.02.75,4.55,1.11.52.12.84.64.72,1.16-.11.45-.5.75-.94.75Zm-9.11-2.29c-.08,0-.17,0-.25-.03-1.53-.41-3.04-.82-4.54-1.24-.51-.14-.82-.68-.67-1.19.14-.51.68-.82,1.19-.67,1.49.42,3,.83,4.52,1.23.52.14.82.67.69,1.18-.12.43-.51.72-.94.72Zm-9.05-2.52c-.09,0-.18-.01-.27-.04-1.52-.44-3.02-.89-4.51-1.35-.51-.16-.8-.7-.64-1.21.16-.51.7-.8,1.21-.64,1.48.45,2.98.9,4.49,1.34.51.15.81.69.66,1.2-.12.42-.51.7-.93.7Zm-8.98-2.74c-.1,0-.2-.01-.29-.05-1.51-.48-3.01-.97-4.48-1.45-.51-.17-.78-.71-.62-1.22.17-.51.72-.78,1.22-.62,1.46.48,2.95.97,4.46,1.45.51.16.79.71.63,1.22-.13.41-.51.67-.92.67Zm-8.92-2.95c-.1,0-.21-.02-.31-.05-1.51-.52-2.99-1.04-4.44-1.55-.5-.18-.77-.73-.59-1.24.18-.5.73-.77,1.24-.59,1.45.51,2.92,1.03,4.42,1.54.51.17.77.72.6,1.23-.14.4-.51.65-.92.65Zm-8.85-3.14c-.11,0-.22-.02-.33-.06-1.5-.55-2.98-1.1-4.41-1.65-.5-.19-.75-.75-.56-1.25.19-.5.75-.75,1.25-.56,1.43.54,2.89,1.09,4.39,1.64.5.18.76.74.57,1.24-.14.39-.51.63-.91.63Zm-8.78-3.33c-.12,0-.24-.02-.35-.07-1.51-.59-2.97-1.17-4.38-1.74-.5-.2-.74-.76-.54-1.26.2-.5.76-.74,1.26-.54,1.4.57,2.85,1.14,4.36,1.73.5.19.74.76.55,1.25-.15.38-.51.62-.9.62Zm-8.71-3.52c-.12,0-.25-.02-.37-.07-1.52-.63-2.97-1.25-4.34-1.83-.49-.21-.72-.78-.51-1.27.21-.49.78-.72,1.27-.51,1.36.59,2.8,1.2,4.32,1.83.49.21.73.77.52,1.27-.15.37-.51.6-.89.6Zm-8.64-3.71c-.13,0-.26-.03-.39-.08-1.6-.71-3.03-1.36-4.3-1.94-.49-.22-.7-.8-.48-1.28.22-.49.8-.7,1.28-.48,1.26.58,2.69,1.22,4.27,1.93.49.22.71.79.49,1.28-.16.36-.51.58-.89.58Z"/>
          <path class="cls-15" d="m641.76,1361.06c-.5,0-.92-.38-.96-.89-.04-.53.35-1,.89-1.04.8-.07,1.6-.14,2.39-.22.53-.07,1.01.34,1.06.87.05.53-.34,1.01-.87,1.06-.81.08-1.61.15-2.42.22-.03,0-.05,0-.08,0Z"/>
        </g>
        <path class="cls-15" d="m649.32,1360.94c-.52,0-.96-.42-.97-.95-.01-.53.41-.98.95-.99,0,0,1.76-.04,4.87-.13.51.02.98.4,1,.94.02.53-.4.98-.94,1-3.12.1-4.89.13-4.89.13h-.02Zm9.73-.29c-.52,0-.95-.41-.97-.93-.02-.53.4-.98.93-1,1.48-.05,3.1-.11,4.85-.18.54-.05.98.39,1.01.93.02.53-.39.98-.93,1-1.75.07-3.38.13-4.86.18-.01,0-.02,0-.04,0Zm9.7-.38c-.52,0-.94-.41-.97-.93-.02-.53.39-.99.92-1.01,1.55-.07,3.16-.14,4.84-.22.54-.03.99.39,1.01.92.03.53-.39.99-.92,1.01-1.68.08-3.3.15-4.85.22-.01,0-.03,0-.04,0Zm9.69-.46c-.51,0-.94-.4-.97-.92-.03-.53.38-.99.92-1.02,1.57-.08,3.19-.17,4.84-.26.53-.04.99.38,1.02.91.03.53-.38.99-.91,1.02-1.65.09-3.27.18-4.85.26-.02,0-.03,0-.05,0Zm9.68-.54c-.51,0-.93-.4-.97-.91-.03-.53.37-.99.91-1.02,1.59-.1,3.2-.2,4.83-.3.54-.03.99.37,1.03.9.03.53-.37.99-.9,1.03-1.64.11-3.25.21-4.84.3-.02,0-.04,0-.06,0Zm9.68-.63c-.5,0-.93-.39-.96-.9-.04-.53.36-1,.9-1.03,1.6-.11,3.21-.23,4.83-.35.54-.04,1,.36,1.04.89.04.53-.36,1-.89,1.04-1.63.12-3.24.24-4.84.35-.02,0-.05,0-.07,0Zm9.67-.73c-.5,0-.92-.38-.96-.89-.04-.53.35-1,.89-1.04,1.6-.13,3.21-.26,4.82-.4.54-.05,1,.35,1.05.88.05.53-.35,1-.88,1.05-1.61.14-3.22.28-4.83.4-.03,0-.05,0-.08,0Zm9.66-.84c-.49,0-.92-.38-.96-.88-.05-.53.34-1,.87-1.05,1.61-.15,3.22-.31,4.82-.47.53-.06,1.01.34,1.06.87.05.53-.33,1.01-.87,1.06-1.61.16-3.22.32-4.83.47-.03,0-.06,0-.09,0Zm9.65-.98c-.49,0-.91-.37-.96-.86-.06-.53.33-1.01.86-1.07,1.61-.18,3.22-.36,4.81-.55.52-.07,1.01.32,1.08.85.06.53-.32,1.01-.85,1.08-1.6.19-3.21.37-4.83.55-.04,0-.07,0-.11,0Zm9.63-1.15c-.48,0-.89-.36-.96-.84-.07-.53.31-1.02.84-1.09,1.62-.21,3.22-.43,4.79-.65.53-.07,1.02.29,1.09.82.08.53-.29,1.02-.82,1.09-1.58.23-3.19.44-4.82.66-.04,0-.08,0-.13,0Zm9.6-1.37c-.47,0-.88-.34-.95-.82-.08-.53.28-1.02.8-1.11,1.62-.26,3.22-.52,4.77-.79.53-.09,1.03.26,1.12.79.09.53-.26,1.03-.79,1.12-1.56.28-3.16.54-4.8.8-.05,0-.1.01-.15.01Zm9.55-1.7c-.45,0-.86-.32-.95-.78-.1-.52.23-1.03.76-1.14,1.62-.33,3.21-.67,4.71-1.01.52-.12,1.04.2,1.16.73.12.52-.2,1.04-.73,1.16-1.52.35-3.13.7-4.77,1.03-.06.01-.13.02-.19.02Zm9.44-2.21c-.42,0-.81-.28-.93-.71-.14-.52.16-1.05.67-1.19,1.66-.46,3.2-.94,4.57-1.42.5-.17,1.06.09,1.23.59.18.5-.09,1.06-.6,1.23-1.41.49-2.99.98-4.69,1.45-.09.02-.17.04-.26.04Z"/>
        <path class="cls-15" d="m566.57,1352.97s-.09,0-.13,0c-.53-.07-.9-.56-.83-1.09l.66-4.79c.07-.53.56-.89,1.09-.83.53.07.9.56.83,1.09l-.66,4.79c-.07.49-.48.84-.96.84Zm1.32-9.59s-.09,0-.13,0c-.53-.07-.9-.56-.83-1.09l.66-4.79c.07-.53.56-.89,1.09-.83.53.07.9.56.83,1.09l-.66,4.8c-.07.48-.48.83-.96.83Zm1.32-9.59s-.09,0-.13,0c-.53-.07-.9-.56-.83-1.09l.66-4.79c.07-.53.56-.9,1.09-.83.53.07.9.56.83,1.09l-.66,4.79c-.07.48-.48.83-.96.83Zm1.32-9.59s-.09,0-.13,0c-.53-.07-.9-.56-.83-1.09l.66-4.79c.07-.53.56-.89,1.09-.83.53.07.9.56.83,1.09l-.66,4.79c-.07.48-.48.83-.96.83Zm1.32-9.59s-.09,0-.13,0c-.53-.07-.9-.56-.83-1.09l.66-4.8c.07-.53.56-.9,1.09-.83.53.07.9.56.83,1.09l-.66,4.79c-.07.49-.48.84-.96.84Zm1.32-9.59s-.09,0-.13,0c-.53-.07-.9-.56-.83-1.09l.66-4.79c.07-.53.56-.89,1.09-.83.53.07.9.56.83,1.09l-.66,4.79c-.07.48-.48.84-.96.84Zm1.32-9.59s-.09,0-.13,0c-.53-.07-.9-.56-.83-1.09l.66-4.79c.07-.53.56-.89,1.09-.83.53.07.9.56.83,1.09l-.66,4.79c-.07.48-.48.83-.96.83Zm1.32-9.59s-.09,0-.13,0c-.53-.07-.9-.56-.83-1.09l.66-4.79c.07-.53.56-.89,1.09-.83.53.07.9.56.83,1.09l-.66,4.79c-.07.48-.48.83-.96.83Zm1.32-9.59s-.09,0-.13,0c-.53-.07-.9-.56-.83-1.09l.66-4.79c.07-.53.56-.89,1.09-.83.53.07.9.56.83,1.09l-.66,4.8c-.07.49-.48.84-.96.84Zm1.32-9.59s-.09,0-.13,0c-.53-.07-.9-.56-.83-1.09l.66-4.79c.07-.53.56-.9,1.09-.83.53.07.9.56.83,1.09l-.66,4.79c-.07.49-.48.84-.96.84Zm1.32-9.59s-.09,0-.13,0c-.53-.07-.9-.56-.83-1.09l.66-4.79c.07-.53.56-.9,1.09-.83.53.07.9.56.83,1.09l-.66,4.79c-.07.48-.48.83-.96.83Zm1.32-9.59s-.09,0-.13,0c-.53-.07-.9-.56-.83-1.09l.66-4.79c.07-.53.56-.89,1.09-.83.53.07.9.56.83,1.09l-.66,4.79c-.07.48-.48.84-.96.84Zm1.32-9.59s-.09,0-.13,0c-.53-.07-.9-.56-.83-1.09l.66-4.8c.07-.53.56-.9,1.09-.83.53.07.9.56.83,1.09l-.66,4.79c-.07.49-.48.84-.96.84Zm1.32-9.59s-.09,0-.13,0c-.53-.07-.9-.56-.83-1.09l.66-4.79c.07-.53.56-.89,1.09-.83.53.07.9.56.83,1.09l-.66,4.79c-.07.48-.48.83-.96.83Zm1.32-9.59s-.09,0-.13,0c-.53-.07-.9-.56-.83-1.09l.66-4.79c.07-.53.56-.9,1.09-.83.53.07.9.56.83,1.09l-.66,4.79c-.07.49-.48.84-.96.84Zm1.32-9.59s-.09,0-.13,0c-.53-.07-.9-.56-.83-1.09l.66-4.79c.07-.53.56-.89,1.09-.83.53.07.9.56.83,1.09l-.66,4.8c-.07.48-.48.83-.96.83Zm1.32-9.59s-.09,0-.13,0c-.53-.07-.9-.56-.83-1.09l.66-4.79c.07-.53.56-.89,1.09-.83.53.07.9.56.83,1.09l-.66,4.79c-.07.48-.48.83-.96.83Zm1.32-9.59s-.09,0-.13,0c-.53-.07-.9-.56-.83-1.09l.66-4.79c.07-.53.56-.9,1.09-.83.53.07.9.56.83,1.09l-.66,4.79c-.07.49-.48.84-.96.84Zm1.32-9.59s-.09,0-.13,0c-.53-.07-.9-.56-.83-1.09l.66-4.79c.07-.53.56-.89,1.09-.83.53.07.9.56.83,1.09l-.66,4.79c-.07.48-.48.83-.96.83Zm1.32-9.59s-.09,0-.13,0c-.53-.07-.9-.56-.83-1.09l.66-4.79c.07-.53.57-.9,1.09-.83.53.07.9.56.83,1.09l-.66,4.79c-.07.49-.48.84-.96.84Zm1.32-9.59s-.09,0-.13,0c-.53-.07-.9-.56-.83-1.09l.66-4.79c.07-.53.56-.89,1.09-.83.53.07.9.56.83,1.09l-.66,4.79c-.07.48-.48.84-.96.84Zm1.32-9.59s-.09,0-.13,0c-.53-.07-.9-.56-.83-1.09l.66-4.79c.07-.53.56-.9,1.09-.83.53.07.9.56.83,1.09l-.66,4.79c-.07.48-.48.84-.96.84Zm1.32-9.59s-.09,0-.13,0c-.53-.07-.9-.56-.83-1.09l.66-4.79c.07-.53.56-.9,1.09-.83.53.07.9.56.83,1.09l-.66,4.79c-.07.49-.48.84-.96.84Zm1.32-9.59s-.09,0-.13,0c-.53-.07-.9-.56-.83-1.09l.66-4.79c.07-.53.56-.89,1.09-.83.53.07.9.56.83,1.09l-.66,4.8c-.07.48-.48.83-.96.83Zm1.32-9.59s-.09,0-.13,0c-.53-.07-.9-.56-.83-1.09l.66-4.79c.07-.53.56-.9,1.09-.83.53.07.9.56.83,1.09l-.66,4.79c-.07.48-.48.83-.96.83Zm1.32-9.59s-.09,0-.13,0c-.53-.07-.9-.56-.83-1.09l.14-.98c.07-.53.56-.9,1.09-.83.53.07.9.56.83,1.09l-.14.98c-.07.49-.48.84-.96.84Z"/>
        <path class="cls-15" d="m714.87,1357.27c-.49,0-.91-.37-.96-.86l-.52-4.81c-.06-.53.33-1.01.86-1.07.54-.06,1.01.33,1.07.86l.52,4.81c.06.53-.33,1.01-.86,1.07-.04,0-.07,0-.1,0Zm-1.03-9.62c-.49,0-.91-.37-.96-.86l-.52-4.81c-.06-.53.33-1.01.86-1.07.54-.06,1.01.33,1.07.86l.52,4.81c.06.53-.33,1.01-.86,1.07-.04,0-.07,0-.1,0Zm-1.03-9.62c-.49,0-.91-.37-.96-.86l-.52-4.81c-.06-.53.33-1.01.86-1.07.54-.06,1.01.33,1.07.86l.52,4.81c.06.53-.33,1.01-.86,1.07-.04,0-.07,0-.1,0Zm-1.03-9.62c-.49,0-.91-.37-.96-.86l-.52-4.81c-.06-.53.33-1.01.86-1.07.54-.06,1.01.33,1.07.86l.52,4.81c.06.53-.33,1.01-.86,1.07-.04,0-.07,0-.1,0Zm-1.03-9.62c-.49,0-.91-.37-.96-.86l-.52-4.81c-.06-.53.33-1.01.86-1.07.54-.06,1.01.33,1.07.86l.52,4.81c.06.53-.33,1.01-.86,1.07-.04,0-.07,0-.1,0Zm-1.03-9.62c-.49,0-.91-.37-.96-.86l-.52-4.81c-.06-.53.33-1.01.86-1.07.54-.06,1.01.33,1.07.86l.52,4.81c.06.53-.33,1.01-.86,1.07-.04,0-.07,0-.1,0Zm-1.03-9.62c-.49,0-.91-.37-.96-.86l-.52-4.81c-.06-.53.33-1.01.86-1.07.54-.06,1.01.33,1.07.86l.52,4.81c.06.53-.33,1.01-.86,1.07-.04,0-.07,0-.1,0Zm-1.03-9.62c-.49,0-.91-.37-.96-.86l-.52-4.81c-.06-.53.33-1.01.86-1.07.54-.06,1.01.33,1.07.86l.52,4.81c.06.53-.33,1.01-.86,1.07-.04,0-.07,0-.1,0Zm-1.03-9.62c-.49,0-.91-.37-.96-.86l-.52-4.81c-.06-.53.33-1.01.86-1.07.54-.06,1.01.33,1.07.86l.52,4.81c.06.53-.33,1.01-.86,1.07-.04,0-.07,0-.1,0Zm-1.03-9.62c-.49,0-.91-.37-.96-.86l-.52-4.81c-.06-.53.33-1.01.86-1.07.54-.06,1.01.33,1.07.86l.52,4.81c.06.53-.33,1.01-.86,1.07-.04,0-.07,0-.1,0Zm-1.03-9.62c-.49,0-.91-.37-.96-.86l-.52-4.81c-.06-.53.33-1.01.86-1.07.54-.06,1.01.33,1.07.86l.52,4.81c.06.53-.33,1.01-.86,1.07-.04,0-.07,0-.1,0Zm-1.03-9.62c-.49,0-.91-.37-.96-.86l-.52-4.81c-.06-.53.33-1.01.86-1.07.54-.06,1.01.33,1.07.86l.52,4.81c.06.53-.33,1.01-.86,1.07-.04,0-.07,0-.1,0Zm-1.03-9.62c-.49,0-.91-.37-.96-.86l-.52-4.81c-.06-.53.33-1.01.86-1.07.54-.06,1.01.33,1.07.86l.52,4.81c.06.53-.33,1.01-.86,1.07-.04,0-.07,0-.1,0Zm-1.03-9.62c-.49,0-.91-.37-.96-.86l-.52-4.81c-.06-.53.33-1.01.86-1.07.54-.06,1.01.33,1.07.86l.52,4.81c.06.53-.33,1.01-.86,1.07-.04,0-.07,0-.1,0Zm-1.03-9.62c-.49,0-.91-.37-.96-.86l-.52-4.81c-.06-.53.33-1.01.86-1.07.54-.06,1.01.33,1.07.86l.52,4.81c.06.53-.33,1.01-.86,1.07-.04,0-.07,0-.1,0Zm-1.03-9.62c-.49,0-.91-.37-.96-.86l-.52-4.81c-.06-.53.33-1.01.86-1.07.54-.06,1.01.33,1.07.86l.52,4.81c.06.53-.33,1.01-.86,1.07-.04,0-.07,0-.1,0Zm-1.03-9.62c-.49,0-.91-.37-.96-.86l-.52-4.81c-.06-.53.33-1.01.86-1.07.54-.06,1.01.33,1.07.86l.52,4.81c.06.53-.33,1.01-.86,1.07-.04,0-.07,0-.1,0Zm-1.03-9.62c-.49,0-.91-.37-.96-.86l-.52-4.81c-.06-.53.33-1.01.86-1.07.54-.06,1.01.33,1.07.86l.52,4.81c.06.53-.33,1.01-.86,1.07-.04,0-.07,0-.1,0Zm-1.03-9.62c-.49,0-.91-.37-.96-.86l-.52-4.81c-.06-.53.33-1.01.86-1.07.54-.06,1.01.33,1.07.86l.52,4.81c.06.53-.33,1.01-.86,1.07-.04,0-.07,0-.1,0Zm-1.03-9.62c-.49,0-.91-.37-.96-.86l-.52-4.81c-.06-.53.33-1.01.86-1.07.54-.06,1.01.33,1.07.86l.52,4.81c.06.53-.33,1.01-.86,1.07-.04,0-.07,0-.1,0Zm-1.03-9.62c-.49,0-.91-.37-.96-.86l-.52-4.81c-.06-.53.33-1.01.86-1.07.54-.06,1.01.33,1.07.86l.52,4.81c.06.53-.33,1.01-.86,1.07-.04,0-.07,0-.1,0Zm-1.03-9.62c-.49,0-.91-.37-.96-.86l-.52-4.81c-.06-.53.33-1.01.86-1.07.54-.06,1.01.33,1.07.86l.52,4.81c.06.53-.33,1.01-.86,1.07-.04,0-.07,0-.1,0Zm-1.03-9.62c-.49,0-.91-.37-.96-.86l-.52-4.81c-.06-.53.33-1.01.86-1.07.54-.06,1.01.33,1.07.86l.52,4.81c.06.53-.33,1.01-.86,1.07-.04,0-.07,0-.1,0Zm-1.03-9.62c-.49,0-.91-.37-.96-.86l-.52-4.81c-.06-.53.33-1.01.86-1.07.54-.06,1.01.33,1.07.86l.52,4.81c.06.53-.33,1.01-.86,1.07-.04,0-.07,0-.1,0Zm-1.03-9.62c-.49,0-.91-.37-.96-.86l-.52-4.81c-.06-.53.33-1.01.86-1.07.54-.06,1.01.33,1.07.86l.52,4.81c.06.53-.33,1.01-.86,1.07-.04,0-.07,0-.1,0Z"/>
      </g>
    </g>
    <g>
      <path class="cls-40" d="m574.62,768.95s-83.55,73.26-78.53,120.43c5.02,47.17,50.18,213.76,66.24,221.79,16.06,8.03,147.21,20.07,163.93-11.04,16.72-31.11,1.67-239.86-20.41-273.98-22.08-34.12-67.27-45.15-67.27-45.15l-63.95-12.05Z"/>
      <g class="cls-4">
        <path class="cls-37" d="m741.78,1065.91c-.16-1.06-103.4-4.78-134.9-19.06-31.5-14.29,0,0,0,0,0,0,76.36,79.38,123.19,77.25,0,0,16.33-28.38,11.71-58.18Z"/>
      </g>
    </g>
    <g>
      <g>
        <path class="cls-5" d="m862.68,1252.63s130.07,35.88,130.89,31.13-95.8-99.37-95.8-99.37l-35.09,68.24Z"/>
        <g class="cls-47">
          <path class="cls-15" d="m957.58,1283.26s8.51-24.27,17.16-25.23c0,0,28.09,30.79,26.68,31.96-1.41,1.17-43.84-6.73-43.84-6.73Z"/>
        </g>
      </g>
      <path class="cls-15" d="m348.44,1008.86s500.86,242.96,514.23,243.78c13.37.81,40.09-68.99,35.09-68.24s-517.7-247.77-518.91-244.58c-1.21,3.19-24.91,41.7-30.41,69.04Z"/>
      <path class="cls-12" d="m348.44,1008.86s-54.47-26.38-56.74-28.01c-12.51-8.95,15.22-71.56,33.07-68.21,6.67,1.25,54.09,27.18,54.09,27.18,0,0-30.17,52.46-30.41,69.04Z"/>
      <path class="cls-27" d="m372.84,1020.67s20.52-54.87,33.05-68.8l-27.03-12.05s-29.31,44.06-30.41,69.04l24.39,11.81Z"/>
    </g>
    <g>
      <path class="cls-38" d="m724.39,1174.54s17.98,9.9,20.81,10.91c2.83,1.01,3.03,0,6.67,0s-14.06-23.2-18.48-27.45c-4.42-4.25-20.56-9.37-20.56-9.37,0,0-158.28-108.4-159.18-109.82-.9-1.42,6.28-34.92,6.28-34.92l-81.53-19.73s-8.55,86.62,3.59,102.47c6.56,8.56,197.06,82.99,200.23,83.62,0,0,23.37,25.91,34.28,31.77,10.91,5.86,40.88,3.11,40.88,3.11l-33-30.59Z"/>
      <g class="cls-45">
        <path class="cls-43" d="m745.38,1205.77s-26.44-17.5-25.94-15.27c.49,2.22,19.27,18.78,21.99,18.04s3.95-2.76,3.95-2.76"/>
        <path class="cls-43" d="m562.21,1031.97s-91.63,30.27-100.8,15.24l14.06-62.98,91.09,33.28-4.36,14.46"/>
      </g>
    </g>
    <g>
      <path class="cls-40" d="m497.87,871.28l-29.91,138.16s80.8,22.98,94.25,22.54c13.45-.44,13.73-112,6.73-123.69-7-11.68-71.07-37.01-71.07-37.01Z"/>
      <path class="cls-37" d="m566.57,1027.2s15.01-108.02,6.91-127.06c0,0,24.33,62.8,26.32,142.88l-33.22-15.82Z"/>
    </g>
    <g>
      <path class="cls-38" d="m983.56,731.87c-.97-2.26-25.42,13.96-25.42,13.96l-151.22,145.04-30.61,65.1s43.81,15.06,67.32,13.59c23.51-1.47,113.37-166.98,113.37-166.98l.49-25.19c9.05-7.54,21.72-27.66,22.97-29.89,1.61-2.9,4.06-13.38,3.09-15.63Z"/>
      <g class="cls-36">
        <path class="cls-43" d="m957.5,777.4s-22.32,19.21-8.68,48.94c0,0,15.82-23.73,15.55-27.28-.27-3.55-6.87-21.66-6.87-21.66"/>
        <path class="cls-43" d="m813.67,880.85s3.33,70.13-3.74,88.72c0,0-38.68-6-40.76-10.14-2.08-4.14,24.12-76.09,27.45-76.92,3.33-.83,17.05-1.66,17.05-1.66Z"/>
      </g>
    </g>
    <g>
      <path class="cls-40" d="m666.87,792.3s148.23,75.65,149.77,83.35c1.54,7.7-35.12,88.56-45.67,87.79-10.55-.77-96.24-26.18-100.37-43.89-4.13-17.71-3.73-127.25-3.73-127.25Z"/>
      <path class="cls-37" d="m729.59,951.63s-9.97-82.55-14.72-100.51c0,0,38.28,73.98,38.95,108.32,0,0-19.58-6.41-24.23-7.81Z"/>
    </g>
    <g>
      <g>
        <path class="cls-52" d="m596.03,563.46c-7.09-6-16.58-8.46-25.85-9.04-22.19-1.37-45.12,7.84-59.01,25.2-5.21,6.52-9.12,14.01-12.12,21.79-11.92,30.93-9.52,65.49-3.58,98.1,3.08,16.9,7.07,33.82,6.74,51-.16,8.36-1.36,16.7-3.56,24.77,12.51,1.17,24.36-7.4,30.57-18.32,6.21-10.92,7.82-23.8,8.72-36.33.83,7.65,1.65,15.29,2.48,22.94,7.08-3.43,12.04-10.28,14.77-17.66,2.72-7.38,3.45-15.32,3.95-23.17.79-12.63,1.04-25.29.74-37.94-.24-10.02-.81-20.17,1.37-29.95,2.17-9.78,7.56-19.37,16.41-24.07,4.61-2.45,9.85-3.42,14.71-5.35,3.78-1.5,6.6-3.74,9.48-6.54,1.71-1.67,3.48-3.17,4.19-5.54,1.94-6.55.33-14.49-2.65-20.46-1.79-3.59-4.28-6.85-7.34-9.44Z"/>
        <g>
          <g>
            <path class="cls-38" d="m556.59,634.87c5.79-10.9,32.1-27.22,56.06-27.96,13.5-.42,27.39,6.96,33.02,19.24,12.73,27.8,38.89,94.54,19.5,105.38-8.63,4.83-19.99,5.01-31.44,2.75,1.77,18.23,2.3,48.52,1.97,54.26-.47,8.07-61-5.83-61.87-18.72-1.33-19.59,12.16-59.54,12.16-59.54-7.59-10.94-37.45-60.24-29.39-75.42Z"/>
            <g class="cls-2">
              <path class="cls-43" d="m633.73,734.28s-15.73-6.34-29.46-14.92c0,0,11.85,38,35.59,37.02l-6.13-22.09"/>
              <path class="cls-43" d="m652.67,642.68s-22.72-6.45-26.38-11c0,0-1.01,30.26-35.59,37.72-34.57,7.46,0,0,0,0,0,0,9.15-31.65,16.17-42.79,7.02-11.14,17.25-18.19,17.25-18.19,0,0,30.71,22.84,28.55,34.27"/>
            </g>
          </g>
          <path class="cls-43" d="m629.98,644.24s18.91,30.4,14.7,33.25c-4.21,2.85-13.81-2.54-16.34-2.66s-2.87,4.78-.1,6.1c2.77,1.32,17.94,4.35,20.74-.63,2.8-4.98-1.92-16.97-18.99-36.06Z"/>
        </g>
        <g>
          <path class="cls-52" d="m653.49,616.46c-1.25-8.63-5.01-17.24-11.92-22.57-7.5-5.78-17.67-6.95-27.07-5.79-2.85.35-5.98,1.09-7.6,3.46-.82,1.21-1.1,2.61-1.06,4.06-1.27-.26-2.61-.5-4.04-.72-32.43-4.97-69.23,26.58-60.76,62.81,8.47,36.22,47.26,56.1,47.26,56.1,5.78-8.46,1.23-24.55,1.23-24.55-19.86-1.17-17.53-31.55-9.06-30.97,8.47.58,10.22,11.1,10.22,11.1l11.98-8.47c17.64-13.33,20.73-30.25,21.01-39.16.77,1.2,1.59,2.35,2.53,3.43,6.94,8.04,18.05,11,26.46,17.49.98-8.67,2.07-17.59.81-26.22Z"/>
          <g class="cls-19">
            <path class="cls-17" d="m622.99,623.96c1.24-6.35.16-13.13-2.98-18.78-1.6-2.87-3.72-5.44-6.22-7.58-1.25-1.07-2.59-2.03-4-2.86-.46-.27-1.07-.79-1.61-.45-.42.27-.57.88-.56,1.34.02.74.48,1.19.93,1.72.57.67,1.12,1.36,1.66,2.05,1.09,1.4,2.13,2.83,3.13,4.31,1.97,2.92,3.74,5.98,5.28,9.14,1.56,3.19,2.89,6.48,3.99,9.86.13.41.26.83.39,1.24Z"/>
          </g>
        </g>
        <path class="cls-17" d="m559.7,691.35s-31.98-32.73-10.98-68.45c21-35.72,57.31-29.53,57.31-29.53,0,0,2.52-9.75-2.65-20.46,0,0-77.33,7.36-71.38,68.11s27.7,50.33,27.7,50.33Z"/>
        <path class="cls-5" d="m635.28,695.49s13.13-1.49,19.68-.51c0,0-3.56,9.83-9.84,7.96s-9.84-7.45-9.84-7.45Z"/>
      </g>
      <g>
        <path class="cls-52" d="m633.57,790.29s-19.4,12.39-23.01,36.04c0,0-44.23-16.84-45.44-48.94l7.98-8.43s51.77,25.31,60.47,21.33Z"/>
        <path class="cls-52" d="m635.03,789.64s16.75.85,24.94,1.92c0,0-12.85-11.9-24.19-15.13,0,0,.12,12.71-.75,13.2Z"/>
      </g>
    </g>
    <g>
      <path class="cls-52" d="m657.09,849.89c1.11,4.27-.1,8.28-2.7,8.96-2.6.68-5.62-2.24-6.73-6.51-1.11-4.27.1-8.28,2.7-8.96,2.6-.68,5.62,2.24,6.73,6.51Z"/>
      <path class="cls-52" d="m671.58,905.55c1.11,4.27-.1,8.28-2.7,8.96-2.6.68-5.62-2.24-6.73-6.51-1.11-4.27.1-8.28,2.7-8.96,2.6-.68,5.62,2.24,6.73,6.51Z"/>
      <path class="cls-52" d="m681.94,960.61c1.11,4.27-.1,8.28-2.7,8.96-2.6.68-5.62-2.24-6.73-6.51-1.11-4.27.1-8.28,2.7-8.96,2.6-.68,5.62,2.24,6.73,6.51Z"/>
    </g>
  </g>
  <g>
    <g>
      <path class="cls-12" d="m1636.34,441.96s-91.15,158.57-96,180.88c-3.57,16.46-6.34,39.72-7.55,50.78-.26,2.41,2.48,3.96,4.41,2.49,11.63-8.85,39.53-30.62,43.72-38.89,5.32-10.5,94.36-177.71,92.24-180.29-2.12-2.58-20.38-23.44-36.84-14.97Z"/>
      <g class="cls-32">
        <path class="cls-29" d="m1595.34,562.61c-11.99,13.79-18.32,31.45-25.26,48.35-3.32,8.09-7.65,16.9-15.88,19.87-7.97,2.88-17.01-.77-25.23,1.31-12.67,3.21-18.14,18.11-19.73,31.09-.88,7.16-1.14,14.68,1.62,21.34,2.77,6.67,9.28,12.23,16.49,11.84,5.29-.29,9.89-3.58,14.04-6.87,15.26-12.12,28.97-26.04,42.65-39.92,8.24-8.37,16.51-16.76,23.64-26.09,12.75-16.67,21.57-35.9,29.11-55.37,1.91-4.93,3.74-9.89,5.54-14.87,1.43-3.94,3.62-7.46-1.63-8.75-7.69-1.9-16.08-.58-23.35,2.29-8.47,3.34-16.06,8.93-22.02,15.78Z"/>
        <path class="cls-6" d="m1530.65,645.59s26.54-.46,33.2,19.77c0,0-31.1,17.96-33.37,17.02-2.27-.94.17-36.8.17-36.8Z"/>
      </g>
    </g>
    <g>
      <path class="cls-52" d="m1687.23,455.74l-9.67-5.04c10.24-18.45,31.01-56.2,33.44-63.21,3.24-9.35-23.73-17.87-30.01-17.61-4.81.2-28.48,42.45-39.27,62.16l-10.02-5.22c-3.3-1.72-7.38-.44-9.1,2.87h0c-1.72,3.31-.44,7.38,2.87,9.1l55.53,28.92c3.3,1.72,7.38.44,9.1-2.87,1.72-3.3.44-7.38-2.87-9.1Z"/>
      <g class="cls-51">
        <path class="cls-15" d="m1677.56,450.71l-21.82-11.99s19.13-.84,23.84-5.19c4.7-4.35,22.42-27.71,22.42-27.71,0,0-18.04,38.47-24.43,44.89"/>
      </g>
    </g>
  </g>
  <g>
    <path class="cls-26" d="m1071.63,1280.65v185.01c0,9.23,7.49,16.72,16.72,16.72h491.89c9.23,0,16.72-7.49,16.72-16.72v-168.29c0-9.23-7.49-16.72-16.72-16.72h-508.61Z"/>
    <g>
      <rect class="cls-5" x="1048.56" y="1200.18" width="514.41" height="242.42" rx="17.68" ry="17.68"/>
      <g>
        <g>
          <rect class="cls-49" x="1084.21" y="1221.61" width="68.41" height="48.89" rx="6.59" ry="6.59"/>
          <rect class="cls-27" x="1176.23" y="1221.61" width="68.41" height="48.89" rx="6.59" ry="6.59"/>
          <rect class="cls-24" x="1271.56" y="1221.61" width="68.41" height="48.89" rx="6.59" ry="6.59"/>
          <rect class="cls-1" x="1366.89" y="1221.61" width="68.41" height="48.89" rx="6.59" ry="6.59"/>
          <rect class="cls-23" x="1462.22" y="1221.61" width="68.41" height="48.89" rx="6.59" ry="6.59"/>
        </g>
        <g>
          <rect class="cls-6" x="1082.55" y="1296.94" width="68.41" height="48.89" rx="6.59" ry="6.59"/>
          <rect class="cls-6" x="1174.57" y="1296.94" width="68.41" height="48.89" rx="6.59" ry="6.59"/>
          <rect class="cls-53" x="1269.9" y="1296.94" width="68.41" height="48.89" rx="6.59" ry="6.59"/>
          <rect class="cls-42" x="1365.23" y="1296.94" width="68.41" height="48.89" rx="6.59" ry="6.59"/>
          <rect class="cls-44" x="1460.56" y="1296.94" width="68.41" height="48.89" rx="6.59" ry="6.59"/>
        </g>
        <g>
          <rect class="cls-37" x="1080.89" y="1372.28" width="68.41" height="48.89" rx="6.59" ry="6.59"/>
          <rect class="cls-40" x="1172.91" y="1372.28" width="68.41" height="48.89" rx="6.59" ry="6.59"/>
          <rect class="cls-8" x="1268.24" y="1372.28" width="68.41" height="48.89" rx="6.59" ry="6.59"/>
          <rect class="cls-7" x="1363.57" y="1372.28" width="68.41" height="48.89" rx="6.59" ry="6.59"/>
          <rect class="cls-54" x="1458.91" y="1372.28" width="68.41" height="48.89" rx="6.59" ry="6.59"/>
        </g>
      </g>
    </g>
  </g>
  <g>
    <path class="cls-26" d="m1716.92,1261.36l-4.89,25.87c-.7,3.68,1.72,7.23,5.4,7.92l158.72,30.02c3.68.7,7.23-1.72,7.92-5.4l12.72-67.25c.7-3.68-1.72-7.23-5.4-7.92l-158.72-30.02c-3.68-.7-7.23,1.72-7.92,5.4l-7.83,41.38Z"/>
    <g>
      <path class="cls-27" d="m1868.33,1304.59l-167.13-31.61c-2.81-.53-4.66-3.24-4.13-6.05l14.22-75.16c.53-2.81,3.24-4.66,6.05-4.13l167.13,31.61c2.81.53,4.66,3.24,4.13,6.05l-14.22,75.16c-.53,2.81-3.24,4.66-6.05,4.13Z"/>
      <g class="cls-28">
        <polygon class="cls-5" points="1772.29 1195.47 1754.83 1287.74 1687.75 1275.05 1704.73 1185.26 1772.29 1195.47"/>
      </g>
    </g>
  </g>
</svg>