<?xml version="1.0" encoding="UTF-8"?>
<svg xmlns="http://www.w3.org/2000/svg" xmlns:xlink="http://www.w3.org/1999/xlink" viewBox="0 0 577 522">
  <defs>
    <style>
      .cls-1 {
        fill: #f0f0f0;
      }

      .cls-2, .cls-3 {
        fill: #fff;
      }

      .cls-4 {
        fill: #fafafa;
      }

      .cls-5, .cls-6 {
        opacity: .5;
      }

      .cls-7 {
        fill: #37474f;
      }

      .cls-3, .cls-8 {
        opacity: .4;
      }

      .cls-9 {
        fill: #f5f5f5;
      }

      .cls-10, .cls-6 {
        fill: #455a64;
      }

      .cls-11 {
        fill: #f28f8f;
      }

      .cls-12 {
        stroke: #e0e0e0;
        stroke-width: .75px;
      }

      .cls-12, .cls-13 {
        stroke-miterlimit: 10;
      }

      .cls-12, .cls-14 {
        fill: none;
      }

      .cls-15 {
        fill: #e6e6e6;
      }

      .cls-16 {
        opacity: .15;
      }

      .cls-17 {
        fill: #27debf;
      }

      .cls-18 {
        opacity: .1;
      }

      .cls-19 {
        clip-path: url(#clippath);
      }

      .cls-20 {
        fill: #ebebeb;
      }

      .cls-13 {
        fill: #edf6fd;
        stroke: #000;
      }

      .cls-21 {
        fill: #263238;
      }

      .cls-22 {
        fill: #ffa8a7;
      }
    </style>
    <clipPath id="clippath">
      <path class="cls-14" d="m238.44,137.52l73.18-42.25c1.31-.76,2.37-.14,2.37,1.37v112.39c0,1.51-1.06,3.35-2.37,4.11l-73.17,42.17c-1.31.76-2.37.14-2.37-1.37v-112.31c0-1.51,1.06-3.35,2.37-4.11Z"/>
    </clipPath>
  </defs>
  <g id="Floor">
    <rect class="cls-13" x=".5" y=".5" width="576" height="521"/>
    <ellipse id="Floor-2" data-name="Floor" class="cls-9" cx="316.97" cy="354.37" rx="214.9" ry="122.23"/>
  </g>
  <g id="Shadow">
    <ellipse id="Shadow-2" data-name="Shadow" class="cls-15" cx="453.29" cy="379.03" rx="51.39" ry="32.22"/>
  </g>
  <g id="Plants">
    <g>
      <path class="cls-17" d="m113.98,285.47s-.57-10.48-5.08-21.61c-4.51-11.13-13.18-22.34-23.17-24.46-9.99-2.11-14.22,4.6-12.11,11.2,1.81,5.68,9.24,10.4,14.87,15.36,5.64,4.96,16.16,16.95,19.08,28.53l5.63.62.77-9.64Z"/>
      <g class="cls-16">
        <path d="m113.98,285.47s-.57-10.48-5.08-21.61c-4.51-11.13-13.18-22.34-23.17-24.46-9.99-2.11-14.22,4.6-12.11,11.2,1.81,5.68,9.24,10.4,14.87,15.36,5.64,4.96,16.16,16.95,19.08,28.53l5.63.62.77-9.64Z"/>
      </g>
      <path class="cls-2" d="m110.13,290.68c-.34,0-.61-.27-.63-.6-1.05-29.12-29.53-45.4-29.82-45.56-.3-.17-.41-.55-.24-.85.17-.3.55-.41.85-.24.29.16,29.38,16.8,30.46,46.61.01.35-.26.64-.6.65h-.02Z"/>
      <path class="cls-17" d="m118.49,336.76s-5.82,3.68-14.92,2.11c-2.9-.5-5.75-1.61-7.83-3.76-2.35-2.42-2.72-4.86-3.39-8.1-.27-1.34-.57-2.72-1.37-3.82-1.95-2.68-5.84-2.63-9.08-3.33-4.6-.99-8.83-4.3-10.16-8.81-1.33-4.51.83-10.02,5.19-11.78-1.78-1.14-3.57-2.29-5.35-3.43-1.62-1.04-3.26-2.09-4.58-3.5-1.32-1.41-2.3-3.22-2.31-5.15-.02-2.84,2.11-5.38,4.7-6.54,2.59-1.16,5.55-1.18,8.38-.85,2.85.33,5.66.99,8.36,1.97.76.27,1.54.58,2.34.53,1.06-.07,1.97-.73,2.86-1.31,6.12-4.04,16.09-3.74,19.37,3.88.48,1.12.77,2.32,1.29,3.43,1.91,4.1,7.26,2.87,10.71,4.79,2.25,1.25,3.6,3.74,4.02,6.27.69,4.06-.44,8.69-1.19,12.7-.73,3.89-1.7,7.74-2.79,11.54-.89,3.13-1.87,6.25-2.91,9.33-.23.67-.71,3.44-1.35,3.84Z"/>
      <path class="cls-2" d="m122.15,327.38c-3.13-8.92-8.51-16.19-14.62-22.01-.06-.14-.18-.26-.34-.32-1.93-1.81-3.92-3.48-5.93-5.02-1.41-8.45,1.99-15.87,2.02-15.94.15-.31.01-.69-.3-.83-.32-.15-.69-.01-.83.3-.14.3-3.28,7.13-2.3,15.42-13.45-9.81-27.31-13.73-27.54-13.8-.33-.09-.68.11-.77.44-.09.33.1.68.44.77.26.07,18.03,5.1,32.68,18.03-8.99-1.57-19.72,2.77-20.22,2.97-.32.13-.47.5-.34.82.1.24.33.39.58.39.08,0,.16-.01.24-.05.13-.05,12.74-5.15,21.65-2.39,6.02,5.72,11.34,12.86,14.41,21.63.09.26.33.42.59.42.07,0,.14-.01.21-.04.33-.11.5-.47.38-.8Z"/>
    </g>
  </g>
  <g id="Device">
    <g id="Laptop">
      <g>
        <path class="cls-7" d="m118.69,335.89c0,2.6,1.95,5.84,4.35,7.23l121.93,70.4c2.4,1.39,6.3,1.39,8.7,0l166.83-96.32c2.4-1.39,4.35-4.62,4.35-7.23,0-2.6-1.95-5.84-4.35-7.23l-121.93-70.4c-2.4-1.39-6.3-1.39-8.7,0l-166.83,96.32c-2.4,1.39-4.35,4.62-4.35,7.23Z"/>
        <path class="cls-21" d="m249.33,405.14v9.42c-1.58,0-3.16-.34-4.35-1.04l-121.93-70.4c-2.4-1.39-4.35-4.62-4.35-7.23,0-2.44,1.72-5.44,3.91-6.94-1.95,1.4-1.8,3.45.44,4.74l121.93,70.4c1.2.69,2.77,1.05,4.35,1.05Z"/>
        <path class="cls-10" d="m114.61,328.82c-2.25-1.3-4.08-4.61-4.08-7.38v-145.51c0-2.78,1.95-6.15,4.35-7.54l166.83-96.32c2.4-1.39,6.18-1.46,8.43-.16,2.25,1.3,4.08,4.61,4.08,7.38v145.51c0,2.78-1.95,6.15-4.35,7.54l-166.83,96.32c-2.4,1.39-6.18,1.46-8.43.16Z"/>
        <path class="cls-21" d="m122.53,328.93c-2.4,1.13-5.82,1.11-7.92-.11-2.25-1.3-4.08-4.6-4.08-7.38v-145.51c0-1.39.48-2.92,1.28-4.28l8.16,4.7h0c-.78,1.38-1.28,2.9-1.28,4.29v145.51c0,2.57,1.68,3.73,3.84,2.77Z"/>
        <path class="cls-7" d="m118.69,180.65v145.51c0,2.78,1.95,3.9,4.35,2.51l166.83-96.32c2.4-1.39,4.35-4.76,4.35-7.54V79.3c0-2.78-1.95-3.9-4.35-2.51l-166.83,96.32c-2.4,1.39-4.35,4.76-4.35,7.54Z"/>
        <path class="cls-10" d="m123.05,333.69l121.93,70.4c2.4,1.39,6.3,1.39,8.7,0l166.83-96.32c2.4-1.39,2.4-3.64,0-5.02l-121.93-70.4c-2.4-1.39-6.3-1.39-8.7,0l-166.83,96.32c-2.4,1.39-2.4,3.64,0,5.02Z"/>
        <path class="cls-4" d="m125.39,181.19l160.85-92.84c1.44-.83,2.61-.16,2.61,1.51v125.96c0,1.67-1.17,3.69-2.61,4.52l-160.85,92.84c-1.44.83-2.61.16-2.61-1.51v-125.96c0-1.67,1.17-3.69,2.61-4.52Z"/>
        <path class="cls-7" d="m137.2,329.92l154.86-89.41c1.2-.69,3.15-.69,4.35,0l7.92,4.57c1.2.69,1.2,1.82,0,2.51l-154.88,89.39c-1.2.69-3.15.69-4.35,0l-7.9-4.56c-1.2-.69-1.2-1.82,0-2.51Z"/>
        <path class="cls-21" d="m157.61,341.71l154.86-89.41c1.2-.69,3.15-.69,4.35,0l48.72,28.13c1.2.69,1.2,1.82,0,2.51l-154.68,89.28c-1.2.69-3.15.7-4.36,0l-48.89-28.02c-1.2-.69-1.21-1.81,0-2.51Z"/>
        <path class="cls-10" d="m296.43,292.52l4.85-2.8c.21-.12.19-.32-.03-.45l-5.61-3.24c-.22-.13-.57-.13-.77-.02l-4.85,2.8c-.21.12-.19.32.03.45l5.61,3.24c.22.13.57.13.77.02Zm-9.57-11.12l-4.85,2.8c-.21.12-.19.32.03.45l5.61,3.24c.22.13.57.13.77.02l4.85-2.8c.21-.12.19-.32-.03-.45l-5.61-3.24c-.22-.13-.57-.13-.77-.02Zm-15.66,9.04l-8.21,4.74c-.21.12-.19.32.03.45l5.61,3.24c.22.13.57.13.77.02l8.21-4.74c.21-.12.19-.32-.03-.45l-5.61-3.24c-.22-.13-.57-.13-.77-.02Zm8.58-4.95l-4.85,2.8c-.21.12-.19.32.03.45l5.61,3.24c.22.13.57.13.77.02l4.85-2.8c.21-.12.19-.32-.03-.45l-5.61-3.24c-.22-.13-.57-.14-.77-.02Zm-19.02,10.98l-4.85,2.8c-.21.12-.19.32.03.45l5.61,3.24c.22.13.57.13.77.02l4.85-2.8c.21-.12.19-.32-.03-.45l-5.61-3.24c-.22-.13-.57-.13-.77-.02Zm-7.09,4.09l-4.85,2.8c-.21.12-.19.32.03.45l5.61,3.24c.22.13.57.14.77.02l4.85-2.8c.21-.12.19-.32-.03-.45l-5.61-3.24c-.22-.13-.57-.14-.77-.02Zm22.05,13.16l4.85-2.8c.21-.12.19-.32-.03-.45l-5.61-3.24c-.22-.13-.57-.13-.77-.02l-4.85,2.8c-.21.12-.19.32.03.45l5.61,3.24c.22.13.57.13.77.02Zm-7.09,4.09l4.85-2.8c.21-.12.19-.32-.03-.45l-5.61-3.24c-.22-.13-.57-.14-.77-.02l-4.85,2.8c-.21.12-.19.32.03.45l5.61,3.24c.22.13.57.13.77.02Zm-7.09,4.09l4.85-2.8c.21-.12.19-.32-.03-.45l-5.61-3.24c-.22-.13-.57-.13-.77-.02l-4.85,2.8c-.21.12-.19.32.03.45l5.61,3.24c.22.13.57.13.77.02Zm-7.09,4.09l4.85-2.8c.21-.12.19-.32-.03-.45l-5.61-3.24c-.22-.13-.57-.14-.77-.02l-4.85,2.8c-.21.12-.19.32.03.45l5.61,3.24c.22.13.57.14.77.02Zm34.88-29.39l4.85-2.8c.21-.12.19-.32-.03-.45l-5.61-3.24c-.22-.13-.57-.13-.77-.02l-4.85,2.8c-.21.12-.19.32.03.45l5.61,3.24c.22.13.57.13.77.02Zm-6.54,13.02l10.82-6.24c.21-.12.19-.32-.03-.45l-13.62-7.86c-.22-.13-.57-.13-.77-.02l-5.59,3.23c-.21.12-.19.32.03.45l7.21,4.16c.22.13.23.33.03.45l-4.48,2.58c-.21.12-.19.32.03.45l5.61,3.24c.22.13.57.13.77.02Zm-36.23-4.98l-4.85,2.8c-.21.12-.19.32.03.45l5.61,3.24c.22.13.57.13.77.02l4.85-2.8c.21-.12.19-.32-.03-.45l-5.61-3.24c-.22-.13-.57-.13-.77-.02Zm-7.09,4.09l-4.85,2.8c-.21.12-.19.32.03.45l5.61,3.24c.22.13.57.13.77.02l4.85-2.8c.21-.12.19-.32-.03-.45l-5.61-3.24c-.22-.13-.57-.13-.77-.02Zm-35.41,45.88c.22.13.57.13.77.02l4.85-2.8c.21-.12.19-.32-.03-.45l-5.61-3.24c-.22-.13-.57-.13-.77-.02l-4.85,2.8c-.21.12-.19.32.03.45l5.61,3.24Zm-21.28-13.15l-4.85,2.8c-.21.12-.19.32.03.45l5.61,3.24c.22.13.57.14.77.02l4.85-2.8c.21-.12.19-.32-.03-.45l-5.61-3.24c-.22-.13-.57-.14-.77-.02Zm11.41,9.6c.22.13.57.13.77.02l4.85-2.8c.21-.12.19-.32-.03-.45l-5.61-3.24c-.22-.13-.57-.13-.77-.02l-4.85,2.8c-.21.12-.19.32.03.45l5.61,3.24Zm22.39,6.03l4.85-2.8c.21-.12.19-.32-.03-.45l-5.61-3.24c-.22-.13-.57-.13-.77-.02l-4.85,2.8c-.21.12-.19.32.03.45l5.61,3.24c.22.13.57.14.77.02Zm-7.86,4.08c.22.13.57.13.77.02l4.85-2.8c.21-.12.19-.32-.03-.45l-5.61-3.24c-.22-.13-.57-.13-.77-.02l-4.85,2.8c-.21.12-.19.32.03.45l5.61,3.24Zm-18.85-23.8l-4.85,2.8c-.21.12-.19.32.03.45l5.61,3.24c.22.13.57.13.77.02l4.85-2.8c.21-.12.19-.32-.03-.45l-5.61-3.24c-.22-.13-.57-.13-.77-.02Zm35.43-20.46l-4.85,2.8c-.21.12-.19.32.03.45l5.61,3.24c.22.13.57.13.77.02l4.85-2.8c.21-.12.19-.32-.03-.45l-5.61-3.24c-.22-.13-.57-.13-.77-.02Zm-28.35,16.37l-4.85,2.8c-.21.12-.19.32.03.45l5.61,3.24c.22.13.57.14.77.02l4.85-2.8c.21-.12.19-.32-.03-.45l-5.61-3.24c-.22-.13-.57-.13-.77-.02Zm35.43-20.46l-4.85,2.8c-.21.12-.19.32.03.45l5.61,3.24c.22.13.57.14.77.02l4.85-2.8c.21-.12.19-.32-.03-.45l-5.61-3.24c-.22-.13-.57-.13-.77-.02Zm-14.17,8.18l-4.85,2.8c-.21.12-.19.32.03.45l5.61,3.24c.22.13.57.14.77.02l4.85-2.8c.21-.12.19-.32-.03-.45l-5.61-3.24c-.22-.13-.57-.14-.77-.02Zm-7.09,4.09l-4.85,2.8c-.21.12-.19.32.03.45l5.61,3.24c.22.13.57.13.77.02l4.85-2.8c.21-.12.19-.32-.03-.45l-5.61-3.24c-.22-.13-.57-.13-.77-.02Zm-7.09,4.09l-4.85,2.8c-.21.12-.19.32.03.45l5.61,3.24c.22.13.57.13.77.02l4.85-2.8c.21-.12.19-.32-.03-.45l-5.61-3.24c-.22-.13-.57-.13-.77-.02Zm36.23,4.98l4.85-2.8c.21-.12.19-.32-.03-.45l-5.61-3.24c-.22-.13-.57-.13-.77-.02l-4.85,2.8c-.21.12-.19.32.03.45l5.61,3.24c.22.13.57.13.77.02Zm62.24-61.83l-4.85,2.8c-.21.12-.19.32.03.45l5.61,3.24c.22.13.57.13.77.02l4.85-2.8c.21-.12.19-.32-.03-.45l-5.61-3.24c-.22-.13-.57-.13-.77-.02Zm-8.58,4.95l-4.85,2.8c-.21.12-.19.32.03.45l5.61,3.24c.22.13.57.13.77.02l4.85-2.8c.21-.12.19-.32-.03-.45l-5.61-3.24c-.22-.13-.57-.13-.77-.02Zm15.66-9.04l-4.85,2.8c-.21.12-.19.32.03.45l5.61,3.24c.22.13.57.14.77.02l4.85-2.8c.21-.12.19-.32-.03-.45l-5.61-3.24c-.22-.13-.57-.13-.77-.02Zm-36.68,37.82l4.85-2.8c.21-.12.19-.32-.03-.45l-5.61-3.24c-.22-.13-.57-.13-.77-.02l-4.85,2.8c-.21.12-.19.32.03.45l5.61,3.24c.22.13.57.13.77.02Zm44.54-41.9c-.22-.13-.57-.13-.77-.02l-4.85,2.8c-.21.12-.19.32.03.45l5.61,3.24c.22.13.57.13.77.02l4.85-2.8c.21-.12.19-.32-.03-.45l-5.61-3.24Zm-70.1,65.9l4.85-2.8c.21-.12.19-.32-.03-.45l-5.61-3.24c-.22-.13-.57-.13-.77-.02l-4.85,2.8c-.21.12-.19.32.03.45l5.61,3.24c.22.13.57.13.77.02Zm86.9-50.17l4.85-2.8c.21-.12.19-.32-.03-.45l-5.61-3.24c-.22-.13-.57-.13-.77-.02l-4.85,2.8c-.21.12-.19.32.03.45l5.61,3.24c.22.13.57.13.77.02Zm-15.1-.53l4.85-2.8c.21-.12.19-.32-.03-.45l-5.61-3.24c-.22-.13-.57-.13-.77-.02l-4.85,2.8c-.21.12-.19.32.03.45l5.61,3.24c.22.13.57.13.77.02Zm6.3-10.57c-.22-.13-.57-.13-.77-.02l-4.85,2.8c-.21.12-.19.32.03.45l5.61,3.24c.22.13.57.13.77.02l4.85-2.8c.21-.12.19-.32-.03-.45l-5.61-3.24Zm1.49-.86l13.62,7.86c.22.13.57.13.77.02l4.85-2.8c.21-.12.19-.32-.03-.45l-13.62-7.86c-.22-.13-.57-.13-.77-.02l-4.85,2.8c-.21.12-.19.32.03.45Zm-16.44,9.03l-4.85,2.8c-.21.12-.19.32.03.45l5.61,3.24c.22.13.57.14.77.02l4.85-2.8c.21-.12.19-.32-.03-.45l-5.61-3.24c-.22-.13-.57-.13-.77-.02Zm-53.33,30.79l-4.85,2.8c-.21.12-.19.32.03.45l5.61,3.24c.22.13.57.13.77.02l4.85-2.8c.21-.12.19-.32-.03-.45l-5.61-3.24c-.22-.13-.57-.13-.77-.02Zm69.22-23.78c.22.13.57.13.77.02l4.85-2.8c.21-.12.19-.32-.03-.45l-5.61-3.24c-.22-.13-.57-.13-.77-.02l-4.85,2.8c-.21.12-.19.32.03.45l5.61,3.24Zm-62.13,19.69l-4.85,2.8c-.21.12-.19.32.03.45l5.61,3.24c.22.13.57.13.77.02l4.85-2.8c.21-.12.19-.32-.03-.45l-5.61-3.24c-.22-.13-.57-.13-.77-.02Zm-53.12,46.85c.22.13.57.13.77.02l4.85-2.8c.21-.12.19-.32-.03-.45l-5.61-3.24c-.22-.13-.57-.13-.77-.02l-4.85,2.8c-.21.12-.19.32.03.45l5.61,3.24Zm-10.66-10.03l-4.85,2.8c-.21.12-.19.32.03.45l5.61,3.24c.22.13.57.13.77.02l4.85-2.8c.21-.12.19-.32-.03-.45l-5.61-3.24c-.22-.13-.57-.13-.77-.02Zm18.52,5.95l4.85-2.8c.21-.12.19-.32-.03-.45l-5.61-3.24c-.22-.13-.57-.14-.77-.02l-4.85,2.8c-.21.12-.19.32.03.45l5.61,3.24c.22.13.57.14.77.02Zm7.09-4.09l4.85-2.8c.21-.12.19-.32-.03-.45l-5.61-3.24c-.22-.13-.57-.13-.77-.02l-4.85,2.8c-.21.12-.19.32.03.45l5.61,3.24c.22.13.57.13.77.02Zm7.09-4.09l4.85-2.8c.21-.12.19-.32-.03-.45l-5.61-3.24c-.22-.13-.57-.13-.77-.02l-4.85,2.8c-.21.12-.19.32.03.45l5.61,3.24c.22.13.57.14.77.02Zm-25.61-1.86l-4.85,2.8c-.21.12-.19.32.03.45l5.61,3.24c.22.13.57.14.77.02l4.85-2.8c.21-.12.19-.32-.03-.45l-5.61-3.24c-.22-.13-.57-.14-.77-.02Zm7.09-4.09l-4.85,2.8c-.21.12-.19.32.03.45l5.61,3.24c.22.13.57.13.77.02l4.85-2.8c.21-.12.19-.32-.03-.45l-5.61-3.24c-.22-.13-.57-.13-.77-.02Zm28.35-16.37l-4.85,2.8c-.21.12-.19.32.03.45l5.61,3.24c.22.13.57.14.77.02l4.85-2.8c.21-.12.19-.32-.03-.45l-5.61-3.24c-.22-.13-.57-.14-.77-.02Zm-7.09,4.09l-4.85,2.8c-.21.12-.19.32.03.45l5.61,3.24c.22.13.57.13.77.02l4.85-2.8c.21-.12.19-.32-.03-.45l-5.61-3.24c-.22-.13-.57-.13-.77-.02Zm14.17-8.18l-4.85,2.8c-.21.12-.19.32.03.45l5.61,3.24c.22.13.57.13.77.02l4.85-2.8c.21-.12.19-.32-.03-.45l-5.61-3.24c-.22-.13-.57-.13-.77-.02Zm-28.35,16.37l-4.85,2.8c-.21.12-.19.32.03.45l5.61,3.24c.22.13.57.14.77.02l4.85-2.8c.21-.12.19-.32-.03-.45l-5.61-3.24c-.22-.13-.57-.14-.77-.02Zm7.09-4.09l-4.85,2.8c-.21.12-.19.32.03.45l5.61,3.24c.22.13.57.13.77.02l4.85-2.8c.21-.12.19-.32-.03-.45l-5.61-3.24c-.22-.13-.57-.13-.77-.02Zm-5.17,28.88l4.85-2.8c.21-.12.19-.32-.03-.45l-5.61-3.24c-.22-.13-.57-.14-.77-.02l-4.85,2.8c-.21.12-.19.32.03.45l5.61,3.24c.22.13.57.13.77.02Zm-41.58-4.2l-5.61-3.24c-.22-.13-.57-.13-.77-.02l-4.85,2.8c-.21.12-.19.32.03.45l5.61,3.24c.22.13.57.13.77.02l4.85-2.8c.21-.12.19-.32-.03-.45Zm10.62,3.12l-5.61-3.24c-.22-.13-.57-.14-.77-.02l-7.46,4.31c-.21.12-.19.32.03.45l5.61,3.24c.22.13.57.14.77.02l7.46-4.31c.21-.12.19-.32-.03-.45Zm-19.22-9.38l-5.61-3.24c-.22-.13-.57-.14-.77-.02l-5.97,3.45c-.21.12-.19.32.03.45l5.61,3.24c.22.13.57.13.77.02l5.97-3.45c.21-.12.19-.32-.03-.45Zm4.58-2.64c.22.13.57.13.77.02l4.85-2.8c.21-.12.19-.32-.03-.45l-5.61-3.24c-.22-.13-.57-.13-.77-.02l-4.85,2.8c-.21.12-.19.32.03.45l5.61,3.24Zm24.52,15.56l-5.61-3.24c-.22-.13-.57-.13-.77-.02l-9.32,5.38c-.21.12-.19.32.03.45l5.61,3.24c.22.13.57.13.77.02l9.32-5.38c.21-.12.19-.32-.03-.45Zm4.65,6.56l-5.61-3.24c-.22-.13-.57-.14-.77-.02l-5.97,3.45c-.21.12-.19.32.03.45l5.61,3.24c.22.13.57.13.77.02l5.97-3.45c.21-.12.19-.32-.03-.45Zm23.51-52.55c.22.13.57.13.77.02l4.85-2.8c.21-.12.19-.32-.03-.45l-5.61-3.24c-.22-.13-.57-.13-.77-.02l-4.85,2.8c-.21.12-.19.32.03.45l5.61,3.24Zm-14.17,8.18c.22.13.57.13.77.02l4.85-2.8c.21-.12.19-.32-.03-.45l-5.61-3.24c-.22-.13-.57-.13-.77-.02l-4.85,2.8c-.21.12-.19.32.03.45l5.61,3.24Zm-31.43,18.15c.22.13.57.14.77.02l4.85-2.8c.21-.12.19-.32-.03-.45l-5.61-3.24c-.22-.13-.57-.13-.77-.02l-4.85,2.8c-.21.12-.19.32.03.45l5.61,3.24Zm38.52-22.24c.22.13.57.14.77.02l4.85-2.8c.21-.12.19-.32-.03-.45l-5.61-3.24c-.22-.13-.57-.13-.77-.02l-4.85,2.8c-.21.12-.19.32.03.45l5.61,3.24Zm-14.17,8.18c.22.13.57.13.77.02l4.85-2.8c.21-.12.19-.32-.03-.45l-5.61-3.24c-.22-.13-.57-.14-.77-.02l-4.85,2.8c-.21.12-.19.32.03.45l5.61,3.24Zm1.64,40.8c-.22-.13-.57-.14-.77-.02l-7.46,4.31c-.21.12-.19.32.03.45l5.61,3.24c.22.13.57.14.77.02l7.46-4.31c.21-.12.19-.32-.03-.45l-5.61-3.24Zm-11.81-34.93c.22.13.57.13.77.02l4.85-2.8c.21-.12.19-.32-.03-.45l-5.61-3.24c-.22-.13-.57-.13-.77-.02l-4.85,2.8c-.21.12-.19.32.03.45l5.61,3.24Zm-7.09,4.09c.22.13.57.13.77.02l4.85-2.8c.21-.12.19-.32-.03-.45l-5.61-3.24c-.22-.13-.57-.13-.77-.02l-4.85,2.8c-.21.12-.19.32.03.45l5.61,3.24Zm150.18-44.96c-.22-.13-.57-.13-.77-.02l-11.93,6.89c-.21.12-.19.32.03.45l5.61,3.24c.22.13.57.14.77.02l11.93-6.89c.21-.12.19-.32-.03-.45l-5.61-3.24Zm-15.66,9.04c-.22-.13-.57-.14-.77-.02l-4.85,2.8c-.21.12-.19.32.03.45l5.61,3.24c.22.13.57.13.77.02l4.85-2.8c.21-.12.19-.32-.03-.45l-5.61-3.24Zm-95.99,53.11l4.85-2.8c.21-.12.19-.32-.03-.45l-5.61-3.24c-.22-.13-.57-.13-.77-.02l-4.85,2.8c-.21.12-.19.32.03.45l5.61,3.24c.22.13.57.13.77.02Zm81.82-44.93c-.22-.13-.57-.13-.77-.02l-4.85,2.8c-.21.12-.19.32.03.45l5.61,3.24c.22.13.57.13.77.02l4.85-2.8c.21-.12.19-.32-.03-.45l-5.61-3.24Zm36.92-21.32c-.22-.13-.57-.13-.77-.02l-4.85,2.8c-.21.12-.19.32.03.45l5.61,3.24c.22.13.57.13.77.02l4.85-2.8c.21-.12.19-.32-.03-.45l-5.61-3.24Zm12.69-.85l-13.62-7.86c-.22-.13-.57-.13-.77-.02l-4.85,2.8c-.21.12-.19.32.03.45l13.62,7.86c.22.13.57.13.77.02l4.85-2.8c.21-.12.19-.32-.03-.45Zm-76.1,37.46c-.22-.13-.57-.13-.77-.02l-5.97,3.45c-.21.12-.19.32.03.45l5.61,3.24c.22.13.57.14.77.02l5.97-3.45c.21-.12.19-.32-.03-.45l-5.61-3.24Zm17.9-10.34c-.22-.13-.57-.13-.77-.02l-7.46,4.31c-.21.12-.19.32.03.45l5.61,3.24c.22.13.57.13.77.02l7.46-4.31c.21-.12.19-.32-.03-.45l-5.61-3.24Zm-34.31,19.81c-.22-.13-.57-.13-.77-.02l-39.91,23.04c-.21.12-.19.32.03.45l5.61,3.24c.22.13.57.14.77.02l39.91-23.04c.21-.12.19-.32-.03-.45l-5.61-3.24Zm-42.15,24.33c-.22-.13-.57-.13-.77-.02l-5.97,3.45c-.21.12-.19.32.03.45l5.61,3.24c.22.13.57.13.77.02l5.97-3.45c.21-.12.19-.32-.03-.45l-5.61-3.24Zm50.35-29.07c-.22-.13-.57-.13-.77-.02l-5.97,3.45c-.21.12-.19.32.03.45l5.61,3.24c.22.13.57.14.77.02l5.97-3.45c.21-.12.19-.32-.03-.45l-5.61-3.24Zm-58.56,33.81c-.22-.13-.57-.13-.77-.02l-5.97,3.45c-.21.12-.19.32.03.45l5.61,3.24c.22.13.57.13.77.02l5.97-3.45c.21-.12.19-.32-.03-.45l-5.61-3.24Zm74.97-43.28c-.22-.13-.57-.14-.77-.02l-5.97,3.45c-.21.12-.19.32.03.45l5.61,3.24c.22.13.57.13.77.02l5.97-3.45c.21-.12.19-.32-.03-.45l-5.61-3.24Zm25.36-14.64c-.22-.13-.57-.13-.77-.02l-4.85,2.8c-.21.12-.19.32.03.45l5.61,3.24c.22.13.57.13.77.02l4.85-2.8c.21-.12.19-.32-.03-.45l-5.61-3.24Zm15.53-11.28l4.85-2.8c.21-.12.19-.32-.03-.45l-5.61-3.24c-.22-.13-.57-.14-.77-.02l-4.85,2.8c-.21.12-.19.32.03.45l5.61,3.24c.22.13.57.14.77.02Zm-31.68-.2l4.85-2.8c.21-.12.19-.32-.03-.45l-5.61-3.24c-.22-.13-.57-.14-.77-.02l-4.85,2.8c-.21.12-.19.32.03.45l5.61,3.24c.22.13.57.14.77.02Zm-16.06,27.77l14.17-8.18c.21-.12.19-.32-.03-.45l-5.61-3.24c-.22-.13-.57-.13-.77-.02l-14.17,8.18c-.21.12-.19.32.03.45l5.61,3.24c.22.13.57.14.77.02Zm39.88-23.49c.22.13.57.13.77.02l4.85-2.8c.21-.12.19-.32-.03-.45l-5.61-3.24c-.22-.13-.57-.13-.77-.02l-4.85,2.8c-.21.12-.19.32.03.45l5.61,3.24Zm-7.24-4.61l4.85-2.8c.21-.12.19-.32-.03-.45l-5.61-3.24c-.22-.13-.57-.13-.77-.02l-4.85,2.8c-.21.12-.19.32.03.45l5.61,3.24c.22.13.57.13.77.02Zm-39.73,32.19l4.85-2.8c.21-.12.19-.32-.03-.45l-5.61-3.24c-.22-.13-.57-.13-.77-.02l-4.85,2.8c-.21.12-.19.32.03.45l5.61,3.24c.22.13.57.13.77.02Zm31.3-18.53c.22.13.57.13.77.02l4.85-2.8c.21-.12.19-.32-.03-.45l-5.61-3.24c-.22-.13-.57-.13-.77-.02l-4.85,2.8c-.21.12-.19.32.03.45l5.61,3.24Zm-66.73,38.99l4.85-2.8c.21-.12.19-.32-.03-.45l-5.61-3.24c-.22-.13-.57-.13-.77-.02l-4.85,2.8c-.21.12-.19.32.03.45l5.61,3.24c.22.13.57.13.77.02Zm7.09-4.09l4.85-2.8c.21-.12.19-.32-.03-.45l-5.61-3.24c-.22-.13-.57-.13-.77-.02l-4.85,2.8c-.21.12-.19.32.03.45l5.61,3.24c.22.13.57.14.77.02Zm-14.17,8.18l4.85-2.8c.21-.12.19-.32-.03-.45l-5.61-3.24c-.22-.13-.57-.14-.77-.02l-4.85,2.8c-.21.12-.19.32.03.45l5.61,3.24c.22.13.57.13.77.02Zm28.35-16.37l4.85-2.8c.21-.12.19-.32-.03-.45l-5.61-3.24c-.22-.13-.57-.13-.77-.02l-4.85,2.8c-.21.12-.19.32.03.45l5.61,3.24c.22.13.57.13.77.02Zm-7.09,4.09l4.85-2.8c.21-.12.19-.32-.03-.45l-5.61-3.24c-.22-.13-.57-.14-.77-.02l-4.85,2.8c-.21.12-.19.32.03.45l5.61,3.24c.22.13.57.13.77.02Zm14.17-8.18l4.85-2.8c.21-.12.19-.32-.03-.45l-5.61-3.24c-.22-.13-.57-.14-.77-.02l-4.85,2.8c-.21.12-.19.32.03.45l5.61,3.24c.22.13.57.13.77.02Zm32.42-60.52c.22.13.57.13.77.02l4.85-2.8c.21-.12.19-.32-.03-.45l-1.49-.86c-.22-.13-.57-.13-.77-.02l-4.85,2.8c-.21.12-.19.32.03.45l1.49.86Zm-34.87,22.51c.22.13.57.14.77.02l4.85-2.8c.21-.12.19-.32-.03-.45l-5.61-3.24c-.22-.13-.57-.14-.77-.02l-4.85,2.8c-.21.12-.19.32.03.45l5.61,3.24Zm14.17-8.18c.22.13.57.13.77.02l4.85-2.8c.21-.12.19-.32-.03-.45l-5.61-3.24c-.22-.13-.57-.13-.77-.02l-4.85,2.8c-.21.12-.19.32.03.45l5.61,3.24Zm-22.83,13.18c.22.13.57.14.77.02l4.85-2.8c.21-.12.19-.32-.03-.45l-5.61-3.24c-.22-.13-.57-.13-.77-.02l-4.85,2.8c-.21.12-.19.32.03.45l5.61,3.24Zm15.74-9.09c.22.13.57.13.77.02l4.85-2.8c.21-.12.19-.32-.03-.45l-5.61-3.24c-.22-.13-.57-.13-.77-.02l-4.85,2.8c-.21.12-.19.32.03.45l5.61,3.24Zm-29.91,17.27c.22.13.57.13.77.02l4.85-2.8c.21-.12.19-.32-.03-.45l-5.61-3.24c-.22-.13-.57-.13-.77-.02l-4.85,2.8c-.21.12-.19.32.03.45l5.61,3.24Zm7.09-4.09c.22.13.57.13.77.02l4.85-2.8c.21-.12.19-.32-.03-.45l-5.61-3.24c-.22-.13-.57-.13-.77-.02l-4.85,2.8c-.21.12-.19.32.03.45l5.61,3.24Zm36.43-23.41c.22.13.57.13.77.02l4.85-2.8c.21-.12.19-.32-.03-.45l-1.49-.86c-.22-.13-.57-.13-.77-.02l-4.85,2.8c-.21.12-.19.32.03.45l1.49.86Zm21.26-12.27c.22.13.57.14.77.02l4.85-2.8c.21-.12.19-.32-.03-.45l-1.49-.86c-.22-.13-.57-.13-.77-.02l-4.85,2.8c-.21.12-.19.32.03.45l1.49.86Zm11.78,6.8c.22.13.57.13.77.02l4.85-2.8c.21-.12.19-.32-.03-.45l-5.61-3.24c-.22-.13-.57-.13-.77-.02l-4.85,2.8c-.21.12-.19.32.03.45l5.61,3.24Zm17.72,17.98l4.85-2.8c.21-.12.19-.32-.03-.45l-5.61-3.24c-.22-.13-.57-.13-.77-.02l-4.85,2.8c-.21.12-.19.32.03.45l5.61,3.24c.22.13.57.13.77.02Zm-43.67-16.6c.22.13.57.14.77.02l4.85-2.8c.21-.12.19-.32-.03-.45l-1.49-.86c-.22-.13-.57-.14-.77-.02l-4.85,2.8c-.21.12-.19.32.03.45l1.49.86Zm-57.69,35.68c.22.13.57.13.77.02l4.85-2.8c.21-.12.19-.32-.03-.45l-5.61-3.24c-.22-.13-.57-.13-.77-.02l-4.85,2.8c-.21.12-.19.32.03.45l5.61,3.24Z"/>
        <path class="cls-21" d="m272.35,346.17l47.85-27.62c1.44-.83,3.78-.83,5.22,0l27.44,15.84c1.44.83,1.44,2.18,0,3.01l-47.85,27.62c-1.44.83-3.78.83-5.22,0l-27.44-15.84c-1.44-.83-1.44-2.18,0-3.02Z"/>
      </g>
      <g id="Window">
        <path class="cls-17" d="m282.81,102.72v7.31l-108.91,62.88c-.75.44-1.36.08-1.36-.79l.08-2.62s-1.95-.72-2.01-.62l-32.61,18.83c-.76.44-1.37,1.5-1.37,2.37v2.77c0,.87-.61,1.93-1.36,2.37l-3.76,2.17v-7.31c0-.87.61-1.93,1.36-2.37l148.58-85.78c.75-.44,1.36-.08,1.36.79Z"/>
        <path class="cls-20" d="m282.82,212.18c0,.87-.61,1.93-1.37,2.37l-148.58,85.78c-.75.44-1.36.08-1.36-.79v-102.15l3.76-2.17c.75-.44,1.98-7.07,2.73-7.5l32.61-18.83c.76-.44,2.54,4.46,3.29,4.02l108.91-62.88v102.15Z"/>
        <path class="cls-4" d="m138,225.38l65.25-37.71c.75-.44,1.37-.08,1.37.79v64.14c0,.87-.61,1.93-1.37,2.37l-65.25,37.71c-.76.44-1.37.08-1.37-.79v-64.14c0-.87.61-1.93,1.37-2.37Z"/>
        <g>
          <path class="cls-10" d="m138,208.44l138.32-79.86c.75-.44,1.37-.08,1.37.79v9.61c0,.87-.61,1.93-1.37,2.37l-138.32,79.86c-.76.44-1.37.08-1.37-.79v-9.61c0-.87.61-1.93,1.37-2.37Z"/>
          <g>
            <path class="cls-4" d="m226.4,165.02v2.55c0,.52.37.73.82.47l40.21-23.22v-4.44s-40.22,23.22-40.22,23.22c-.45.26-.82.9-.82,1.42Z"/>
            <path class="cls-17" d="m271.74,137.89c.45-.26.82-.05.82.47v2.55c0,.52-.37,1.16-.82,1.42l-4.31,2.49v-4.44s4.31-2.49,4.31-2.49Z"/>
            <path class="cls-4" d="m271.43,141.38l-.48-.15c.05-.2.08-.41.08-.62,0-.49-.16-.87-.44-1.03-.21-.12-.46-.11-.7.03-.54.31-.96,1.19-.96,2,0,.49.16.87.44,1.03.09.05.2.08.3.08.13,0,.26-.04.4-.12.32-.19.6-.58.78-1.04l.48.15s.04,0,.05,0c.08,0,.15-.05.17-.13.03-.09-.02-.19-.12-.22Zm-1.54.92c-.13.08-.25.09-.34.03-.16-.09-.26-.37-.26-.72,0-.67.36-1.45.78-1.69.08-.04.15-.07.22-.07.05,0,.09.01.13.03.16.09.26.37.26.72,0,.67-.36,1.45-.78,1.69Z"/>
          </g>
        </g>
        <path class="cls-15" d="m282.81,110.03v8.89l-151.31,87.36v-8.89l2.81-1.63c.75-.44,1-1.1,1.36-2.37l.95-3.31c.3-1.15.61-1.93,1.37-2.37l32.61-18.83c.76-.44,1.35-.48,1.92.47l1.17,2.12c.43.74.64,1.18,1.39.74l107.71-62.18Z"/>
        <g>
          <path class="cls-10" d="m276.41,107.31c.95-.55,1.72-.1,1.72.99s-.77,2.43-1.72,2.98c-.95.55-1.72.1-1.72-.99s.77-2.43,1.72-2.98Z"/>
          <path class="cls-10" d="m270.21,110.88c.95-.55,1.72-.1,1.72.99s-.77,2.43-1.72,2.98c-.95.55-1.72.1-1.72-.99s.77-2.43,1.72-2.98Z"/>
          <path class="cls-10" d="m264.02,114.45c.95-.55,1.72-.1,1.72.99s-.77,2.43-1.72,2.98c-.95.55-1.72.1-1.72-.99s.77-2.43,1.72-2.98Z"/>
        </g>
        <path class="cls-6" d="m137.78,198.03l-2.15,1.24.82-1.57c.07-.14.08-.31.02-.38-.06-.07-.17-.02-.24.12l-1.16,2.24s0,0,0,0c-.01.03-.02.05-.03.08,0,0,0,.02,0,.03,0,.04-.02.08-.02.12s0,.07.02.1c0,0,0,.01,0,.02,0,.02.02.04.03.05,0,0,0,0,0,0l1.16.9s.07.02.11,0c.05-.03.1-.09.13-.17.06-.15.06-.31-.02-.37l-.82-.63,2.15-1.24c.1-.06.17-.22.17-.37s-.08-.22-.17-.17Z"/>
        <path class="cls-6" d="m139.57,196.99l2.15-1.24-.82-.63c-.07-.06-.08-.22-.02-.37.06-.15.17-.22.24-.17l1.16.89s0,0,0,0c.01.01.02.03.03.05,0,0,0,0,0,.02,0,.03.02.06.02.1s0,.08-.02.12c0,0,0,.02,0,.03,0,.03-.02.06-.03.08,0,0,0,0,0,0l-1.16,2.24c-.03.06-.07.11-.11.13-.05.03-.1.02-.13-.02-.06-.07-.06-.25.02-.38l.82-1.57-2.15,1.24c-.1.06-.17-.02-.17-.17s.08-.31.17-.37Z"/>
        <path class="cls-6" d="m146.61,190.81c-.01-.13-.13-.11-.18.03l-.29.72c-.5-.05-1.11.44-1.52,1.3-.53,1.13-.53,2.46,0,2.97.27.26.61.26.96.06.35-.2.7-.61.96-1.17.07-.14.07-.31,0-.38-.07-.06-.18,0-.24.14-.4.84-1.04,1.21-1.44.83-.4-.38-.4-1.38,0-2.22.28-.6.69-.95,1.04-.97l-.22.54c-.06.14,0,.27.09.21l.88-.57c.06-.04.11-.15.1-.24l-.13-1.25Z"/>
        <path class="cls-6" d="m169.67,172.94l.78-1.66c.09-.2.09-.43,0-.52s-.24,0-.33.19l-.78,1.66-.78-.75c-.09-.09-.24,0-.33.19s-.09.43,0,.52l.78.75-.78,1.66c-.09.2-.09.43,0,.52.05.04.11.05.17.01.06-.03.12-.11.17-.2l.78-1.66.78.75s.11.05.17.01.12-.11.17-.2c.09-.2.09-.43,0-.52l-.78-.75Z"/>
        <path class="cls-4" d="m149.46,192.85v-2.77c0-.87.61-1.93,1.37-2.37l122.93-70.94c.75-.44,1.37-.08,1.37.79v2.77c0,.87-.61,1.93-1.37,2.37l-122.93,70.94c-.76.44-1.37.08-1.37-.79Z"/>
        <path class="cls-12" d="m272.96,118.24l.36.76s.07.07.12.05l.8-.31c.13-.05.18.13.09.3l-.58,1.09c-.04.07-.05.15-.04.21l.14.99c.02.16-.11.36-.23.35l-.72-.09s-.1.03-.14.08l-.72.92c-.11.15-.25.09-.23-.09l.14-1.15c0-.07,0-.13-.04-.16l-.58-.42c-.09-.07-.04-.3.09-.4l.8-.62c.05-.04.09-.11.12-.18l.36-1.18c.06-.19.22-.28.28-.16Z"/>
        <g class="cls-5">
          <path class="cls-10" d="m276.73,116.44c-.16,0-.32-.08-.41-.24-.13-.23-.05-.52.17-.65l3.85-2.22c.23-.13.52-.05.65.17.13.23.05.52-.17.65l-3.85,2.22c-.07.04-.16.06-.24.06Z"/>
          <path class="cls-10" d="m276.73,118.66c-.16,0-.32-.08-.41-.24-.13-.23-.05-.52.17-.65l3.85-2.22c.23-.13.52-.05.65.17.13.23.05.52-.17.65l-3.85,2.22c-.07.04-.16.06-.24.06Z"/>
          <path class="cls-10" d="m276.73,120.88c-.16,0-.32-.08-.41-.24-.13-.23-.05-.52.17-.65l3.85-2.22c.23-.13.52-.05.65.17.13.23.05.52-.17.65l-3.85,2.22c-.07.04-.16.06-.24.06Z"/>
        </g>
      </g>
      <g id="Question_Mark" data-name="Question Mark">
        <path class="cls-10" d="m167.89,240.48c5.49-5.59,6.9-8.13,6.9-10.37,0-2.1-.94-3.65-3.87-1.96-2.28,1.32-3.51,3.02-4.32,5.3-.31.88-1.23,1.78-2.14,1.98l-3.81.85c-.91.2-1.52-.38-1.3-1.28,1.66-6.81,5.88-13.1,11.79-16.51,7.1-4.1,11.24-1.03,11.24,5.92s-3.51,12.2-6.96,16.19c-.61.7-1.13,2.01-1.13,2.94v2.26c0,.93-.65,2.07-1.46,2.53l-4.67,2.7c-.81.47-1.46.09-1.46-.84v-6.81c0-.93.54-2.22,1.19-2.89Z"/>
        <path class="cls-10" d="m166.61,260.37c0-2.64,1.3-5.43,3.87-6.91,2.52-1.45,3.82-.17,3.82,2.47s-1.26,5.46-3.82,6.94c-2.56,1.48-3.87.13-3.87-2.5Z"/>
      </g>
    </g>
  </g>
  <g id="Support_character" data-name="Support character">
    <g>
      <g>
        <path class="cls-17" d="m321.67,79.38l-3.71-2.14h0c-.57-.34-1.36-.3-2.24.21l-91.36,52.75c-1.73,1-3.14,3.43-3.14,5.43v131.41c0,.97.34,1.66.88,2h0s.04.03.04.03c0,0,0,0,0,0l3.7,2.14,89.88-55.1c1.73-1,3.13-3.43,3.13-5.43l2.81-131.28Z"/>
        <path class="cls-16" d="m225.79,271.17l-3.64-2.11h0l-.04-.03h0c-.54-.35-.87-1.02-.87-2v-131.41c0-1.05.4-2.23,1.02-3.25l3.71,2.14c-.63,1.02-1.02,2.2-1.02,3.26v131.41c0,.96.32,1.65.85,1.99Z"/>
        <path class="cls-17" d="m228.07,132.34l91.36-52.75c1.73-1,3.13-.19,3.13,1.81v131.41c0,2-1.4,4.43-3.13,5.43l-91.36,52.74c-1.73,1-3.14.19-3.14-1.81v-131.41c0-2,1.41-4.43,3.14-5.43Z"/>
        <path class="cls-3" d="m317.95,77.24l3.58,2.07c-.56-.26-1.29-.19-2.1.28l-91.37,52.74c-.81.47-1.55,1.25-2.11,2.16l-3.71-2.14c.55-.91,1.3-1.7,2.11-2.17l91.37-52.74c.88-.5,1.66-.55,2.23-.2h0Z"/>
      </g>
      <path class="cls-2" d="m238.44,137.52l73.18-42.25c1.31-.76,2.37-.14,2.37,1.37v112.39c0,1.51-1.06,3.35-2.37,4.11l-73.17,42.17c-1.31.76-2.37.14-2.37-1.37v-112.31c0-1.51,1.06-3.35,2.37-4.11Z"/>
      <g>
        <path class="cls-7" d="m296.42,162.25l.74-.61c-.06-.08-1.61-1.93-4.56-2.68l-.24.92c2.63.67,4.04,2.35,4.06,2.37Z"/>
        <path class="cls-17" d="m298.05,165.98l-1.5-1.48c-.77-.76-.78-2-.02-2.77h0c.76-.77,2-.78,2.77-.02l1.5,1.48c.77.76.78,2,.02,2.77h0c-.76.77-2,.78-2.77.02Z"/>
      </g>
      <g class="cls-19">
        <g>
          <g>
            <g id="Character_boy" data-name="Character boy">
              <path class="cls-22" d="m311.36,200.16c1.97,3.36,3.38,5.78,3.38,5.78,0,0,22.14-11.74,23.39-13.27,1.25-1.53,1.17-4.66,1.36-6.33.31-2.8-.72-5.21-.86-6.22-.26-1.76,2.28-1.86,3.53.58.92,1.78.99,3.82,1.77,3.85.27,0,2.75-2.26,3.11-2.65,1.37-1.5,3.85-4.01,5.73-3.66.62.12,1.1.64,1.25,1.35.23,1.12.14,2.06.7,2.99.24.4.61.71.74,1.2.18.65-.08,1.27-.02,1.94.08.93.98,1.32,1.11,2.22.09.65-.24,1.41-.23,2.1,0,.44.14.84.14,1.28,0,.87-.56,1.75-1.14,2.46-2.05,2.5-4.14,3.92-6.57,5.5-2.02,1.32-4.68,2.49-6.96,3.73-2.28,1.24-28.38,21.26-31.85,18.89-1.42-.97-5.16-5.76-9.09-11.11"/>
              <path class="cls-22" d="m299.98,211.49c-5.7-7.74-10.94-17.32-10.94-17.32-3.99-11.2.53-18.66.53-18.66,0,0,5.75-1.78,10.54,5.78,2.11,3.33,7.63,12.69,11.25,18.87"/>
              <path class="cls-10" d="m279.47,175.68s6.34-2.57,10.45-2.31c4.11.26,7.16,1.44,10.17,6.28,4.03,6.47,10.69,17.65,10.69,17.65,0,0-3.84,8.85-12.95,13.85l-12.28-18.53-6.09-16.95Z"/>
              <g id="Character_boy-2" data-name="Character boy">
                <g>
                  <path class="cls-1" d="m259.35,186.88c-2.05,1.61-3.66,3.96-4.48,6.59-.73,2.34-1.36,5.55-1.36,9.65v21.06l-.27,39.83c13.36,4.55,30.34.54,44.59-15.29,0,0-.8-50.96-.8-59.34,0-.38,0-.76-.02-1.14-.52-11.82-10.71-17.29-20.75-11.62l-8.43,4.77-8.47,5.49h0Z"/>
                  <g>
                    <g>
                      <path class="cls-21" d="m263.98,138.42s-6.55-.5-8.04,5.57c-1.33,5.42,8.55,26.82,8.33,26.47-.22-.36-.29-32.04-.29-32.04Z"/>
                      <path class="cls-17" d="m287.13,126.18s-2.43-6.53-14.22-1.88c-6.02,2.37-8.26,9.8-8.26,9.8l22.48-7.91Z"/>
                      <path class="cls-8" d="m287.13,126.18s-2.43-6.53-14.22-1.88c-6.02,2.37-8.26,9.8-8.26,9.8l22.48-7.91Z"/>
                      <path class="cls-21" d="m268.5,143.55c0,8.98,6.31,14.57,14.08,12.49,7.78-2.08,14.08-11.05,14.08-20.04s-6.71-8.98-14.49-6.9c-7.78,2.08-13.67,5.47-13.67,14.45Z"/>
                      <path class="cls-21" d="m261.15,157.77s2.07,10.7,2.91,12.33,2.55,1.69,2.55,1.69l-.15-7.88-5.31-6.14Z"/>
                      <path class="cls-21" d="m263.75,140.95s-2.23.16-3.98,2.68c-1.71,2.47-.75,8.53,1.37,14.14l3.91-.53-1.3-16.29Z"/>
                      <path class="cls-22" d="m266.23,156.93c-.78.75-1.9-.69-2.87-1.6-.97-.91-4.12-1.66-5.7,2.59-1.6,4.33,1.39,8.69,3.87,8.92,4.28.4,4.92-2.94,4.92-2.94l.15,18.27c7.18,7.62,19.77-1.36,14.11-4.73v-5.42s3.87-.36,5.76-1.2c3.15-1.41,5.13-4.8,6.08-9,1.53-6.73,2.12-11.99.82-24.07-1.43-13.24-15.15-9.71-22.56-2.33-7.41,7.37-4.58,21.51-4.58,21.51Z"/>
                      <path class="cls-21" d="m266.23,158.45c-.39.11-1.89-2.36-2.87-3.12-1.35-1.06.39-14.39.39-14.39-1.56-3.43,1.32-8.63,4.33-10.74,2.26-1.58,4.74-2.18,7.14-2.62,2.16-.4,4.32-.7,6.46-.9,2.6-.24,5.2-.34,7.83-.93,2.1-.48,3.67-1.13,5.84-2.12,1.64-.75,3,.94,1.55,3.75-.69,1.34-2.67,4.69-5.3,6.66-6.38,4.79-13.8,5.94-20.24,6.65-1.45.16-1.76,1.87-2.55,6.53-.69,4.09-1.26,10.85-2.58,11.24Z"/>
                      <path class="cls-21" d="m258.84,141.06l-4.74-1.67c.67-1.75,2.28-2.79,3.59-2.33,1.31.46,1.82,2.25,1.15,4Z"/>
                      <path class="cls-11" d="m280.7,172.02s-7.03.25-9.48-.6c-1.64-.57-3-1.96-3.4-2.97,0,0,.46,2.28,1.93,4.06,1.8,2.17,10.95,1.67,10.95,1.67v-2.16Z"/>
                    </g>
                    <g>
                      <path class="cls-21" d="m279.01,151.47c0,.93-.63,1.86-1.41,2.06-.78.21-1.41-.38-1.41-1.32s.63-1.86,1.41-2.06c.78-.21,1.41.38,1.41,1.32Z"/>
                      <path class="cls-21" d="m276.75,145.35l-3.01,2.73c-.44-.88-.13-2.2.7-2.96.83-.75,1.87-.65,2.31.23Z"/>
                      <path class="cls-11" d="m280.07,162.43l3.21.53c-.32,1.15-1.3,1.96-2.18,1.82-.89-.15-1.35-1.2-1.03-2.35Z"/>
                      <path class="cls-21" d="m291.93,142.71l-2.75-1.71c.56-1.06,1.63-1.53,2.39-1.06.76.47.92,1.71.36,2.77Z"/>
                      <path class="cls-21" d="m290.73,147.87c0,.93-.63,1.86-1.41,2.06-.78.21-1.41-.38-1.41-1.32s.63-1.86,1.41-2.06c.78-.21,1.41.38,1.41,1.32Z"/>
                      <polygon class="cls-11" points="283.77 148.43 283.93 158.25 288.98 155.61 283.77 148.43"/>
                    </g>
                  </g>
                </g>
              </g>
            </g>
            <path class="cls-22" d="m238.19,246.5c3.94-40.5,10.31-54.89,20.29-58.92,3.35,2.63,3.88,14.57.09,23.54,0,0-8.33,26.86-8.99,36.04-.58,8.07.11,19.24.95,25.62.15,1.13.7,2.03,1.49,2.58,2.13,1.46,1.94,3.5,3.44,5.47,1.17,1.54,2.3,1.83,2.05,2.4-.32.72-1.43,1.96-3.05,1.54-.81-.21-1.37-.62-2.62-1.5,0,0,.64,2.88,2.64,6.1,2.71,4.36,2.5,7.25-4.12,8.07-4.15.51-7.1-2.13-8.92-12.54-.53-3-1.81-8.4-2.3-12.29-1.41-11.15-1.59-19.59-.96-26.11Z"/>
            <path class="cls-10" d="m261.34,185.66s-7.26,2.34-11.04,8.15-7.48,15.21-10.32,31.99c0,0,4.4,6.34,16.41,1.45,0,0,5.69-21.36,6.36-29.85.73-9.25-1.41-11.75-1.41-11.75Z"/>
          </g>
          <g>
            <path class="cls-17" d="m268.09,126.48c-6.78,4.25-9.72,9.41-9.88,15.64-.14,5.15.32,10.77.51,12.79-2.56,1.91-4.34,5-4.34,8.03,0,4.21,3.41,6.7,7.62,5.58,4.21-1.13,7.62-5.45,7.62-9.66,0-3.15-1.91-5.34-4.63-5.77-.02-.1-1.44-8.96.06-17.91,1.51-9,18.33-14.19,22.09-9-1.1-4.49-9.59-5.63-19.04.3Z"/>
            <path class="cls-16" d="m268.09,126.48c-6.78,4.25-9.72,9.41-9.88,15.64-.14,5.15.32,10.77.51,12.79-2.56,1.91-4.34,5-4.34,8.03,0,4.21,3.41,6.7,7.62,5.58,4.21-1.13,7.62-5.45,7.62-9.66,0-3.15-1.91-5.34-4.63-5.77-.02-.1-1.44-8.96.06-17.91,1.51-9,18.33-14.19,22.09-9-1.1-4.49-9.59-5.63-19.04.3Z"/>
            <path class="cls-17" d="m265.64,159.91c0-2.02-1.63-3.21-3.65-2.67-2.02.54-3.65,2.61-3.65,4.63s1.63,3.21,3.65,2.67c2.02-.54,3.65-2.61,3.65-4.63Z"/>
          </g>
        </g>
      </g>
      <g>
        <path class="cls-17" d="m208.06,224.16c-.18.18-.33.35-.45.52,0,.01,0,.02,0,.02-.27.35-.45.67-.53.96,0,0,.01,0,0,0-.08.24-.09.46-.03.65.03.15.1.29.21.39.05.06.11.11.18.16l-3.67-2.12c-.16-.09-.27-.21-.35-.35-.13-.24-.15-.53-.05-.88.01,0,0-.01,0-.01.06-.21.18-.45.34-.7.16-.25.38-.52.64-.8l3.72,2.15Z"/>
        <path class="cls-17" d="m208.09,224.12c-1.91,1.99-1.24,3.35,1.5,3.03l15.34-1.77v-18.76l-16.84,17.5Z"/>
        <path class="cls-17" d="m208.09,224.12c-1.21,1.26-1.38,2.26-.66,2.75l-3.67-2.12c-.77-.48-.6-1.5.62-2.78l16.85-17.5,3.71,2.15-16.85,17.5Z"/>
        <path class="cls-16" d="m208.06,224.16c-.18.18-.33.35-.45.52,0,.01,0,.02,0,.02-.26.35-.44.67-.53.96,0,0,.01,0,0,0-.07.24-.08.46-.03.65.03.15.1.28.21.39.05.06.11.11.18.16l-3.67-2.12c-.16-.09-.27-.21-.35-.35-.13-.24-.15-.53-.05-.88.01,0,0-.01,0-.01.07-.21.18-.45.34-.7.16-.25.38-.52.64-.8l3.72,2.15Z"/>
        <path class="cls-3" d="m224.94,206.62l-16.85,17.5s-.03.03-.03.04l-3.72-2.15s.03-.03.04-.04l16.85-17.5,3.71,2.15Z"/>
      </g>
      <path class="cls-22" d="m311.36,200.16c1.97,3.36,3.38,5.78,3.38,5.78,0,0,22.14-11.74,23.39-13.27,1.25-1.53,1.17-4.66,1.36-6.33.31-2.8-.72-5.21-.86-6.22-.31-2.15,2.78-1.65,3.76-.8.71.62,1.1,1.5,1.59,2.31s1.38,3.41,2.31,3.58c.72.13,2.15-.9,2.73-1.34,2.43-1.84,3.93-4.39,5.8-6.72.38-.47.78-.96,1.34-1.16.91-.33,1.9.18,2.72.71.75.49,1.5,1.02,1.99,1.77.34.54.53,1.16.68,1.78.97,4.24-1.18,7.82-3.75,11.03-2.53,3.16-5.68,5.81-9.06,8.01-2.02,1.32-4.68,2.49-6.96,3.73-2.28,1.24-27.18,22.07-30.65,19.7-1.42-.97-7.21-5.89-11.14-11.23"/>
    </g>
  </g>
  <g id="Character">
    <g>
      <path class="cls-22" d="m474.68,164.03c7.95,0,12.2,2.4,15.52,9.79,3.18,7.07,13.05,27.58,12.56,32.55-.49,4.97-20.8,26.08-20.8,26.08l-5.79-7.04,12.56-21.11-12.33-17.78-1.72-22.49Z"/>
      <g id="Character-2" data-name="Character">
        <g>
          <g>
            <path class="cls-21" d="m455.26,381.66s.9,2.73,1.39,5.12c.39,1.9.94,5.08.27,6.51-.67,1.43-3.26,2.35-7.29,2.32-2.61-.02-6.67,1.75-9.45,3.3-2.87,1.6-8.85,2.24-11.89,1.88-3.58-.42-7.29-2.5-7.87-3.98-.58-1.48-1.07-3.52,8.63-6.62.08-.03,11.73-3.82,15.82-8.33l10.39-.21Z"/>
            <path class="cls-22" d="m455.26,381.93l-1.85-.23-8.54.17c-4.08,4.51-15.74,8.3-15.82,8.33-.55.18-1.06.35-1.55.52-1.68,1.36-.26,3.67,3.75,4.03,4,.36,16.46-3.84,19.22-5.17s4.79-3.99,4.79-7.65Z"/>
            <path class="cls-22" d="m455.26,378.26s-.01,2.33,0,3.67c.01,1.33-1.56,3.32-5.64,3.17-2.86-.1-4.86-.87-4.75-3.23v-3.4l10.39-.21Z"/>
            <path class="cls-21" d="m482.64,366.33c.73.3.88,1.72.92,4.53.03,2.13.38,5.85-2.12,6.52s-6.14.2-7.68-1.85c-1.92-2.55-3.21-4.79-5.97-7.91-2.39-2.71-4.99-5.25-5.88-8.99-.81-3.38-.02-4.81,2.29-5.72,2.19-.87,4.4-.16,7.6,2.51,1.1.67,2.09,1.27,2.85,1.51,2.11.65,7.27,9.11,8,9.41Z"/>
            <path class="cls-22" d="m482.71,363.73l-.09,3.45s-2.31,4.51-8.71,0c-.14-.34-.72-7-.72-7l9.52,3.56Z"/>
            <path class="cls-22" d="m474.64,356.92c-.76-.23-1.75-.83-2.85-1.51h0c-2.58-.83-8.03.13-5.57,3.88,2.64,4.04,5.35,6.13,7.68,7.88,2.9,1.43,3.91-.34,3.91-.34l-1.03-8.08c-.84-.95-1.6-1.67-2.15-1.84Z"/>
            <path class="cls-17" d="m487.39,316.05c-1.27-11.3-3.73-17.84-3.73-17.84,0,0,2.17-15.21,3.88-29.81,4.01-34.27,1.34-34.82-3.51-46.73,0,0-43.93-5.65-45.77,12.62-2.29,22.75-1.25,66.87-.87,74.94.39,8.07,1.04,11.72,3.43,28.62,1.82,12.86,3.55,40.99,3.55,40.99,5.76,3.32,11.3-.58,11.3-.58,0,0,5.5-34.59,5.38-43.9-.16-11.36-2.98-20.38-2.98-20.38,0,0,3.73-37.08,4.69-42.97,0,0,1.06,11.82,1.45,19.89.39,8.07,2.57,15.83,4.5,30.85,1.67,13.03,4.45,40.24,4.45,40.24,5.76,3.32,9.78,1.81,9.78,1.81,0,0,5.71-36.46,4.44-47.76Z"/>
          </g>
          <polygon class="cls-22" points="456.09 156.63 457.7 173.71 472.7 172.76 471.5 153.82 456.09 156.63"/>
          <path class="cls-10" d="m486.18,171.28c-1.52-4.52-4.63-7.17-11.5-7.24l-2.53.08c-.48,2.52-7.87,4.56-15.17,1.98-1.03.27-3.85.79-5.44,1l-3.49.51c-5.32,1.74-7.66,10.97-8.18,25.61-.51,14.63-2.7,45.94-2.7,45.94,0,0,11.43,6.13,29.47,3.75,16.14-2.12,22.43-11.67,21.87-10.45,0,0-2.46-11.61-8.34-23.45,8.5-20.89,8.27-31.01,6.01-37.72Z"/>
          <path class="cls-7" d="m457.7,243.44c2.76.03,5.74-.12,8.94-.54,14.72-1.93,21.24-10.04,21.85-10.53-.22-.99-2.72-12.07-8.32-23.37,4.3-10.55,6.36-18.36,7.06-24.36-.7,4.38-7.17,21.34-15.64,26.43,0,0,4.78.74,8.87,6.36,4.08,5.6.73,24.82-22.76,26.02Z"/>
          <path class="cls-22" d="m451.54,167.09c-7.04.89-13.12,2.15-15.69,9.07-4.71,12.7-11.21,21.12-15.31,25.52-4.38,4.69-22.36,13.67-26.41,13.02-4.05-.66-7.7-6.44-9.79-5.23-2.09,1.2,2.48,5.32,2.23,6.33-.25,1.02-7.55-1.1-11.03-3.55-3.47-2.45-5.5,4.59-1.02,9.85,4.49,5.26,12.92,5.67,22.08,3.83,9.16-1.84,25.91-7.26,32.55-13.47,8.72-8.15,10.31-12.58,14.09-19.59,12.08-9.38,8.28-25.77,8.28-25.77Z"/>
          <g>
            <path class="cls-21" d="m448.24,135.42s-5.67-6.75-1.22-13.33c5.24-7.75,14.46-10.38,25.86-6.99,5.65,1.68,13.93,9.48,14.35,20.41.32,8.43-23.32,14.01-22.94,19.79l-16.05-19.87Z"/>
            <path class="cls-11" d="m444.96,137.89s-3.32,5.02-2.89,5.55c.43.53,2.54,1.1,2.54,1.1l.34-6.65Z"/>
            <path class="cls-22" d="m455.11,121.98c-3.23,1.67-8.81,4.75-10.25,16.65-1.47,12.21,1.25,16.45,2.91,18.06,1.12,1.08,6.92,1.47,9.95.53,3.78-1.18,11.98-5.23,15.83-11.53,4.52-7.42,5.46-17.3.24-21.17-7.34-5.45-15.94-3.95-18.67-2.53Z"/>
            <path class="cls-21" d="m454.16,122.49s-2.81,11.14.56,18.18c0,0,1.97-4.35,5.71-3.1,3.76,1.26,3.42,6.27.46,8.84-2.96,2.56-5.83,1.24-5.83,1.24,0,0,.1,6.16,5.37,8.6,0,0,11.02,5.27,20.97-5.37,9.03-9.66,7.87-26.95-5.45-31.39-13.31-4.43-21.79,3-21.79,3Z"/>
            <path class="cls-21" d="m498.94,169.47h0c-8.8,0-15.93-7.13-15.93-15.93v-20.48h0c8.8,0,15.93,7.13,15.93,15.93v20.48Z"/>
            <path class="cls-21" d="m445.58,117.48c-4.96,5.05-5.24,19.61,9.13,23.19l9.4-25.79c-5.48-3.56-14.11-1.9-18.53,2.6Z"/>
            <path class="cls-21" d="m453.27,144.66c-1.48-.53-2.24-2.16-1.71-3.64.53-1.48,2.16-2.24,3.64-1.71l-1.93,5.34Z"/>
          </g>
        </g>
        <path class="cls-18" d="m462.77,271.01l2.39-15.29s6.48-.45,13.57-4.72c0,0-2.98,4.51-10.89,6.38l-2.44,17.71-.98,18.55-1.65-22.64Z"/>
      </g>
    </g>
  </g>
</svg>