<?xml version="1.0" encoding="UTF-8"?>
<svg xmlns="http://www.w3.org/2000/svg" viewBox="0 0 549.63 537.25">
  <defs>
    <style>
      .cls-1, .cls-2 {
        opacity: .7;
      }

      .cls-3, .cls-4, .cls-5, .cls-6, .cls-7, .cls-8, .cls-2, .cls-9, .cls-10 {
        fill: #fff;
      }

      .cls-4, .cls-11 {
        opacity: .4;
      }

      .cls-12 {
        fill: #f5f5f5;
      }

      .cls-5, .cls-13 {
        opacity: .3;
      }

      .cls-14 {
        stroke-width: 3px;
      }

      .cls-14, .cls-15 {
        fill: none;
        stroke: #263238;
        stroke-miterlimit: 10;
      }

      .cls-15 {
        stroke-width: 2px;
      }

      .cls-16, .cls-9 {
        opacity: .2;
      }

      .cls-6, .cls-17 {
        opacity: .1;
      }

      .cls-7 {
        opacity: .5;
      }

      .cls-18 {
        fill: #e0e0e0;
      }

      .cls-8 {
        opacity: .8;
      }

      .cls-19 {
        fill: #ebebeb;
      }

      .cls-20 {
        fill: #407bff;
      }

      .cls-21 {
        fill: #fab27b;
      }

      .cls-22 {
        fill: #fffae3;
      }

      .cls-23 {
        fill: #ed893e;
      }

      .cls-10 {
        opacity: .6;
      }

      .cls-24 {
        fill: #263238;
      }
    </style>
  </defs>
  <g id="Background_Complete" data-name="Background Complete">
    <rect class="cls-22" width="549.63" height="537.25"/>
    <g>
      <path class="cls-14" d="m281.81,285.97c0,2.38-1.93,4.32-4.32,4.32s-4.32-1.93-4.32-4.32,1.93-4.32,4.32-4.32,4.32,1.93,4.32,4.32Z"/>
      <line class="cls-14" x1="280.46" y1="289.09" x2="287.35" y2="295.99"/>
    </g>
    <g>
      <g>
        <circle class="cls-18" cx="438.3" cy="115.04" r="29.98" transform="translate(254.54 529.26) rotate(-80.78)"/>
        <g>
          <path class="cls-3" d="m438.39,145.69c-16.9,0-30.66-13.75-30.66-30.66s13.75-30.66,30.66-30.66v1.35c-16.16,0-29.31,13.15-29.31,29.31s13.15,29.31,29.31,29.31v1.35Z"/>
          <g>
            <path class="cls-3" d="m438.39,145.69v-1.35c16.16,0,29.31-13.15,29.31-29.31s-13.15-29.31-29.31-29.31v-1.35c16.9,0,30.66,13.75,30.66,30.66s-13.75,30.66-30.66,30.66Z"/>
            <g>
              <path class="cls-3" d="m454.05,115.04h-1.35c0-9.94-5.04-23.23-14.68-29.41l.73-1.14c10.05,6.45,15.3,20.25,15.3,30.55Z"/>
              <path class="cls-3" d="m438.75,144.68l-.73-1.14c9.64-6.18,14.68-19.48,14.68-29.41h1.35c0,10.3-5.26,24.1-15.3,30.55Z"/>
            </g>
            <g>
              <path class="cls-3" d="m424.07,115.04h-1.35c0-10.3,5.26-24.1,15.3-30.55l.73,1.14c-9.64,6.18-14.68,19.48-14.68,29.41Z"/>
              <path class="cls-3" d="m438.02,144.67c-10.04-6.45-15.3-20.25-15.3-30.55h1.35c0,9.94,5.04,23.23,14.68,29.41l-.73,1.14Z"/>
            </g>
            <rect class="cls-3" x="437.71" y="85.06" width="1.35" height="59.96"/>
          </g>
          <g>
            <rect class="cls-3" x="413.01" y="98.39" width="50.76" height="1.35"/>
            <rect class="cls-3" x="408.42" y="114.87" width="59.94" height="1.35"/>
            <rect class="cls-3" x="413.68" y="131.34" width="49.41" height="1.35"/>
          </g>
        </g>
      </g>
      <g>
        <path class="cls-18" d="m117.88,103.97c0-2.07-.3-4.07-.88-5.95l5.22-4.59-3.29-5.69-6.59,2.23c-2.73-2.91-6.29-5.02-10.31-5.96l-1.37-6.82h-6.57l-1.36,6.82c-4.02.93-7.59,3.05-10.31,5.96l-6.59-2.23-3.29,5.69,5.22,4.59c-.57,1.88-.88,3.88-.88,5.95s.31,4.07.88,5.96l-5.22,4.59,3.29,5.69,6.59-2.23c2.73,2.91,6.29,5.02,10.31,5.96l1.36,6.82h6.57l1.37-6.82c4.02-.94,7.58-3.05,10.31-5.96l6.59,2.23,3.29-5.69-5.22-4.59c.58-1.89.88-3.88.88-5.96Zm-20.5,11.07c-5.88,0-10.65-4.77-10.65-10.65s4.77-10.65,10.65-10.65,10.65,4.77,10.65,10.65-4.77,10.65-10.65,10.65Z"/>
        <path class="cls-18" d="m146.07,132.31c0-1.58-.23-3.1-.67-4.53l3.98-3.5-2.5-4.34-5.02,1.7c-2.08-2.22-4.79-3.82-7.85-4.54l-1.04-5.19h-5.01l-1.04,5.19c-3.06.71-5.78,2.32-7.85,4.54l-5.02-1.7-2.5,4.34,3.98,3.5c-.43,1.43-.67,2.96-.67,4.53s.24,3.1.67,4.54l-3.98,3.49,2.5,4.34,5.02-1.7c2.08,2.22,4.79,3.82,7.85,4.54l1.04,5.19h5.01l1.04-5.19c3.06-.71,5.77-2.32,7.85-4.54l5.02,1.7,2.5-4.34-3.98-3.49c.44-1.44.67-2.96.67-4.54Zm-15.61,8.43c-4.48,0-8.11-3.63-8.11-8.11s3.63-8.11,8.11-8.11,8.11,3.63,8.11,8.11-3.63,8.11-8.11,8.11Z"/>
      </g>
      <g>
        <polygon class="cls-19" points="220.9 106.52 223.55 101.14 226.21 106.51 232.14 107.37 227.85 111.56 228.87 117.47 223.56 114.68 218.25 117.48 219.26 111.57 214.96 107.38 220.9 106.52"/>
        <polygon class="cls-19" points="245.06 106.52 247.71 101.14 250.37 106.51 256.31 107.37 252.02 111.56 253.04 117.47 247.73 114.68 242.42 117.48 243.43 111.57 239.13 107.38 245.06 106.52"/>
        <polygon class="cls-19" points="269.23 106.52 271.88 101.14 274.54 106.51 280.47 107.37 276.18 111.56 277.2 117.47 271.89 114.68 266.59 117.48 267.59 111.57 263.3 107.38 269.23 106.52"/>
        <polygon class="cls-19" points="293.4 106.52 296.05 101.14 298.71 106.51 304.64 107.37 300.35 111.56 301.37 117.47 296.06 114.68 290.75 117.48 291.76 111.57 287.46 107.38 293.4 106.52"/>
        <polygon class="cls-19" points="317.56 106.52 320.21 101.14 322.87 106.51 328.81 107.37 324.52 111.56 325.54 117.47 320.22 114.68 314.92 117.48 315.93 111.57 311.63 107.38 317.56 106.52"/>
      </g>
    </g>
  </g>
  <g id="Shadow">
    <ellipse id="_Path_" data-name="&amp;lt;Path&amp;gt;" class="cls-12" cx="267.46" cy="423.35" rx="193.89" ry="11.32"/>
  </g>
  <g id="Device">
    <g>
      <g>
        <g>
          <g>
            <path class="cls-24" d="m201.95,413.39l-.2,2.3c-.03.29,0,.58.09.84h0c.04.13.09.25.16.36s.15.22.24.32c.08.1.18.19.3.27.32.23.72.37,1.17.37h82.39c.2,0,.39-.03.59-.09.13-.04.25-.09.38-.16.29-.15.55-.37.75-.63.08-.1.15-.22.21-.34.12-.24.2-.5.22-.78l.19-2.21c.02-.28,0-.54-.09-.78-.04-.12-.09-.23-.15-.34-.16-.26-.38-.48-.64-.63-.12-.06-.22-.11-.35-.16-.18-.06-.37-.09-.57-.09h-20.49c-.27,0-.52-.03-.76-.08h0c-.1-.03-.2-.04-.3-.08-.02,0-.03,0-.04-.02,0,0-.02,0-.02,0-.11-.03-.21-.07-.32-.12-.1-.03-.2-.09-.29-.15-.14-.07-.28-.16-.4-.26-.15-.12-.31-.26-.43-.41-.07-.09-.15-.17-.21-.27-.05-.07-.1-.14-.15-.21-.01-.03-.03-.05-.04-.08,0,0,0,0,0-.02-.06-.09-.1-.19-.15-.29-.04-.09-.08-.17-.11-.27,0-.02-.01-.04-.02-.06,0-.03-.01-.05-.02-.07,0-.02-.01-.03-.01-.04-.03-.08-.05-.16-.06-.23-.02-.11-.05-.22-.06-.35,0,0,0-.02,0-.03,0-.1-.02-.22-.02-.32,0-.11,0-.22.01-.32v-.08c0-.1.03-.22.04-.32.02-.11.04-.22.07-.33h0s8.06-30.93,8.06-30.93l1.55-5.93,1.21-4.65h-46.8l-2.51,4.65-3.2,5.93-18.2,33.75c-.06.12-.12.23-.19.35,0,.02,0,.03-.01.03-.06.14-.12.27-.18.41-.06.14-.11.28-.16.42-.03.09-.07.18-.09.28-.19.59-.31,1.19-.37,1.8Z"/>
            <path class="cls-9" d="m288.45,413.65l-.19,2.22c-.1,1.1-1.05,1.98-2.15,1.98h-82.38c-1.19,0-2.08-.97-1.97-2.15l.2-2.3c.05-.61.17-1.21.36-1.81.17-.51.38-1.02.63-1.5l23.92-44.33h46.8l-10.82,41.51c-.07.25-.11.49-.12.73-.12,1.74,1.01,3.24,2.66,3.58.25.06.5.08.77.08h20.49c1.1,0,1.9.89,1.81,1.98Z"/>
            <path class="cls-24" d="m200.3,410.09l23.91-44.33h2.65l-23.91,44.33c-.56,1.04-.9,2.16-1,3.3l-.2,2.3c-.1,1.19.78,2.15,1.97,2.15h-2.65c-1.19,0-2.07-.96-1.97-2.15l.2-2.3c.1-1.14.44-2.27,1-3.3Z"/>
            <polygon class="cls-13" points="226.86 365.76 273.66 365.76 270.9 376.35 221.15 376.35 226.86 365.76"/>
          </g>
          <g>
            <g>
              <path class="cls-24" d="m147.47,218.84v128.67s0,15.6,0,15.6c0,4.03,3.26,7.31,7.3,7.31h199.65c4.02,0,7.3-3.27,7.3-7.31v-15.6s0-128.67,0-128.67c0-4.03-3.26-7.3-7.3-7.3h-199.64c-1.67,0-3.21.56-4.44,1.5-.18.14-.35.28-.5.43-.49.45-.92.96-1.26,1.53-.24.37-.44.77-.6,1.19-.32.82-.49,1.71-.5,2.64Z"/>
              <path class="cls-20" d="m361.72,347.51v15.6c0,4.03-3.27,7.3-7.3,7.3h-199.65c-4.03,0-7.3-3.27-7.3-7.3v-15.6h214.25Z"/>
              <path class="cls-10" d="m361.72,347.51v15.6c0,4.03-3.27,7.3-7.3,7.3h-199.65c-4.03,0-7.3-3.27-7.3-7.3v-15.6h214.25Z"/>
            </g>
            <path class="cls-20" d="m154.9,343.1h199.38c2.19,0,3.96-1.77,3.96-3.96v-119.24c0-2.19-1.77-3.96-3.96-3.96h-199.38c-2.19,0-3.96,1.77-3.96,3.96v119.24c0,2.19,1.77,3.96,3.96,3.96Z"/>
            <path class="cls-24" d="m150.36,211.55h4.41c-4.03,0-7.3,3.27-7.3,7.3v144.27c0,4.03,3.27,7.3,7.3,7.3h-4.41c-4.03,0-7.3-3.27-7.3-7.3v-144.27c0-4.03,3.27-7.3,7.3-7.3Z"/>
            <g class="cls-16">
              <path class="cls-3" d="m150.36,211.55h4.41c-4.03,0-7.3,3.27-7.3,7.3v144.27c0,4.03,3.27,7.3,7.3,7.3h-4.41c-4.03,0-7.3-3.27-7.3-7.3v-144.27c0-4.03,3.27-7.3,7.3-7.3Z"/>
            </g>
            <path class="cls-7" d="m359.46,291.88c-5.13-.99-13.28,2.33-14.8,7.33.38-3.04-1.2-6.23-3.85-7.76s-6.11-2.62-8.55-.77c2.44-9.76-1.24-20.79-9.06-27.12-7.82-6.33-19.23-7.02-28.26-2.59,2.69-5.09,2.91-11.41.59-16.67-2.33-5.26-6.49-8.84-11.92-10.74-12.5-4.37-26.06-5.65-39.15-3.71-7.61,1.13-15.37,3.5-20.9,8.85s-6.97,14.97-3.29,21.72c-8.51-2.88-18.58-.5-24.89,5.9-6.32,6.39-8.41,16.34-5.43,24.82-2.34-1.42-5.41-1.53-7.85-.29-2.44,1.24-4.13,3.7-4.36,6.43-3.18-4.19-8.47-6.71-13.73-6.53-5.26.18-10.37,3.05-13.25,7.45v44.9h207.5l1.22-51.22Z"/>
            <rect class="cls-3" x="196.44" y="272.17" width="126.62" height="19.7" rx="9.85" ry="9.85"/>
            <g>
              <path class="cls-14" d="m210.01,279.97c0,2.38-1.93,4.32-4.32,4.32s-4.32-1.93-4.32-4.32,1.93-4.32,4.32-4.32,4.32,1.93,4.32,4.32Z"/>
              <line class="cls-14" x1="208.66" y1="283.09" x2="215.55" y2="289.99"/>
            </g>
            <g class="cls-17">
              <polygon class="cls-3" points="290.75 215.95 298.42 215.95 314.32 343.1 306.65 343.1 290.75 215.95"/>
              <polygon class="cls-3" points="322.07 343.1 306.17 215.95 334.99 215.95 350.89 343.1 322.07 343.1"/>
            </g>
          </g>
        </g>
        <path class="cls-9" d="m216.16,413.66l-.18,2.11c-.1,1.15.75,2.08,1.89,2.08h68.23c1.1,0,2.06-.89,2.16-1.98l.19-2.21c.1-1.1-.71-1.98-1.81-1.98h-20.49c-.27,0-.52-.03-.76-.08h-46.97c-1.15,0-2.16.93-2.26,2.08Z"/>
        <path class="cls-16" d="m202.31,411.59h63.07c-1.66-.34-2.78-1.84-2.67-3.58h-58.49l-1.92,3.58Z"/>
      </g>
      <g>
        <path class="cls-24" d="m234.55,260.35l1.38-3.07c1.48,1.08,3.69,1.83,5.81,1.83,2.41,0,3.39-.8,3.39-1.88,0-3.29-10.23-1.03-10.23-7.56,0-2.99,2.41-5.48,7.41-5.48,2.21,0,4.47.53,6.11,1.56l-1.26,3.09c-1.63-.93-3.32-1.38-4.88-1.38-2.41,0-3.34.9-3.34,2.01,0,3.24,10.23,1.01,10.23,7.46,0,2.94-2.44,5.45-7.46,5.45-2.79,0-5.6-.83-7.16-2.04Z"/>
        <path class="cls-24" d="m265.59,258.82v3.27h-13.62v-17.59h13.29v3.27h-9.25v3.82h8.17v3.17h-8.17v4.07h9.58Z"/>
        <path class="cls-24" d="m267.68,253.29c0-5.23,4.07-9.1,9.63-9.1s9.62,3.84,9.62,9.1-4.1,9.1-9.62,9.1-9.63-3.87-9.63-9.1Zm15.13,0c0-3.34-2.36-5.63-5.5-5.63s-5.5,2.29-5.5,5.63,2.36,5.63,5.5,5.63,5.5-2.29,5.5-5.63Z"/>
      </g>
      <g>
        <rect class="cls-8" x="208.46" y="304.8" width="49.9" height="16.62" rx="3.85" ry="3.85"/>
        <rect class="cls-8" x="269.65" y="304.8" width="49.9" height="16.62" rx="3.85" ry="3.85"/>
      </g>
      <g>
        <g>
          <path class="cls-20" d="m232.21,221.62l24.79-44.05c.38-.68,1.36-.68,1.74,0l24.79,44.05c.37.67-.11,1.49-.87,1.49h-49.57c-.76,0-1.25-.82-.87-1.49Z"/>
          <path class="cls-13" d="m232.21,221.62l24.79-44.05c.38-.68,1.36-.68,1.74,0l24.79,44.05c.37.67-.11,1.49-.87,1.49h-49.57c-.76,0-1.25-.82-.87-1.49Z"/>
        </g>
        <g>
          <g>
            <g>
              <path class="cls-24" d="m246.08,229.69l-1.2-4.94h-4.34l-1.2,4.94c2.08.86,4.5.93,6.75,0Z"/>
              <path class="cls-9" d="m240.54,224.75s-.18.74-.28,1.16c1.56.45,3.26.48,4.9,0l-.28-1.16h-4.34Z"/>
              <path class="cls-4" d="m239.95,227.15c-.08.31-.15.63-.23.93,1.89.59,3.96.62,5.96,0l-.23-.93c-1.85.37-3.72.35-5.51,0Z"/>
            </g>
            <g>
              <path class="cls-20" d="m247.29,224.4c-3.05,1.27-6.33,1.17-9.16,0v-36.7c0-4.32,1.75-8.23,4.58-11.06,2.83,2.83,4.58,6.74,4.58,11.06v36.7Z"/>
              <g>
                <path class="cls-20" d="m238.13,187.7v34.59c2.88,1,6.1,1.06,9.16,0v-34.59c0-4.32-1.75-8.23-4.58-11.06-2.83,2.83-4.58,6.74-4.58,11.06Z"/>
                <path class="cls-4" d="m238.13,187.7v34.59c2.88,1,6.1,1.06,9.16,0v-34.59c0-4.32-1.75-8.23-4.58-11.06-2.83,2.83-4.58,6.74-4.58,11.06Z"/>
              </g>
              <g>
                <path class="cls-20" d="m238.13,187.7v25.98c2.92.83,6.09.88,9.16,0v-25.98c0-4.32-1.75-8.23-4.58-11.06-2.83,2.83-4.58,6.74-4.58,11.06Z"/>
                <path class="cls-10" d="m238.13,187.7v25.98c2.92.83,6.09.88,9.16,0v-25.98c0-4.32-1.75-8.23-4.58-11.06-2.83,2.83-4.58,6.74-4.58,11.06Z"/>
              </g>
              <g>
                <path class="cls-20" d="m238.13,187.7v13.6c2.92.83,6.09.88,9.16,0v-13.61c0-4.32-1.75-8.23-4.58-11.06-2.83,2.83-4.58,6.74-4.58,11.06Z"/>
                <path class="cls-8" d="m238.13,187.7v13.6c2.92.83,6.09.88,9.16,0v-13.61c0-4.32-1.75-8.23-4.58-11.06-2.83,2.83-4.58,6.74-4.58,11.06Z"/>
              </g>
              <g>
                <path class="cls-20" d="m238.13,187.7v1.59c2.92.83,6.09.88,9.16,0v-1.59c0-4.32-1.75-8.23-4.58-11.06-2.83,2.83-4.58,6.74-4.58,11.06Z"/>
                <path class="cls-4" d="m238.13,187.7v1.59c2.92.83,6.09.88,9.16,0v-1.59c0-4.32-1.75-8.23-4.58-11.06-2.83,2.83-4.58,6.74-4.58,11.06Z"/>
              </g>
            </g>
          </g>
          <g>
            <g>
              <path class="cls-24" d="m275.56,229.69l-1.2-4.94h-4.34l-1.2,4.94c2.08.86,4.5.93,6.75,0Z"/>
              <path class="cls-9" d="m270.01,224.75s-.18.74-.28,1.16c1.56.45,3.26.48,4.9,0l-.28-1.16h-4.34Z"/>
              <path class="cls-4" d="m269.43,227.15c-.08.31-.15.63-.23.93,1.89.59,3.96.62,5.96,0l-.23-.93c-1.85.37-3.72.35-5.51,0Z"/>
            </g>
            <g>
              <path class="cls-20" d="m276.77,224.4c-3.05,1.27-6.33,1.17-9.16,0v-36.7c0-4.32,1.75-8.23,4.58-11.06,2.83,2.83,4.58,6.74,4.58,11.06v36.7Z"/>
              <g>
                <path class="cls-20" d="m267.6,187.7v34.59c2.88,1,6.1,1.06,9.16,0v-34.59c0-4.32-1.75-8.23-4.58-11.06-2.83,2.83-4.58,6.74-4.58,11.06Z"/>
                <path class="cls-4" d="m267.6,187.7v34.59c2.88,1,6.1,1.06,9.16,0v-34.59c0-4.32-1.75-8.23-4.58-11.06-2.83,2.83-4.58,6.74-4.58,11.06Z"/>
              </g>
              <g>
                <path class="cls-20" d="m267.6,187.7v25.98c2.92.83,6.09.88,9.16,0v-25.98c0-4.32-1.75-8.23-4.58-11.06-2.83,2.83-4.58,6.74-4.58,11.06Z"/>
                <path class="cls-10" d="m267.6,187.7v25.98c2.92.83,6.09.88,9.16,0v-25.98c0-4.32-1.75-8.23-4.58-11.06-2.83,2.83-4.58,6.74-4.58,11.06Z"/>
              </g>
              <g>
                <path class="cls-20" d="m267.6,187.7v13.6c2.92.83,6.09.88,9.16,0v-13.61c0-4.32-1.75-8.23-4.58-11.06-2.83,2.83-4.58,6.74-4.58,11.06Z"/>
                <path class="cls-8" d="m267.6,187.7v13.6c2.92.83,6.09.88,9.16,0v-13.61c0-4.32-1.75-8.23-4.58-11.06-2.83,2.83-4.58,6.74-4.58,11.06Z"/>
              </g>
              <g>
                <path class="cls-20" d="m267.6,187.7v1.59c2.92.83,6.09.88,9.16,0v-1.59c0-4.32-1.75-8.23-4.58-11.06-2.83,2.83-4.58,6.74-4.58,11.06Z"/>
                <path class="cls-4" d="m267.6,187.7v1.59c2.92.83,6.09.88,9.16,0v-1.59c0-4.32-1.75-8.23-4.58-11.06-2.83,2.83-4.58,6.74-4.58,11.06Z"/>
              </g>
            </g>
          </g>
        </g>
        <g>
          <g>
            <path class="cls-24" d="m262.89,232.53l-1.94-7.98h-7l-1.94,7.98c3.36,1.39,7.26,1.5,10.89,0Z"/>
            <path class="cls-9" d="m253.94,224.55s-.29,1.2-.45,1.87c2.52.73,5.26.77,7.91,0l-.46-1.87h-7Z"/>
            <path class="cls-4" d="m253,228.42c-.12.51-.25,1.02-.37,1.5,3.05.94,6.4,1,9.62,0l-.37-1.5c-2.99.59-6,.57-8.89,0Z"/>
          </g>
          <g>
            <path class="cls-20" d="m264.84,223.99c-4.93,2.04-10.22,1.89-14.79,0v-59.24c0-6.97,2.83-13.29,7.4-17.86,4.57,4.57,7.4,10.88,7.4,17.86v59.24Z"/>
            <g>
              <path class="cls-20" d="m250.05,164.75v55.84c4.65,1.61,9.84,1.72,14.79,0v-55.85c0-6.97-2.83-13.29-7.4-17.86-4.57,4.57-7.4,10.88-7.4,17.86Z"/>
              <path class="cls-4" d="m250.05,164.75v55.84c4.65,1.61,9.84,1.72,14.79,0v-55.85c0-6.97-2.83-13.29-7.4-17.86-4.57,4.57-7.4,10.88-7.4,17.86Z"/>
            </g>
            <g>
              <path class="cls-20" d="m250.05,164.75v41.94c4.72,1.35,9.83,1.42,14.79,0v-41.94c0-6.97-2.83-13.29-7.4-17.86-4.57,4.57-7.4,10.88-7.4,17.86Z"/>
              <path class="cls-10" d="m250.05,164.75v41.94c4.72,1.35,9.83,1.42,14.79,0v-41.94c0-6.97-2.83-13.29-7.4-17.86-4.57,4.57-7.4,10.88-7.4,17.86Z"/>
            </g>
            <g>
              <path class="cls-20" d="m250.05,164.75v21.96c4.72,1.35,9.83,1.42,14.79,0v-21.96c0-6.97-2.83-13.29-7.4-17.86-4.57,4.57-7.4,10.88-7.4,17.86Z"/>
              <path class="cls-8" d="m250.05,164.75v21.96c4.72,1.35,9.83,1.42,14.79,0v-21.96c0-6.97-2.83-13.29-7.4-17.86-4.57,4.57-7.4,10.88-7.4,17.86Z"/>
            </g>
            <g>
              <path class="cls-20" d="m250.05,164.75v2.56c4.72,1.35,9.83,1.42,14.79,0v-2.56c0-6.97-2.83-13.29-7.4-17.86-4.57,4.57-7.4,10.88-7.4,17.86Z"/>
              <path class="cls-6" d="m250.05,164.75v2.56c4.72,1.35,9.83,1.42,14.79,0v-2.56c0-6.97-2.83-13.29-7.4-17.86-4.57,4.57-7.4,10.88-7.4,17.86Z"/>
            </g>
          </g>
          <g>
            <path class="cls-20" d="m261.75,176.6c0,2.38-1.93,4.31-4.31,4.31s-4.31-1.93-4.31-4.31,1.93-4.31,4.31-4.31,4.31,1.93,4.31,4.31Z"/>
            <g>
              <path class="cls-20" d="m257.45,180.9c-2.27,0-4.12-1.76-4.29-3.98,0,.11-.02.22-.02.33,0,2.38,1.93,4.31,4.31,4.31s4.31-1.93,4.31-4.31c0-.11,0-.22-.02-.33-.17,2.23-2.02,3.98-4.29,3.98Z"/>
              <path class="cls-13" d="m257.45,180.9c-2.27,0-4.12-1.76-4.29-3.98,0,.11-.02.22-.02.33,0,2.38,1.93,4.31,4.31,4.31s4.31-1.93,4.31-4.31c0-.11,0-.22-.02-.33-.17,2.23-2.02,3.98-4.29,3.98Z"/>
            </g>
            <circle class="cls-3" cx="257.45" cy="176.6" r="3.05"/>
            <g>
              <g>
                <path class="cls-20" d="m257.29,179.63l1.25-5.87c-.32-.12-.66-.19-1.01-.2l-1.24,5.85c.31.13.65.2,1.01.22Z"/>
                <path class="cls-20" d="m258.42,179.47l1.08-5.1c-.14-.13-.29-.25-.45-.35l-1.19,5.58c.19-.03.38-.07.56-.13Z"/>
              </g>
              <g class="cls-1">
                <path class="cls-3" d="m257.29,179.63l1.25-5.87c-.32-.12-.66-.19-1.01-.2l-1.24,5.85c.31.13.65.2,1.01.22Z"/>
                <path class="cls-3" d="m258.42,179.47l1.08-5.1c-.14-.13-.29-.25-.45-.35l-1.19,5.58c.19-.03.38-.07.56-.13Z"/>
              </g>
            </g>
          </g>
        </g>
      </g>
    </g>
  </g>
  <g id="Character">
    <g>
      <g>
        <g>
          <g>
            <path class="cls-21" d="m367.86,292.22l-1.15.25c-1.05.22-1.83,1.08-1.97,2.15l-.1.81c-.1.82.2,1.65.82,2.19,1.89,1.65,6.35,4.71,11.75,2.74l4.31-3.24-.71-5.82-8.96-1.3c-.54.02-1.07.22-1.49.56l-2.5,1.68Z"/>
            <polygon class="cls-21" points="381.52 297.1 393.48 296.5 391.63 289.99 380.81 291.28 381.52 297.1"/>
          </g>
          <path class="cls-20" d="m388.65,290.04c-.41.78-.7,1.81-.49,3.04.2,1.15.68,3.17,1.94,4.55h0c-2.02.02-4.01.51-5.81,1.43l-.1.05c-6.24-4.27-2.64-9.32-2.64-9.32l.41.06c2.22.29,4.46.36,6.68.19Z"/>
          <path class="cls-20" d="m413.15,295.41c-11.12,2.56-24.95,2.31-24.95,2.31-.49-.83-.64-1.7-.59-2.55.11-1.87.35-4.19,1.03-5.14.73-1.01,5.46-1.44,5.46-1.44,0,0,9.28-4.31,11.04-5.72,1.74-1.4,1.69-7.98,1.36-12.33-1.77-23.27,2.32-25.02,6.04-26.06,7.71-2.17,10.44,48.66.6,50.93Z"/>
        </g>
        <g>
          <g>
            <path class="cls-20" d="m336.97,300.4h31.08c1.01,0,1.47-.82,1.02-1.83l-7.8-17.53c-.45-1.01-1.64-1.83-2.65-1.83h-31.08c-1.01,0-1.47.82-1.02,1.83l7.8,17.53c.45,1.01,1.64,1.83,2.65,1.83Z"/>
            <path class="cls-16" d="m336.97,300.4h31.08c1.01,0,1.47-.82,1.02-1.83l-7.8-17.53c-.45-1.01-1.64-1.83-2.65-1.83h-31.08c-1.01,0-1.47.82-1.02,1.83l7.8,17.53c.45,1.01,1.64,1.83,2.65,1.83Z"/>
            <path class="cls-20" d="m326.2,279.21h1.34c-1.01,0-1.47.82-1.02,1.83l7.8,17.53c.45,1.01,1.64,1.83,2.65,1.83h-1.34c-1.01,0-2.2-.82-2.65-1.83l-7.8-17.53c-.45-1.01,0-1.83,1.02-1.83Z"/>
            <path class="cls-11" d="m326.2,279.21h1.34c-1.01,0-1.47.82-1.02,1.83l7.8,17.53c.45,1.01,1.64,1.83,2.65,1.83h-1.34c-1.01,0-2.2-.82-2.65-1.83l-7.8-17.53c-.45-1.01,0-1.83,1.02-1.83Z"/>
          </g>
          <g>
            <polygon class="cls-24" points="337.55 298.39 365.68 298.39 358.04 281.22 329.91 281.22 337.55 298.39"/>
            <polygon class="cls-8" points="337.55 298.39 365.68 298.39 358.04 281.22 329.91 281.22 337.55 298.39"/>
          </g>
        </g>
        <g>
          <path class="cls-24" d="m430.11,299.04s.77,10.25.89,13.86c.74,24.05-18.89,25.88-33.33,23.23l-52.29-14.62c-2.08,6.95-26.25,45.22-26.25,45.22l-12.71-7.3s13.18-31.6,21.68-53.58c4.86-12.55,44.39-3.87,58.94-1.29,4.43,1.19,3.57-5.72,3.57-5.72l39.5.2Z"/>
          <polygon class="cls-21" points="315.87 366.01 311.02 374.1 301.96 369.59 306.67 360.38 315.87 366.01"/>
          <g>
            <path class="cls-20" d="m297.15,367.93c-1.19-.55-2.33-1.33-2.49-2.02-.07-.39.12-.79.47-.98.28-.19.63-.26.96-.2,1.81.29,4.28,3.74,4.39,3.89.06.09.06.2,0,.29-.06.08-.17.12-.27.1-1.05-.27-2.08-.63-3.06-1.07Zm-.67-2.57c-.15-.07-.3-.12-.46-.14-.2-.05-.42-.01-.59.11-.3.21-.3.37-.27.48.16.83,2.58,1.95,4.47,2.55-.85-1.19-1.91-2.21-3.14-3Z"/>
            <path class="cls-20" d="m300.18,368.98s-.07-.02-.09-.05c-.92-1.03-2.27-4.18-1.57-5.16.14-.25.48-.48,1.14-.25.48.16.87.51,1.09.97.76,1.57-.17,4.27-.21,4.4-.03.09-.11.15-.2.16-.06,0-.12-.02-.16-.06Zm-.57-4.97l-.12-.07c-.43-.15-.53,0-.57.05-.36.62.41,2.95,1.28,4.2.38-1.14.41-2.37.07-3.53-.13-.29-.37-.52-.66-.65h0Z"/>
            <path class="cls-24" d="m301.81,368.11l10.49,4.8c.4.18.61.61.52,1.04l-2.01,9.4c-.17.84-.99,1.37-1.82,1.2-.11-.02-.21-.06-.31-.1-3.75-1.8-7.02-3.54-11.73-5.69-5.56-2.54-4.45-1.23-11.02-4.12-3.96-1.75-2.63-6.55-.86-6.01,8.08,2.53,9.92.59,14.12-.8.88-.23,1.82-.13,2.63.28Z"/>
          </g>
          <polygon class="cls-16" points="313.41 370.12 315.87 366.01 306.67 360.38 304.4 364.83 313.41 370.12"/>
          <path class="cls-20" d="m321.13,365.96l-15.76-9.83s-2.54,1.4-1.98,4.13l15.14,9.67s2.04-.09,2.6-3.97Z"/>
        </g>
        <g>
          <polygon class="cls-21" points="342.69 406.25 340.79 415.22 331.05 413.94 332.46 403.99 342.69 406.25"/>
          <g>
            <path class="cls-20" d="m326.09,413.94c-1.27-.12-2.56-.49-2.93-1.07-.19-.34-.14-.76.12-1.05.2-.26.49-.44.82-.49,1.75-.3,5.12,2.08,5.27,2.19.08.06.12.16.09.26-.03.1-.11.17-.22.18-1.05.09-2.11.08-3.16-.02Zm-1.43-2.15c-.16-.02-.31-.01-.47.01-.21.01-.39.12-.51.29-.21.28-.16.44-.1.52.41.71,2.98.98,4.91.93-1.15-.82-2.46-1.42-3.83-1.76Z"/>
            <path class="cls-20" d="m329.21,413.95s-.07,0-.1-.02c-1.17-.66-3.41-3.12-3.08-4.25.05-.28.29-.59.97-.59.49,0,.96.19,1.31.55,1.2,1.2,1.2,3.98,1.2,4.11,0,.09-.05.17-.13.21-.05.02-.11.02-.17,0Zm-2.09-4.38l-.14-.03c-.44,0-.48.17-.51.23-.13.69,1.31,2.58,2.5,3.45,0-1.17-.37-2.31-1.05-3.27-.21-.22-.5-.36-.81-.39h0Z"/>
            <path class="cls-24" d="m330.43,412.63l11.16,1.09c.42.04.76.37.81.79l1.13,9.27c.11.82-.47,1.57-1.3,1.68-.11.01-.21.02-.32,0-4.01-.46-7.57-1.04-12.58-1.52-5.91-.58-4.48.28-11.44-.31-4.19-.36-4.49-5.19-2.69-5.25,8.22-.23,9.31-2.6,12.73-5.2.74-.49,1.63-.7,2.5-.57Z"/>
          </g>
          <polygon class="cls-16" points="331.72 409.22 341.9 410.02 342.69 406.25 332.46 403.99 331.72 409.22"/>
          <polygon class="cls-24" points="345.58 402.7 345.3 403.83 330.37 402.66 330.53 401.52 345.58 402.7"/>
          <path class="cls-20" d="m346.19,407.38l-3.67-.33-10.36-.93-3.34-.31c-1.7-2.11-.15-4.44-.15-4.44l1.86.15,15.06,1.18,1.09.09c1.25,3.59-.48,4.59-.48,4.59Z"/>
          <path class="cls-24" d="m406.82,345.04c-13.51,1.19-44.67,1.69-48.89,1.08l-12.35,56.59-15.06-1.18s1.6-48.93,8.23-69.16c5.33-16.26,90.76-12.89,90.76-12.89l.31,4.58c.59,15.78-7.54,19.61-23,20.99Z"/>
          <path class="cls-17" d="m406.82,345.04c-13.51,1.19-44.67,1.69-48.89,1.08l-12.35,56.59-15.06-1.18s1.6-48.93,8.23-69.16c5.33-16.26,90.76-12.89,90.76-12.89l.31,4.58c.59,15.78-7.54,19.61-23,20.99Z"/>
          <path class="cls-24" d="m338.52,338.27s.01-.1.05-.27l-.03.27h-.01Z"/>
          <path class="cls-24" d="m339.53,330.91l-.15,1.11s.01-.4.15-1.11Z"/>
        </g>
        <g>
          <g>
            <polygon class="cls-21" points="387.34 242.55 391.49 248.61 400.83 240.64 395 233.47 387.34 242.55"/>
            <path class="cls-16" d="m389.42,245.42c1.81-2.64.98-6.76.98-6.76l-1.64,2.09-1.42,1.81,2.08,2.86Z"/>
            <path class="cls-24" d="m371.39,229.2c.2.59.68.96,1.07.82.39-.14.56-.77.35-1.34-.21-.57-.68-.96-1.07-.81-.39.15-.55.74-.35,1.33Z"/>
            <path class="cls-23" d="m373.55,229.39l-1.33,5.66s1.93.55,3.8-1.01l-2.48-4.65Z"/>
            <path class="cls-24" d="m370.8,225.07c.09-.06.21-.08.31-.04.76.32,1.63.26,2.34-.18.15-.11.35-.07.45.07.1.15.06.36-.08.47-.89.58-2,.68-2.96.27-.17-.07-.25-.26-.18-.43h0c.03-.06.07-.11.12-.15Z"/>
            <path class="cls-21" d="m393.55,218.95c3.03,7.73,4.49,10.94,2.44,16.65-4.05,6.76-13.39,10.86-18.7,4.23-4.78-5.96-8.93-17.57-2.87-24.2,4.32-4.72,11.58-5.16,16.21-.97,1.3,1.18,2.31,2.65,2.93,4.29Z"/>
            <path class="cls-24" d="m400.88,221.26c-.46,2.59-.65,5.21-.77,7.84-.07,1.6-.43,3.19-1.08,4.65-1.3,2.93-3.91,5.15-6.85,6.42,0,0,.07.57,0,0,0,0-10.9-.13-15.54-13.84-2.55.24-5.18-.86-6.8-2.84-1.62-1.98-2.17-4.79-1.43-7.23.89-2.92,4.58-4.74,7.62-4.85,1.92-2.67,5.27-4.01,8.56-3.88,3.29.12,6.43,1.45,9.29,3.08,2.44,1.4,4.83,3.12,6.2,5.58.82,1.47,1.1,3.35.79,5.08Z"/>
            <path class="cls-21" d="m378.92,227.99c-.7,1.58-.74,3.36-.12,4.93.84,2.09,3.08,1.73,4.37-.01,1.17-1.58,2.12-4.57.54-6.1-1.58-1.54-3.92-.74-4.79,1.18Z"/>
            <g>
              <path class="cls-20" d="m400.9,236.13c-2.96.12-7.43,2.16-13.35,6.24-.66.45-.88,1.41-.8,2.2.08.79.87,1.55,1.63,1.3.4.96.66,2.1,1.06,3.06,1.71-1.06,3.89-1.62,5.74-2.4,2.96-1.25,6.06-2.13,9.15-3.01-.83-1.27-1.94-2.5-2.27-3.98.72-.2,1.07-1.15.93-1.88-.14-.73-1.34-1.56-2.08-1.53Z"/>
              <path class="cls-20" d="m400.9,236.13c-2.96.12-7.43,2.16-13.35,6.24-.66.45-.88,1.41-.8,2.2.08.79.87,1.55,1.63,1.3.4.96.66,2.1,1.06,3.06,1.71-1.06,3.89-1.62,5.74-2.4,2.96-1.25,6.06-2.13,9.15-3.01-.83-1.27-1.94-2.5-2.27-3.98.72-.2,1.07-1.15.93-1.88-.14-.73-1.34-1.56-2.08-1.53Z"/>
            </g>
          </g>
          <path class="cls-20" d="m392.13,312.72s-9.89-23.14-16.18-46.61c-4.63-17.31,8.62-17.61,24.6-21.92,12.68-3.41,18.1-.36,21.72,6.07,3.62,6.43,9.46,60.85,9.46,60.85l-39.6,1.61Z"/>
          <path class="cls-20" d="m392.13,312.72s-9.89-23.14-16.18-46.61c-4.63-17.31,8.62-17.61,24.6-21.92,12.68-3.41,18.1-.36,21.72,6.07,3.62,6.43,9.46,60.85,9.46,60.85l-39.6,1.61Z"/>
          <path class="cls-13" d="m392.13,312.72s-9.89-23.14-16.18-46.61c-4.63-17.31,8.62-17.61,24.6-21.92,12.68-3.41,18.1-.36,21.72,6.07,3.62,6.43,9.46,60.85,9.46,60.85l-39.6,1.61Z"/>
          <g>
            <g>
              <path class="cls-21" d="m334.31,287.77l-1.12.04c-1.02.04-1.91.72-2.21,1.69l-.23.75c-.23.75-.09,1.58.41,2.2,1.5,1.87,5.19,5.49,10.6,4.53l4.6-2.34.3-5.6-8.22-2.72c-.52-.07-1.04.03-1.5.28l-2.63,1.16Z"/>
              <polygon class="cls-21" points="346.35 294.64 357.71 296.06 357.06 289.62 346.65 289.03 346.35 294.64"/>
            </g>
            <path class="cls-20" d="m354.24,289.17c-.51.67-.96,1.59-.96,2.78,0,1.11.11,3.09,1.07,4.6h0c-1.9-.31-3.86-.18-5.7.38l-.1.03c-5.16-5.05-.93-9.21-.93-9.21l.38.12c2.04.65,4.13,1.08,6.25,1.29Z"/>
            <path class="cls-20" d="m376.41,298.31c-10.89.56-23.87-1.98-23.87-1.98-.32-.86-.32-1.71-.13-2.49.41-1.74,1.03-3.89,1.83-4.66.85-.83,5.38-.44,5.38-.44,0,0,9.46-2.51,11.35-3.55,1.87-1.03,2.92-7.23,3.34-11.38,2.21-22.2,6.35-23.16,10.02-23.53,7.61-.76,1.73,47.54-7.91,48.03Z"/>
          </g>
        </g>
      </g>
      <g>
        <g>
          <path class="cls-15" d="m343.52,423.78l10.17-62.8c1.07-6.64,6.8-11.51,13.52-11.51h24.95c6.94,0,12.78,5.18,13.6,12.07l7.55,63.1"/>
          <path class="cls-15" d="m378.42,423.78l10.17-62.8c1.07-6.64,6.8-11.51,13.52-11.51h24.95c6.94,0,12.78,5.18,13.6,12.07l7.55,63.1"/>
          <line class="cls-15" x1="346.19" y1="407.38" x2="380.54" y2="407.38"/>
          <line class="cls-15" x1="405.77" y1="361.54" x2="441.28" y2="361.54"/>
        </g>
        <g>
          <path class="cls-20" d="m412.27,350.9h26.13c10.07,0,18.46-7.74,19.25-17.79l3.72-46.94c.6-7.61-5.41-14.12-13.04-14.12h-14.43c-16.85,0-31.7,11.06-36.52,27.2l-10.01,33.52c-1.68,5.62-6.85,9.47-12.71,9.47h-18.26c-4.78,0-8.65,3.87-8.65,8.65h64.53Z"/>
          <path class="cls-2" d="m412.27,350.9h26.13c10.07,0,18.46-7.74,19.25-17.79l3.72-46.94c.6-7.61-5.41-14.12-13.04-14.12h-14.43c-16.85,0-31.7,11.06-36.52,27.2l-10.01,33.52c-1.68,5.62-6.85,9.47-12.71,9.47h-18.26c-4.78,0-8.65,3.87-8.65,8.65h64.53Z"/>
        </g>
      </g>
    </g>
  </g>
  <g id="Speedometer">
    <g>
      <g>
        <g>
          <path class="cls-20" d="m386.38,188.9h0v-.11s0,.07,0,.11Z"/>
          <g>
            <path class="cls-20" d="m339.29,176.24c-3.38,3.14-5.94,7.15-7.25,11.64l-1.83-.02c.63-5.09,2.58-9.83,5.47-13.88l3.61,2.26Z"/>
            <path class="cls-10" d="m339.29,176.24c-3.38,3.14-5.94,7.15-7.25,11.64l-1.83-.02c.63-5.09,2.58-9.83,5.47-13.88l3.61,2.26Z"/>
          </g>
          <g>
            <path class="cls-20" d="m349.89,170.26c-3.97,1.11-7.6,3.2-10.6,5.98l-3.61-2.26c2.93-4.11,6.84-7.51,11.32-9.83l2.89,6.11Z"/>
            <path class="cls-7" d="m349.89,170.26c-3.97,1.11-7.6,3.2-10.6,5.98l-3.61-2.26c2.93-4.11,6.84-7.51,11.32-9.83l2.89,6.11Z"/>
          </g>
          <g>
            <path class="cls-20" d="m361.12,160.76l-.89,8.93c-1.25-.22-2.54-.33-3.87-.33-2.22,0-4.39.31-6.47.89l-2.89-6.11c4.17-2.16,8.85-3.39,13.7-3.39.14,0,.28,0,.42,0Z"/>
            <path class="cls-4" d="m361.12,160.76l-.89,8.93c-1.25-.22-2.54-.33-3.87-.33-2.22,0-4.39.31-6.47.89l-2.89-6.11c4.17-2.16,8.85-3.39,13.7-3.39.14,0,.28,0,.42,0Z"/>
          </g>
          <g>
            <path class="cls-20" d="m374.49,164.56l-5.82,8.55c-2.45-1.69-5.3-2.88-8.44-3.41l.89-8.93c4.99.07,9.54,1.45,13.37,3.8Z"/>
            <path class="cls-5" d="m374.49,164.56l-5.82,8.55c-2.45-1.69-5.3-2.88-8.44-3.41l.89-8.93c4.99.07,9.54,1.45,13.37,3.8Z"/>
          </g>
          <g>
            <path class="cls-20" d="m383.75,174.63l-9.1,4.87c-1.51-2.54-3.54-4.72-5.98-6.4l5.82-8.55c3.97,2.43,7.16,5.91,9.26,10.08Z"/>
            <path class="cls-9" d="m383.75,174.63l-9.1,4.87c-1.51-2.54-3.54-4.72-5.98-6.4l5.82-8.55c3.97,2.43,7.16,5.91,9.26,10.08Z"/>
          </g>
          <g>
            <path class="cls-20" d="m386.4,188.54l-8.9-.11c-.29-3.26-1.29-6.29-2.86-8.93l9.1-4.87c2.05,4.09,3.04,8.83,2.66,13.9Z"/>
            <path class="cls-6" d="m386.4,188.54l-8.9-.11c-.29-3.26-1.29-6.29-2.86-8.93l9.1-4.87c2.05,4.09,3.04,8.83,2.66,13.9Z"/>
          </g>
          <path class="cls-20" d="m386.39,188.8s0,.07-.01.11c-.24,2.51-1.24,6.67-2.37,9.1l-7.21-1.63.58-2.75c.05-.36.1-.72.13-1.08h0l.02-.22h0c.11-1.33.09-2.63-.03-3.89l8.9.11c0,.05,0,.1,0,.15,0,.04,0,.07,0,.11Z"/>
        </g>
        <g>
          <path class="cls-20" d="m331.3,197.43l-.54.12c-.17-.69-.31-1.38-.42-2.09-.33-2.1-.42-4.29-.24-6.55h0v-.11s.02-.07.02-.11c.03-.28.06-.55.09-.83l1.83.02c-.42,1.43-.71,2.92-.86,4.44,0,.04-.01.07-.01.11s0,.07,0,.11c-.07.9-.09,1.79-.05,2.67.03.75.09,1.49.19,2.22Z"/>
          <path class="cls-2" d="m331.3,197.43l-.54.12c-.17-.69-.31-1.38-.42-2.09-.33-2.1-.42-4.29-.24-6.55h0v-.11s.02-.07.02-.11c.03-.28.06-.55.09-.83l1.83.02c-.42,1.43-.71,2.92-.86,4.44,0,.04-.01.07-.01.11s0,.07,0,.11c-.07.9-.09,1.79-.05,2.67.03.75.09,1.49.19,2.22Z"/>
        </g>
      </g>
      <g>
        <path class="cls-24" d="m385.8,195.98l-.75,1.89-1.54-.35-14.35-3.25-6.18-1.4c.44-.56.79-1.17,1.06-1.81.32-.76.51-1.56.56-2.37l13.7,4.7h0s7.51,2.58,7.51,2.58Z"/>
        <path class="cls-24" d="m364.59,188.69c-.1,1.48-.67,2.95-1.62,4.17l-5.55-1.26,1.76-4.78,5.42,1.86Z"/>
      </g>
      <path class="cls-20" d="m364.59,188.69c-.1,1.48-.67,2.95-1.62,4.17-.67.86-1.52,1.6-2.54,2.14-3.57,1.91-7.78.7-9.39-2.7-1.61-3.4-.03-7.72,3.55-9.63,3.57-1.91,7.78-.7,9.39,2.7.5,1.05.69,2.19.61,3.32Z"/>
    </g>
  </g>
  <g id="Number">
    <g>
      <path class="cls-20" d="m136.77,184.46h5.72v4.8h-6.29l-.88,7.04h-4.97l.88-7.04h-6.47l-.88,7.04h-4.93l.88-7.04h-5.77v-4.8h6.34l.92-7.13h-5.77v-4.8h6.34l.88-7.04h4.93l-.88,7.04h6.47l.88-7.04h4.93l-.88,7.04h5.72l.04,4.8h-6.34l-.88,7.13Zm-4.97,0l.92-7.13h-6.47l-.92,7.13h6.47Z"/>
      <path class="cls-20" d="m158.47,165.49v30.81h-7.13v-25.09h-6.16v-5.72h13.29Z"/>
    </g>
  </g>
  <g id="Symbol">
    <g>
      <g>
        <rect class="cls-24" x="82.44" y="293.66" width="49.31" height="33.95"/>
        <rect class="cls-20" x="82.44" y="293.66" width="49.31" height="3.11"/>
      </g>
      <g>
        <path class="cls-3" d="m91.47,312.43l8.06,4.47c.4.23.67.43.81.61.13.18.2.4.2.68,0,.35-.13.65-.38.9-.25.25-.54.38-.87.38-.22,0-.55-.12-.98-.36l-10.4-5.78c-.7-.39-.7-1.4,0-1.79l10.4-5.78c.44-.23.76-.35.97-.35.34,0,.64.13.89.38.25.25.38.55.38.9,0,.28-.07.5-.2.68-.13.18-.4.38-.81.61l-8.06,4.47Z"/>
        <path class="cls-3" d="m112.21,304.1l-7.98,17.19c-.2.43-.38.71-.55.84-.21.17-.47.25-.76.25-.34,0-.63-.12-.88-.36-.25-.24-.37-.52-.37-.83,0-.22.1-.54.29-.96l8-17.18c.2-.43.38-.71.53-.84.22-.17.47-.26.77-.26.34,0,.63.12.87.36.24.24.36.51.36.82,0,.22-.1.54-.29.96Z"/>
        <path class="cls-3" d="m122.24,312.43l-8.06-4.47c-.4-.23-.67-.43-.81-.61-.13-.18-.2-.4-.2-.68,0-.35.13-.65.38-.9.25-.25.55-.38.89-.38.21,0,.53.12.97.35l10.4,5.78c.7.39.7,1.4,0,1.79l-10.4,5.78c-.44.24-.76.36-.97.36-.34,0-.64-.13-.9-.39-.24-.24-.37-.56-.37-.9,0-.27.07-.5.2-.68.13-.18.4-.38.81-.61l8.06-4.47Z"/>
      </g>
    </g>
  </g>
</svg>